<?xml version="1.0" encoding="UTF-8"?>
<!DOCTYPE svg PUBLIC "-//W3C//DTD SVG 1.1//EN" "http://www.w3.org/Graphics/SVG/1.1/DTD/svg11.dtd">
<!-- Creator: CorelDRAW X7 -->
<svg xmlns="http://www.w3.org/2000/svg" xml:space="preserve" width="8.26772in" height="11.6929in" version="1.1" style="shape-rendering:geometricPrecision; text-rendering:geometricPrecision; image-rendering:optimizeQuality; fill-rule:evenodd; clip-rule:evenodd"
viewBox="0 0 8268 11693"
 xmlns:xlink="http://www.w3.org/1999/xlink">
 <defs>
  <style type="text/css">
   <![CDATA[
    .fil0 {fill:#1C1B17}
    .fil4 {fill:#010101}
    .fil5 {fill:#0D0E13}
    .fil6 {fill:#413F41}
    .fil3 {fill:#575759}
    .fil8 {fill:#6F6F71}
    .fil9 {fill:#838384}
    .fil7 {fill:#B6B6B9}
    .fil2 {fill:#EBECEC}
    .fil1 {fill:#FAFAFD}
   ]]>
  </style>
 </defs>
 <g id="Layer_x0020_1">
  <metadata id="CorelCorpID_0Corel-Layer"/>
  <g id="_1926010642336">
   <rect class="fil0" x="2191" y="4383" width="3885" height="2927"/>
   <g>
    <path class="fil1" d="M3367 6496l236 -1 38 -91c21,-51 102,-271 115,-286l553 0c11,13 63,131 79,163 16,33 0,36 -7,65 22,-7 39,-40 48,-59 14,-33 13,-53 13,-92l1 -317c-1,-29 -17,-55 -27,-80 -21,-48 -45,-99 -67,-147l-232 -511c-11,-26 -25,-50 -33,-73l-139 0c-9,30 -130,315 -146,355 -48,118 -95,233 -144,355 -49,121 -94,235 -144,356 -24,60 -48,116 -72,178 -13,31 -71,161 -72,185z"/>
    <path class="fil1" d="M4879 5086c27,12 154,174 170,215 31,28 102,226 117,280 85,325 -2,675 -208,933 -206,259 -463,386 -806,398 -131,5 -240,-21 -353,-51 -75,-20 -104,56 -61,95 15,13 128,38 158,42 109,19 166,23 276,23 138,-1 296,-39 414,-89 269,-113 483,-325 608,-599 42,-91 78,-193 95,-306 10,-63 15,-116 15,-182 1,-29 -13,-184 -11,-189l-3 -4c0,-1 -1,-2 -2,-3 0,0 0,-1 -1,-2 -3,-11 -18,-98 -43,-171 -19,-55 -40,-108 -67,-160 -40,-75 -79,-141 -133,-207 -10,-13 -47,-51 -50,-61 -14,-6 -41,-38 -52,-49 -15,-14 -33,-30 -54,-47 -259,-214 -563,-310 -900,-271 -46,5 -128,15 -169,28 -61,19 -52,105 17,104 24,0 60,-10 87,-15 258,-45 511,-11 733,116 59,34 149,97 199,147 13,13 17,12 24,25z"/>
    <path class="fil1" d="M4759 5564l-235 -1c-4,171 0,347 0,518 0,80 9,169 -24,235 -85,168 -271,158 -315,53 -17,-40 -18,-54 -48,-83 -75,-70 -203,-42 -248,65 -30,70 -10,151 28,205 155,219 707,144 823,-230 24,-75 20,-156 20,-241 0,-174 0,-348 -1,-521z"/>
    <path class="fil1" d="M3423 5148l-64 70c-65,75 -120,162 -163,257 -67,148 -92,276 -85,467 26,-3 -4,-9 41,-4 27,3 16,-2 34,-13 0,-21 -7,-66 6,-80 1,-52 13,-116 24,-163 11,-52 27,-101 46,-148 40,-94 84,-164 143,-239 105,-132 266,-250 459,-309 216,-65 452,-49 651,33 154,63 276,164 373,297 30,41 40,80 74,42 1,-44 -129,-188 -167,-220 -11,-9 -22,-17 -27,-27 -15,-5 -52,-38 -68,-51 -174,-126 -399,-199 -621,-183 -149,10 -254,32 -378,87 -185,83 -250,170 -278,184z"/>
    <path class="fil2" d="M3291 5955c4,4 3,-5 5,13 1,7 0,7 0,17 24,-7 17,-21 33,-48 4,-6 13,-11 18,-17 5,-5 5,-5 8,-10 5,-9 2,-6 7,-14 -2,-17 0,-72 4,-88 4,-14 4,-24 8,-39 2,-10 3,-33 10,-40l6 -33c12,-22 10,-48 21,-66 3,-9 6,-11 9,-18 3,-4 6,-13 9,-18 4,-10 7,-31 16,-37 4,-18 12,-32 26,-37 47,-14 131,-12 181,-13l7 -22c-30,0 -61,-1 -90,0 -29,1 -60,8 -89,9 18,-59 52,-52 81,-56 40,-5 83,-1 125,-5l6 -20c-55,-2 -109,0 -159,4 6,-16 17,-24 26,-35 15,-16 17,-15 43,-15 36,-1 73,-5 112,-4 2,-3 9,-18 10,-23 -44,-1 -87,0 -126,6 5,-17 37,-43 54,-45 27,-4 64,-4 92,-5 4,-6 7,-10 7,-20l-73 0c6,-10 1,-4 10,-12 61,-51 78,-15 94,-46 10,-18 47,-95 49,-113 -63,17 -171,84 -222,123 -63,48 -121,110 -170,180 -48,68 -87,149 -115,235 -37,114 -36,188 -33,312z"/>
    <path class="fil3" d="M3525 6575c4,15 26,29 38,39 16,13 29,21 44,32 310,227 747,227 1051,1 68,-50 107,-92 158,-152 12,-14 23,-28 33,-44l59 -93c28,-47 77,-170 84,-223 3,-16 13,-51 12,-65l-39 0c-7,103 -71,230 -123,314 -19,30 -39,58 -62,85 -88,106 -194,190 -337,246 -279,111 -617,51 -856,-129 -24,-18 -26,-12 -62,-11z"/>
    <path class="fil4" d="M3843 5914l365 0c-2,-13 -145,-321 -166,-370 -4,-10 -8,-18 -12,-27l-9 -21c-3,-4 -3,-4 -5,-6l-25 50c-20,48 -145,354 -148,374z"/>
    <path class="fil1" d="M3252 5122l-90 119c-69,104 -98,167 -142,284 -28,74 -29,120 -41,160l-5 10c3,25 -6,53 -7,79 -4,66 -5,108 0,174 2,31 -6,59 35,55 21,-22 10,-31 10,-62 -1,-93 -7,-127 10,-229 36,-225 171,-476 337,-627l13 -9c15,-36 206,-156 208,-161 8,-17 -3,-34 -21,-33 -26,1 -156,100 -181,121l-93 88c-8,10 -22,25 -33,31z"/>
    <path class="fil1" d="M4393 5151c-168,34 -116,264 40,240 63,-9 115,-67 103,-143 -10,-60 -74,-111 -143,-97z"/>
    <path class="fil5" d="M4768 5111c5,10 16,18 27,27 38,32 168,176 167,220 3,-4 8,-4 5,-22 3,5 2,4 6,9l9 7c1,0 2,1 3,2 3,-9 6,-19 6,-30 11,8 -1,3 17,6 1,-24 7,-8 7,-36 -4,8 3,10 9,17l2 3c1,0 1,1 2,1l17 3c0,-1 0,-4 0,-3 -1,1 -3,-13 -7,-4 5,-9 5,-8 11,-10 -16,-41 -143,-203 -170,-215 -15,2 1,-8 -9,5 9,4 7,-1 6,5 -7,-8 -6,-5 -20,-6 -1,1 -2,2 -2,3l-5 6c-12,10 -59,2 -75,1 -21,-2 10,-10 -20,-5 10,6 4,1 10,8 6,7 0,-4 4,8z"/>
    <path class="fil6" d="M3364 5904l-3 0c-3,31 1,86 6,119 2,16 1,22 3,38 2,29 20,47 3,68 -11,15 -9,10 -15,29 -1,3 -2,6 -3,7 -8,26 0,21 -9,28 3,13 17,47 26,55 7,-10 48,-125 48,-131 -18,-1 -20,4 -30,-4 9,-5 9,-6 20,-11 17,-9 14,-3 21,-12 4,-5 16,-37 15,-46 -27,-4 -47,7 -72,9 5,-16 15,-17 37,-26 51,-20 42,6 59,-35 5,-13 8,-12 4,-15 -18,-17 -86,7 -106,6 -1,-32 87,-44 120,-46 8,-12 14,-22 12,-34 -2,-18 -134,1 -136,1z"/>
    <path class="fil7" d="M3111 5942c0,36 8,87 15,120 6,26 20,86 29,104 1,1 2,0 3,2 1,4 3,-2 7,12 -3,-18 -2,-11 0,-29 18,1 28,3 51,3l2 -13c8,11 3,19 12,27l-2 -21c0,-9 -24,-111 -27,-137 -8,-57 -8,-105 -9,-165 -13,14 -6,59 -6,80 -18,11 -7,16 -34,13 -45,-5 -15,1 -41,4z"/>
    <path class="fil8" d="M3384 5729c-7,7 -8,30 -10,40 -4,15 -4,25 -8,39 -4,16 -6,71 -4,88l-1 8 3 0c3,-10 -3,-8 28,-20 12,-5 24,-10 37,-13 31,-6 56,-7 88,-12 4,-7 11,-22 10,-32 -94,-5 -79,-6 -160,11 0,-35 5,-47 71,-58 17,-3 38,-6 55,-8 19,-2 42,-2 62,-5l9 -29c-74,-12 -97,-19 -178,-1 -5,-5 -4,1 -2,-8z"/>
    <path class="fil7" d="M3291 5955c3,43 12,88 21,127 5,21 34,107 34,111 9,-7 1,-2 9,-28 1,-1 2,-4 3,-7 6,-19 4,-14 15,-29 17,-21 -1,-39 -3,-68 -2,-16 -1,-22 -3,-38 -5,-33 -9,-88 -6,-119l1 -8c-5,8 -2,5 -7,14 -3,5 -3,5 -8,10 -5,6 -14,11 -18,17 -16,27 -9,41 -33,48 0,-10 1,-10 0,-17 -2,-18 -1,-9 -5,-13z"/>
    <path class="fil3" d="M3186 6256c8,27 70,147 88,170 8,10 1,6 12,8 7,-16 13,-34 20,-49 23,-49 13,-28 -31,-125 -2,-3 -3,-5 -4,-7 -4,-7 -1,-2 -6,-7l1 13c-19,-12 -5,-6 -18,-8 -20,-2 -44,-6 -62,5z"/>
    <path class="fil9" d="M3411 5630c20,-14 -7,-7 40,-19 18,-5 34,-9 52,-11 91,-12 124,13 129,-35 -60,-23 -142,-5 -186,-3l-1 -5c-9,6 -12,27 -16,37 -3,5 -6,14 -9,18 -3,7 -6,9 -9,18z"/>
    <path class="fil9" d="M3155 6166c5,31 26,64 31,90 18,-11 42,-7 62,-5 13,2 -1,-4 18,8l-1 -13c-2,-13 -12,-34 -17,-48l-15 -44c-3,-6 -2,-3 -5,-7l2 21c-9,-8 -4,-16 -12,-27l-2 13c-23,0 -33,-2 -51,-3 -2,18 -3,11 0,29 -4,-14 -6,-8 -7,-12 -1,-2 -2,-1 -3,-2z"/>
    <path class="fil9" d="M3390 5696c68,-28 122,-18 199,-22l10 -28c-57,-9 -125,-22 -183,-5 -6,-6 -3,2 -5,-11 -11,18 -9,44 -21,66z"/>
    <path class="fil1" d="M4640 5378c-50,21 -16,90 30,71 44,-19 19,-91 -30,-71z"/>
    <path class="fil1" d="M5012 5775c-44,24 -10,87 32,68 47,-20 16,-94 -32,-68z"/>
    <path class="fil1" d="M5011 5920c-21,13 -27,32 -13,52 9,15 32,25 52,14 40,-23 4,-94 -39,-66z"/>
    <path class="fil1" d="M4988 5638c-45,26 -4,81 34,63 40,-19 10,-88 -34,-63z"/>
   </g>
  </g>
 </g>
</svg>
