<?xml version="1.0" encoding="UTF-8"?>
<svg version="1.1" xmlns="http://www.w3.org/2000/svg" width="54" height="69">
<path d="M0 0 C0 0.99 0 1.98 0 3 C-1.98 3.99 -3.96 4.98 -6 6 C-5.113125 6.969375 -4.22625 7.93875 -3.3125 8.9375 C2.90422862 16.18543952 6.62329482 23.33893025 6 33 C4.71753145 38.78053839 2.71292671 44.02683895 -0.1328125 49.2109375 C-1.05665592 51.11688474 -1.5541359 52.93446632 -2 55 C-11.86710927 52.85095747 -19.87691912 47.90312321 -26.3125 40.25 C-30.79550103 31.61607208 -30.62993171 23.37482672 -27.87109375 14.27734375 C-23.99160071 2.92259496 -23.99160071 2.92259496 -19.3125 -0.4375 C-13.27691127 -3.32155781 -5.79258828 -3.36998711 0 0 Z " fill="#F3CD16" transform="translate(39,8)"/>
<path d="M0 0 C0.9384375 -0.00515625 1.876875 -0.0103125 2.84375 -0.015625 C5.54047676 0.25404768 7.18949293 0.8767741 9.5 2.25 C9.5 3.24 9.5 4.23 9.5 5.25 C4.96298506 6.70184478 1.31938524 7.48509196 -3.5 7.25 C-3.5 7.91 -3.5 8.57 -3.5 9.25 C-2.84 9.25 -2.18 9.25 -1.5 9.25 C-0.29727181 11.65545638 -0.39928528 13.19996953 -0.4375 15.875 C-0.44652344 16.69226563 -0.45554687 17.50953125 -0.46484375 18.3515625 C-0.47644531 18.97804688 -0.48804688 19.60453125 -0.5 20.25 C-5.03975699 19.71591094 -8.10330601 18.33072246 -11.5 15.25 C-12.10792997 10.4625515 -12.00323828 6.50550508 -9.5 2.25 C-6.32395543 0.20416949 -3.73531347 -0.0205237 0 0 Z " fill="#60663A" transform="translate(29.5,5.75)"/>
<path d="M0 0 C-1.32 0.99 -2.64 1.98 -4 3 C-3.21625 3.53625 -2.4325 4.0725 -1.625 4.625 C1.33426299 7.30242842 2.04608256 9.18433025 3 13 C2.34 13 1.68 13 1 13 C1 12.34 1 11.68 1 11 C0.34 11 -0.32 11 -1 11 C-1.2475 11.639375 -1.495 12.27875 -1.75 12.9375 C-3 15 -3 15 -5.125 15.75 C-6.053125 15.87375 -6.053125 15.87375 -7 16 C-7 16.66 -7 17.32 -7 18 C-7.66 18 -8.32 18 -9 18 C-9 17.34 -9 16.68 -9 16 C-9.66 16 -10.32 16 -11 16 C-11 15.34 -11 14.68 -11 14 C-10.01 14 -9.02 14 -8 14 C-8.33 10.37 -8.66 6.74 -9 3 C-9.66 3 -10.32 3 -11 3 C-11 2.34 -11 1.68 -11 1 C-3.57142857 -1.42857143 -3.57142857 -1.42857143 0 0 Z " fill="#E9C824" transform="translate(37,12)"/>
<path d="M0 0 C3.88957062 5.03662897 4.41421326 8.57969441 4 15 C2.71753145 20.78053839 0.71292671 26.02683895 -2.1328125 31.2109375 C-3.05665592 33.11688474 -3.5541359 34.93446632 -4 37 C-7.39699351 36.27723542 -10.3978871 35.04584661 -13.5625 33.625 C-14.51253906 33.20476563 -15.46257813 32.78453125 -16.44140625 32.3515625 C-18.79205367 31.10984646 -20.27245935 29.98928924 -22 28 C-20.02 28.33 -18.04 28.66 -16 29 C-16 29.66 -16 30.32 -16 31 C-15.29875 31.12375 -14.5975 31.2475 -13.875 31.375 C-10.82343613 32.03838345 -7.94659062 32.97211955 -5 34 C-5 32.68 -5 31.36 -5 30 C-4.34 30 -3.68 30 -3 30 C-2.87625 29.13375 -2.7525 28.2675 -2.625 27.375 C-2 24 -2 24 -0.96875 21.375 C0.27575291 17.03931246 0.2179064 13.1059471 0.125 8.625 C0.11597656 7.79355469 0.10695313 6.96210937 0.09765625 6.10546875 C0.0742622 4.07018663 0.03839725 2.03505436 0 0 Z " fill="#F0DD68" transform="translate(41,26)"/>
<path d="M0 0 C0.9384375 -0.00515625 1.876875 -0.0103125 2.84375 -0.015625 C5.54047676 0.25404768 7.18949293 0.8767741 9.5 2.25 C9.5 3.24 9.5 4.23 9.5 5.25 C7.27884855 5.863146 5.04752254 6.43952158 2.8125 7 C1.57113281 7.32484375 0.32976563 7.6496875 -0.94921875 7.984375 C-4.5 8.25 -4.5 8.25 -7.45703125 6.453125 C-9.5 4.25 -9.5 4.25 -9.5 2.25 C-6.2396882 0.31226752 -3.77138064 -0.02072187 0 0 Z " fill="#6E7B72" transform="translate(29.5,5.75)"/>
<path d="M0 0 C0.33 0 0.66 0 1 0 C1.03963867 0.56396484 1.07927734 1.12792969 1.12011719 1.70898438 C1.31272589 4.30760566 1.53119035 6.90345877 1.75 9.5 C1.811875 10.386875 1.87375 11.27375 1.9375 12.1875 C2.41365291 17.58389965 3.41471369 21.63633433 6.16894531 26.32617188 C7 28 7 28 7 31 C0.95339236 24.30669636 -2.21530648 18.63348998 -1.91796875 9.47265625 C-1.59681262 6.11412522 -1.06969792 3.20909375 0 0 Z " fill="#F2E175" transform="translate(11,23)"/>
<path d="M0 0 C3.0916909 2.52956528 3.90931332 5.22454612 5 9 C5.66 9 6.32 9 7 9 C7 7.35 7 5.7 7 4 C7.33 4 7.66 4 8 4 C8 6.97 8 9.94 8 13 C3.25 12.25 3.25 12.25 1 10 C1.66 10 2.32 10 3 10 C2.505 8.906875 2.01 7.81375 1.5 6.6875 C0 3 0 3 0 0 Z " fill="#797F3F" transform="translate(21,13)"/>
<path d="M0 0 C-1.32 0.99 -2.64 1.98 -4 3 C-1.525 4.98 -1.525 4.98 1 7 C0.67 7.66 0.34 8.32 0 9 C-0.7425 8.34 -1.485 7.68 -2.25 7 C-4.97242945 4.60788553 -4.97242945 4.60788553 -9 5 C-9 4.34 -9 3.68 -9 3 C-9.66 3 -10.32 3 -11 3 C-11 2.34 -11 1.68 -11 1 C-3.57142857 -1.42857143 -3.57142857 -1.42857143 0 0 Z " fill="#D9D082" transform="translate(37,12)"/>
<path d="M0 0 C2.97 0 5.94 0 9 0 C9 1.32 9 2.64 9 4 C5.625 3.6875 5.625 3.6875 2 3 C1.34 2.01 0.68 1.02 0 0 Z " fill="#586240" transform="translate(23,9)"/>
<path d="M0 0 C0 0.66 0 1.32 0 2 C1.65 2 3.3 2 5 2 C5 2.33 5 2.66 5 3 C2.36 3.33 -0.28 3.66 -3 4 C-2.01 4.99 -1.02 5.98 0 7 C-3.52032428 7 -4.4385343 6.29648649 -7 4 C-7 3.34 -7 2.68 -7 2 C-4.35261084 0.5393715 -3.10551666 0 0 0 Z " fill="#9FA26B" transform="translate(27,6)"/>
<path d="M0 0 C0.66 0 1.32 0 2 0 C5 5.625 5 5.625 5 9 C3.68 9 2.36 9 1 9 C0.67 6.03 0.34 3.06 0 0 Z " fill="#506046" transform="translate(19,14)"/>
<path d="M0 0 C0.66 0.33 1.32 0.66 2 1 C1.34 1.66 0.68 2.32 0 3 C-0.45811675 4.97235333 -0.45811675 4.97235333 -0.625 7.125 C-0.810625 9.043125 -0.810625 9.043125 -1 11 C-1.99 11 -2.98 11 -4 11 C-4 11.99 -4 12.98 -4 14 C-4.66 14 -5.32 14 -6 14 C-4.45941767 8.98491285 -2.97068161 4.3852919 0 0 Z " fill="#ECD978" transform="translate(18,9)"/>
<path d="M0 0 C1 2 1 2 0.875 5.9375 C0.77941624 9.2264679 0.77941624 9.2264679 2.5 12 C2.995 12.33 3.49 12.66 4 13 C1.69 12.67 -0.62 12.34 -3 12 C-3 11.01 -3 10.02 -3 9 C-2.34 9 -1.68 9 -1 9 C-1.020625 7.700625 -1.04125 6.40125 -1.0625 5.0625 C-1.08399454 3.70834367 -1.07148199 2.35243917 -1 1 C-0.67 0.67 -0.34 0.34 0 0 Z " fill="#CBB42B" transform="translate(18,11)"/>
<path d="M0 0 C0.66 0 1.32 0 2 0 C1.67 2.31 1.34 4.62 1 7 C-0.32 6.67 -1.64 6.34 -3 6 C-3 5.34 -3 4.68 -3 4 C-2.01 4 -1.02 4 0 4 C0 2.68 0 1.36 0 0 Z " fill="#E7D144" transform="translate(36,56)"/>
</svg>
