<?xml version="1.0" standalone="no"?>
<!DOCTYPE svg PUBLIC "-//W3C//DTD SVG 20010904//EN"
 "http://www.w3.org/TR/2001/REC-SVG-20010904/DTD/svg10.dtd">
<svg version="1.0" xmlns="http://www.w3.org/2000/svg"
 width="54.000000pt" height="69.000000pt" viewBox="0 0 54.000000 69.000000"
 preserveAspectRatio="xMidYMid meet">
<g transform="translate(0.000000,69.000000) scale(0.100000,-0.100000)"
fill="#000000" stroke="none">
<path d="M248 619 c-36 -14 -35 -22 6 -44 30 -16 39 -17 80 -5 26 7 49 16 52
21 14 23 -94 45 -138 28z m65 -16 c-13 -2 -35 -2 -50 0 -16 2 -5 4 22 4 28 0
40 -2 28 -4z"/>
<path d="M183 580 c-23 -18 -24 -51 -2 -92 8 -14 96 -68 112 -68 2 0 1 23 -3
50 -5 41 -14 58 -46 89 -38 38 -39 39 -61 21z m47 -40 c7 -16 16 -27 21 -24 5
3 6 -3 2 -12 -5 -13 -3 -15 7 -9 9 5 11 4 6 -4 -4 -6 -2 -18 4 -26 8 -9 8 -15
2 -15 -12 0 -45 51 -61 93 -14 37 3 35 19 -3z m-15 -46 c9 -15 12 -23 6 -20
-11 7 -35 46 -28 46 3 0 12 -12 22 -26z"/>
<path d="M305 523 c2 -10 4 -22 4 -26 1 -5 6 -5 13 -1 8 5 9 2 4 -11 -5 -15
-4 -16 8 -6 12 10 17 9 25 -7 6 -11 7 -23 3 -27 -4 -3 1 -12 10 -19 23 -17 40
-64 33 -90 -5 -17 -4 -18 4 -6 10 13 11 13 11 0 0 -19 -23 -107 -43 -164 -9
-27 -11 -28 -19 -10 -6 13 -7 10 -3 -14 5 -37 -20 -58 -37 -29 -5 10 -14 17
-19 17 -6 0 -7 -5 -3 -11 3 -6 -9 -3 -27 7 -19 10 -38 17 -43 16 -5 -2 -6 4
-3 12 4 10 1 13 -9 9 -9 -3 -14 2 -14 17 0 15 -4 20 -15 17 -8 -4 -17 -1 -21
5 -5 7 -2 8 5 3 10 -6 11 -3 2 13 -6 12 -16 24 -21 27 -6 3 -10 15 -10 26 0
11 4 18 9 15 5 -4 7 3 4 15 -4 14 -8 17 -13 9 -4 -7 -9 8 -11 34 -3 26 -1 50
3 54 3 4 8 18 10 32 2 17 9 25 21 24 12 -1 15 2 8 10 -5 6 -11 22 -13 35 -2
18 -10 5 -31 -49 -26 -68 -28 -78 -18 -133 19 -111 75 -177 186 -222 71 -30
75 -30 75 -8 0 9 9 35 20 57 10 23 27 70 36 105 18 73 10 126 -31 196 -42 73
-98 121 -90 78z"/>
<path d="M81 474 c0 -11 3 -14 6 -6 3 7 2 16 -1 19 -3 4 -6 -2 -5 -13z"/>
</g>
</svg>
