<svg width="126" height="54" viewBox="0 0 126 54" fill="none" xmlns="http://www.w3.org/2000/svg">
<path d="M38.9481 49.0102C36.416 49.0102 32.8011 46.6612 30.9282 49.8315C29.5785 53.0436 25.477 55.4658 22.6259 51.8927C18.5401 43.5223 12.9006 53.0175 5.57653 46.4153C0.878665 42.8475 0.130564 35.3874 4.04894 30.9459C4.67671 30.1769 4.68718 30.0879 3.91292 29.3764C-5.15322 22.4081 2.9451 6.62478 13.8527 10.4176C14.3759 10.6269 15.1763 11.0872 15.2391 10.1456C15.5791 4.74668 19.5289 0.535345 24.9853 0.0802067C26.4224 -0.0974659 27.8806 0.0207748 29.2703 0.427654C30.66 0.834534 31.9517 1.52145 33.0661 2.44614C34.1804 3.37083 35.0937 4.51373 35.7499 5.80455C36.4061 7.09537 36.7912 8.50679 36.8816 9.95199C37.002 10.7419 37.1537 10.9198 37.8861 10.6112C42.155 8.82723 46.9051 10.5641 49.5994 13.8233C53.5282 18.3276 53.0574 25.7667 48.1764 29.3869C47.5015 29.9101 47.4754 30.2658 48.0195 30.9197C54.1507 37.9613 48.3804 49.549 38.9481 49.0102ZM26.1571 13.8599C16.1075 13.3368 7.37615 25.5732 12.8169 34.3568C12.6599 17.8411 32.0687 14.1633 33.7428 27.0903C33.7846 30.5378 30.6876 33.8912 27.0674 33.2059C22.9973 32.3636 23.102 28.2621 25.0114 25.2122C15.7517 29.5386 19.4452 43.5223 30.2011 41.3827C46.2146 37.7625 42.1864 13.4309 26.1571 13.8599Z" fill="#012F25"/>
<path d="M61.0509 22.1047L60.3394 26.609H58.1475L60.2139 13.614H64.8699C70.9436 13.7657 70.3263 23.5224 61.0509 22.1047ZM62.0972 15.581L61.3648 20.1324C63.3999 20.2214 66.6957 20.3678 66.523 17.5533C66.6591 15.2305 63.6719 15.5653 62.0815 15.581H62.0972Z" fill="#012F25"/>
<path d="M75.0661 19.7244C70.9385 19.0338 71.2576 23.8782 70.7083 26.609H68.6157L70.0125 17.7992H71.9534L71.8802 19.1542C72.4713 17.9038 74.0355 17.3859 75.3852 17.7469L75.0661 19.7244Z" fill="#012F25"/>
<path d="M80.0413 17.5899C86.5545 17.5533 84.6921 27.2001 79.0787 26.8182C72.5812 26.8549 74.4698 17.2133 80.0413 17.5899ZM79.2043 24.9715C82.1653 25.2436 83.4993 19.4523 79.9367 19.4209C77.0018 19.1437 75.6155 24.9401 79.2252 24.9715H79.2043Z" fill="#012F25"/>
<path d="M82.7669 28.8481C83.7295 29.1463 84.5195 28.9109 84.6712 27.6187L86.2406 17.8201H88.3332L86.7638 27.8541C86.4342 30.5012 84.4096 31.3906 82.2804 30.7L82.7669 28.8481ZM86.4656 14.9585C86.3714 13.4466 88.9714 12.777 89.029 14.5505C89.1075 16.0519 86.5283 16.7529 86.4656 14.9585Z" fill="#012F25"/>
<path d="M88.9034 22.8894C88.5685 16.3762 99.0733 15.4973 97.3679 22.6958H90.9122C90.6088 25.4057 94.2395 25.8347 95.1654 23.7421H97.2266C96.0443 27.9953 88.6209 27.8279 88.9034 22.8894ZM91.1424 21.3618H95.5002C95.8926 18.4165 91.6447 18.8821 91.1424 21.3618Z" fill="#012F25"/>
<path d="M103.133 17.5899C105.445 17.5899 106.847 18.8507 106.921 21.0061H104.828C104.247 17.9091 100.025 19.8238 100.386 22.7639C100.219 25.4528 103.766 25.6673 104.493 23.3864H106.628C105.728 27.9796 98.0166 28.0006 98.2572 22.8633C98.2258 19.8918 100.36 17.5899 103.133 17.5899Z" fill="#012F25"/>
<path d="M108.15 26.609L109.249 19.5622H107.58L107.862 17.8201H109.536L109.96 15.0998H112.053L111.629 17.8201H113.298L113 19.5622H111.325L110.227 26.609H108.15Z" fill="#012F25"/>
<path d="M58.3987 37.8357C57.6402 30.1821 69.6359 26.6456 70.5985 34.6969H68.2862C66.926 29.795 60.0937 32.9129 60.7111 37.7049C60.4181 42.0366 66.3663 42.6853 67.7003 39.0024H70.1016C68.4432 45.4894 58.0273 44.8825 58.3987 37.8357Z" fill="#012F25"/>
<path d="M70.724 43.3497L72.8166 30.1141H74.9092L72.8166 43.3497H70.724Z" fill="#012F25"/>
<path d="M76.1124 34.5399H78.205L76.8187 43.3288H74.7261L76.1124 34.5399ZM76.3478 31.6783C76.2432 30.1768 78.8537 29.4863 78.9269 31.2702C78.995 32.7874 76.4106 33.4936 76.3478 31.6992V31.6783Z" fill="#012F25"/>
<path d="M78.6915 43.3497L80.0831 34.5399H82.0031V35.5862C83.1226 33.886 86.5021 33.7029 87.0933 35.9263C88.5424 33.164 93.6221 34.0534 92.9054 37.5794L92.0161 43.334H89.9235C89.7979 41.864 92.194 36.0466 89.28 36.1669C86.523 35.9419 86.9468 41.6442 86.3818 43.334H84.2892C84.1741 41.8797 86.5701 36.0884 83.6876 36.1826C80.8887 35.9472 81.3387 41.6338 80.7684 43.334L78.6915 43.3497Z" fill="#012F25"/>
<path d="M93.8994 39.6301C93.5646 33.1169 104.075 32.238 102.369 39.4366H95.9083C95.6049 42.1465 99.2355 42.5754 100.162 40.4828H102.223C101.04 44.736 93.6431 44.5686 93.8994 39.6301ZM96.1437 38.1025H100.502C100.889 35.1572 96.6407 35.6228 96.1437 38.1025Z" fill="#012F25"/>
<path d="M104.823 40.713C104.702 42.3348 107.993 42.3348 107.962 40.8752C107.684 39.0651 103.51 39.9859 103.661 37.1243C103.379 33.5616 110.598 33.321 110.347 37.1243H108.338C108.516 35.5548 105.597 35.4816 105.649 36.8941C105.979 38.7774 110.216 37.9404 109.971 40.6293C110.321 44.2914 102.594 44.5739 102.824 40.6973L104.823 40.713Z" fill="#012F25"/>
<path d="M110.907 39.6301C110.572 33.1169 121.077 32.238 119.372 39.4366H112.916C112.612 42.1465 116.243 42.5754 117.169 40.4828H119.23C118.064 44.736 110.64 44.5686 110.907 39.6301ZM113.146 38.1025H117.504C117.912 35.1572 113.664 35.6228 113.162 38.1025H113.146Z" fill="#012F25"/>
<path d="M120.847 43.3497L121.951 36.3029H120.276L120.564 34.5608H122.233L122.662 31.8405H124.755L124.326 34.5608H126L125.712 36.3029H124.043L122.939 43.3497H120.847Z" fill="#012F25"/>
</svg>
