<?xml version="1.0" encoding="UTF-8"?>
<svg version="1.1" xmlns="http://www.w3.org/2000/svg" width="220" height="68">
<path d="M0 0 C72.6 0 145.2 0 220 0 C220 22.44 220 44.88 220 68 C147.4 68 74.8 68 0 68 C0 45.56 0 23.12 0 0 Z " fill="#F7F8F8" transform="translate(0,0)"/>
<path d="M0 0 C1.875 0.375 1.875 0.375 4 1 C5.32 1 6.64 1 8 1 C10.66666667 1 13.33333333 1 16 1 C16.66 0.79375 17.32 0.5875 18 0.375 C20 0 20 0 22 1.0625 C22.66 1.371875 23.32 1.68125 24 2 C24.66 1.67 25.32 1.34 26 1 C26.66 0.67 27.32 0.34 28 0 C30.25 0.875 30.25 0.875 32 2 C32.66 1.34 33.32 0.68 34 0 C35.875 0.375 35.875 0.375 38 1 C39.32 1 40.64 1 42 1 C44.66666667 1 47.33333333 1 50 1 C50.66 0.79375 51.32 0.5875 52 0.375 C54 0 54 0 56 1.0625 C56.66 1.371875 57.32 1.68125 58 2 C60.23470405 1.21690533 60.23470405 1.21690533 62 0 C62.99 0.99 62.99 0.99 64 2 C65.93125966 1.6425235 65.93125966 1.6425235 68 1 C80 1 80 1 81.75 2.5 C82.1625 2.995 82.575 3.49 83 4 C82.67 4.66 82.34 5.32 82 6 C81.01 5.01 80.02 4.02 79 3 C75.88214887 3.64644661 75.88214887 3.64644661 75 6 C74.401875 5.67 73.80375 5.34 73.1875 5 C70.94613529 3.79212012 70.94613529 3.79212012 68 4 C67.01 4.66 66.02 5.32 65 6 C64.01 5.01 63.02 4.02 62 3 C58.88214887 3.64644661 58.88214887 3.64644661 58 6 C57.401875 5.67 56.80375 5.34 56.1875 5 C53.94613529 3.79212012 53.94613529 3.79212012 51 4 C50.01 4.66 49.02 5.32 48 6 C47.01 5.01 46.02 4.02 45 3 C41.88214887 3.64644661 41.88214887 3.64644661 41 6 C40.401875 5.67 39.80375 5.34 39.1875 5 C36.94613529 3.79212012 36.94613529 3.79212012 34 4 C31.84971696 4.94978897 31.84971696 4.94978897 30 6 C29.34 5.01 28.68 4.02 28 3 C24.88214887 3.64644661 24.88214887 3.64644661 24 6 C23.401875 5.67 22.80375 5.34 22.1875 5 C19.94613529 3.79212012 19.94613529 3.79212012 17 4 C14.84971696 4.94978897 14.84971696 4.94978897 13 6 C12.34 5.01 11.68 4.02 11 3 C7.88214887 3.64644661 7.88214887 3.64644661 7 6 C6.401875 5.67 5.80375 5.34 5.1875 5 C2.94613529 3.79212012 2.94613529 3.79212012 0 4 C-0.99 4.66 -1.98 5.32 -3 6 C-2.42655063 3.13275314 -2.1385485 2.1385485 0 0 Z " fill="#F9CDCC" transform="translate(52,46)"/>
<path d="M0 0 C0.66 0 1.32 0 2 0 C2 4.62 2 9.24 2 14 C-0.31 14 -2.62 14 -5 14 C-7.14915785 10.77626323 -7.38286803 9.73296326 -7 6 C-5 4 -5 4 -2.375 3.875 C-1.59125 3.91625 -0.8075 3.9575 0 4 C0 2.68 0 1.36 0 0 Z " fill="#3C4041" transform="translate(131,27)"/>
<path d="M0 0 C2.9375 0.1875 2.9375 0.1875 3.9375 1.1875 C4.0703125 3 4.0703125 3 4.0625 5.1875 C4.06507812 5.909375 4.06765625 6.63125 4.0703125 7.375 C3.9375 9.1875 3.9375 9.1875 2.9375 10.1875 C0 10.375 0 10.375 -3.0625 10.1875 C-5.0625 8.1875 -5.0625 8.1875 -5.3125 5.1875 C-4.96470552 1.01396625 -4.18057901 0.25595382 0 0 Z " fill="#434748" transform="translate(74.0625,30.8125)"/>
<path d="M0 0 C3.0625 0.1875 3.0625 0.1875 5.0625 2.1875 C5.3125 5.1875 5.3125 5.1875 5.0625 8.1875 C3.0625 10.1875 3.0625 10.1875 -0.0625 10.3125 C-1.485625 10.250625 -1.485625 10.250625 -2.9375 10.1875 C-4.42856457 7.20537087 -4.05691467 4.47140342 -3.9375 1.1875 C-2.9375 0.1875 -2.9375 0.1875 0 0 Z " fill="#4C5051" transform="translate(191.9375,30.8125)"/>
<path d="M0 0 C0.99 0.33 1.98 0.66 3 1 C3.6875 3.0625 3.6875 3.0625 4 5 C5.70840281 3.36587557 6.93453047 2.13093906 8 0 C8.99 0 9.98 0 11 0 C11 4.62 11 9.24 11 14 C10.34 14 9.68 14 9 14 C8.67 11.03 8.34 8.06 8 5 C7.01 6.485 7.01 6.485 6 8 C5.34 8 4.68 8 4 8 C3.67 7.34 3.34 6.68 3 6 C2.67 8.64 2.34 11.28 2 14 C1.34 14 0.68 14 0 14 C0 9.38 0 4.76 0 0 Z " fill="#3D4142" transform="translate(142,27)"/>
<path d="M0 0 C0.94875 0.04125 1.8975 0.0825 2.875 0.125 C3.205 2.105 3.535 4.085 3.875 6.125 C1.895 6.455 -0.085 6.785 -2.125 7.125 C-0.145 7.125 1.835 7.125 3.875 7.125 C3.545 8.115 3.215 9.105 2.875 10.125 C0 10.25 0 10.25 -3.125 10.125 C-5.125 8.125 -5.125 8.125 -5.375 5.125 C-5.02345647 0.90647769 -4.22997422 0.16919897 0 0 Z " fill="#434748" transform="translate(161.125,30.875)"/>
<path d="M0 0 C2.875 -0.125 2.875 -0.125 6 0 C8 2 8 2 8 6 C5.69 6 3.38 6 1 6 C1.33 6.66 1.66 7.32 2 8 C3.65 7.67 5.3 7.34 7 7 C6.67 7.99 6.34 8.98 6 10 C3.625 10.125 3.625 10.125 1 10 C-1 8 -1 8 -1.1875 5 C-1 2 -1 2 0 0 Z " fill="#575B5C" transform="translate(102,31)"/>
<path d="M0 0 C6.15234375 -0.09765625 6.15234375 -0.09765625 8 0 C9 1 9 1 9.09765625 3.06640625 C9.08605469 3.89011719 9.07445313 4.71382812 9.0625 5.5625 C9.05347656 6.38878906 9.04445313 7.21507812 9.03515625 8.06640625 C9.02355469 8.70449219 9.01195313 9.34257813 9 10 C8.34 10 7.68 10 7 10 C7 7.36 7 4.72 7 2 C5.68 2 4.36 2 3 2 C3 4.64 3 7.28 3 10 C2.01 10 1.02 10 0 10 C0 6.7 0 3.4 0 0 Z " fill="#4B4E4F" transform="translate(81,31)"/>
<path d="M0 0 C2.64 0 5.28 0 8 0 C9.60725635 3.21451269 9.05748185 6.43612536 9 10 C8.34 10 7.68 10 7 10 C6.67 7.69 6.34 5.38 6 3 C4.68 2.67 3.36 2.34 2 2 C2 4.64 2 7.28 2 10 C1.34 10 0.68 10 0 10 C0 6.7 0 3.4 0 0 Z " fill="#343839" transform="translate(168,31)"/>
<path d="M0 0 C2.97 0 5.94 0 9 0 C9 0.33 9 0.66 9 1 C6.69 1 4.38 1 2 1 C2 2.65 2 4.3 2 6 C3.65 6 5.3 6 7 6 C7 6.66 7 7.32 7 8 C5.35 8 3.7 8 2 8 C2 9.98 2 11.96 2 14 C1.34 14 0.68 14 0 14 C0 9.38 0 4.76 0 0 Z " fill="#2D3232" transform="translate(50,27)"/>
<path d="M0 0 C2.33294775 -0.04241723 4.66702567 -0.04092937 7 0 C8 1 8 1 8.09765625 3.06640625 C8.08605469 3.89011719 8.07445313 4.71382812 8.0625 5.5625 C8.05347656 6.38878906 8.04445313 7.21507812 8.03515625 8.06640625 C8.02355469 8.70449219 8.01195313 9.34257813 8 10 C7.34 10 6.68 10 6 10 C5.67 7.36 5.34 4.72 5 2 C4.34 2 3.68 2 3 2 C2.67 4.64 2.34 7.28 2 10 C1.34 10 0.68 10 0 10 C0 6.7 0 3.4 0 0 Z " fill="#2F3334" transform="translate(113,31)"/>
<path d="M0 0 C0.99 0 1.98 0 3 0 C3 4.62 3 9.24 3 14 C2.34 14 1.68 14 1 14 C0.67 11.03 0.34 8.06 0 5 C-0.66 5.66 -1.32 6.32 -2 7 C-2 3.89448334 -1.4606285 2.64738916 0 0 Z " fill="#303435" transform="translate(150,27)"/>
<path d="M0 0 C0.66 0 1.32 0 2 0 C2 0.99 2 1.98 2 3 C2.66 3.33 3.32 3.66 4 4 C3.34 4 2.68 4 2 4 C2 6.31 2 8.62 2 11 C2.66 11 3.32 11 4 11 C4 11.66 4 12.32 4 13 C2.68 13 1.36 13 0 13 C0 10.03 0 7.06 0 4 C-0.66 3.67 -1.32 3.34 -2 3 C-1.34 3 -0.68 3 0 3 C0 2.01 0 1.02 0 0 Z " fill="#373B3C" transform="translate(181,28)"/>
<path d="M0 0 C2.0625 0.4375 2.0625 0.4375 4 1 C4 2.65 4 4.3 4 6 C2.35 6.33 0.7 6.66 -1 7 C-1.04254356 5.00045254 -1.04080783 2.99958364 -1 1 C-0.67 0.67 -0.34 0.34 0 0 Z " fill="#E6E6E6" transform="translate(191,32)"/>
<path d="M0 0 C0.99 0.33 1.98 0.66 3 1 C3 2.98 3 4.96 3 7 C1.68 7 0.36 7 -1 7 C-1.625 4.625 -1.625 4.625 -2 2 C-1.34 1.34 -0.68 0.68 0 0 Z " fill="#DBDCDC" transform="translate(128,32)"/>
<path d="M0 0 C0.99 0.33 1.98 0.66 3 1 C3 2.98 3 4.96 3 7 C1.68 7 0.36 7 -1 7 C-1.625 4.625 -1.625 4.625 -2 2 C-1.34 1.34 -0.68 0.68 0 0 Z " fill="#E7E8E8" transform="translate(73,32)"/>
<path d="M0 0 C0.66 0 1.32 0 2 0 C2 0.99 2 1.98 2 3 C2.66 3.33 3.32 3.66 4 4 C3.34 4 2.68 4 2 4 C2.48484276 8.64586892 2.48484276 8.64586892 4 13 C2.68 12.67 1.36 12.34 0 12 C-0.19573608 10.56359829 -0.38127816 9.12580496 -0.5625 7.6875 C-0.66691406 6.88699219 -0.77132812 6.08648437 -0.87890625 5.26171875 C-1 3 -1 3 0 0 Z " fill="#24292A" transform="translate(94,28)"/>
<path d="M0 0 C1.98 0 3.96 0 6 0 C6 0.66 6 1.32 6 2 C5.01 2.33 4.02 2.66 3 3 C2.67 5.31 2.34 7.62 2 10 C1.34 10 0.68 10 0 10 C0 6.7 0 3.4 0 0 Z " fill="#45494A" transform="translate(61,31)"/>
<path d="M0 0 C0.33 0 0.66 0 1 0 C1 4.62 1 9.24 1 14 C-0.98 14 -2.96 14 -5 14 C-4.01 13.34 -3.02 12.68 -2 12 C-1.19663887 9.12240932 -1.19663887 9.12240932 -0.8125 5.875 C-0.65394531 4.77929688 -0.49539062 3.68359375 -0.33203125 2.5546875 C-0.22246094 1.71164063 -0.11289063 0.86859375 0 0 Z " fill="#202526" transform="translate(132,27)"/>
<path d="M0 0 C1.98 0 3.96 0 6 0 C6 0.66 6 1.32 6 2 C4.68 2 3.36 2 2 2 C2 4.64 2 7.28 2 10 C1.34 10 0.68 10 0 10 C0 6.7 0 3.4 0 0 Z " fill="#272B2C" transform="translate(200,31)"/>
<path d="M0 0 C1.98 0.495 1.98 0.495 4 1 C4 1.99 4 2.98 4 4 C4.66 4.33 5.32 4.66 6 5 C3.69 5 1.38 5 -1 5 C-0.67 3.35 -0.34 1.7 0 0 Z " fill="#959797" transform="translate(159,32)"/>
<path d="M0 0 C0.99 0.33 1.98 0.66 3 1 C1.515 2.485 1.515 2.485 0 4 C0.99 4.99 1.98 5.98 3 7 C-0.68754757 6.50168276 -2.60490662 5.89932357 -5 3 C-2.6875 1.4375 -2.6875 1.4375 0 0 Z " fill="#78C5D3" transform="translate(36,30)"/>
<path d="M0 0 C1.60725635 3.21451269 1.05748185 6.43612536 1 10 C0.34 10 -0.32 10 -1 10 C-1.103125 8.88625 -1.20625 7.7725 -1.3125 6.625 C-1.539375 5.42875 -1.76625 4.2325 -2 3 C-2.99 2.34 -3.98 1.68 -5 1 C-2 0 -2 0 0 0 Z " fill="#4D5151" transform="translate(176,31)"/>
<path d="M0 0 C3 0.125 3 0.125 4 1.125 C4.04080783 3.12458364 4.04254356 5.12545254 4 7.125 C3.67 7.125 3.34 7.125 3 7.125 C2.67 5.475 2.34 3.825 2 2.125 C0.68 2.455 -0.64 2.785 -2 3.125 C-2.33 4.775 -2.66 6.425 -3 8.125 C-3.33 8.125 -3.66 8.125 -4 8.125 C-4.04241723 5.79205225 -4.04092937 3.45797433 -4 1.125 C-3 0.125 -3 0.125 0 0 Z " fill="#282D2E" transform="translate(192,30.875)"/>
<path d="M0 0 C1.99954746 -0.04254356 4.00041636 -0.04080783 6 0 C7 1 7 1 7.0625 4.5625 C7.041875 5.696875 7.02125 6.83125 7 8 C6.67 8 6.34 8 6 8 C5.34 6.02 4.68 4.04 4 2 C2.68 2.33 1.36 2.66 0 3 C0 2.01 0 1.02 0 0 Z " fill="#323637" transform="translate(71,31)"/>
</svg>
