<svg width="18" height="19" viewBox="0 0 18 19" fill="none" xmlns="http://www.w3.org/2000/svg">
<path d="M11.25 17.4247V12.9247C11.25 12.7258 11.171 12.535 11.0303 12.3943C10.8897 12.2537 10.6989 12.1747 10.5 12.1747H7.5C7.30109 12.1747 7.11032 12.2537 6.96967 12.3943C6.82902 12.535 6.75 12.7258 6.75 12.9247V17.4247C6.75 17.6236 6.67098 17.8143 6.53033 17.955C6.38968 18.0957 6.19891 18.1747 6 18.1747H1.5C1.30109 18.1747 1.11032 18.0957 0.96967 17.955C0.829018 17.8143 0.75 17.6236 0.75 17.4247V8.75654C0.75001 8.65203 0.771866 8.54867 0.814165 8.45309C0.856463 8.35751 0.918272 8.27183 0.995625 8.20155L8.49563 1.11967C8.63372 0.993976 8.81374 0.924316 9.00047 0.924316C9.1872 0.924316 9.36722 0.993976 9.50531 1.11967L17.0053 8.20155C17.0827 8.27183 17.1445 8.35751 17.1868 8.45309C17.2291 8.54867 17.2509 8.65203 17.2509 8.75654V17.4247C17.2509 17.6236 17.1719 17.8143 17.0313 17.955C16.8906 18.0957 16.6998 18.1747 16.5009 18.1747H12C11.8011 18.1747 11.6103 18.0957 11.4697 17.955C11.329 17.8143 11.25 17.6236 11.25 17.4247Z" stroke="#005CB7" stroke-width="1.5" stroke-linecap="round" stroke-linejoin="round"/>
</svg>
