<?xml version="1.0" encoding="UTF-8"?>
<!DOCTYPE svg PUBLIC "-//W3C//DTD SVG 1.1//EN" "http://www.w3.org/Graphics/SVG/1.1/DTD/svg11.dtd">
<!-- Creator: CorelDRAW X7 -->
<svg xmlns="http://www.w3.org/2000/svg" xml:space="preserve" width="3in" height="2.92857in" version="1.1" style="shape-rendering:geometricPrecision; text-rendering:geometricPrecision; image-rendering:optimizeQuality; fill-rule:evenodd; clip-rule:evenodd"
viewBox="0 0 3000 2929"
 xmlns:xlink="http://www.w3.org/1999/xlink">
 <defs>
  <style type="text/css">
   <![CDATA[
    .fil2 {fill:none}
    .fil1 {fill:#FEFEFE}
    .fil0 {fill:#009846}
    .fil3 {fill:#FEFEFE;fill-rule:nonzero}
    .fil4 {fill:#2B2A29;fill-rule:nonzero}
    .fil5 {fill:#009846;fill-rule:nonzero}
   ]]>
  </style>
    <clipPath id="id0">
     <path d="M0 2048l3000 0 0 881 -3000 0 0 -881z"/>
    </clipPath>
    <clipPath id="id1">
     <path d="M1500 69c751,0 1360,609 1360,1360 0,751 -609,1359 -1360,1359 -751,0 -1360,-608 -1360,-1359 0,-751 609,-1360 1360,-1360z"/>
    </clipPath>
 </defs>
 <g id="Layer_x0020_1">
  <metadata id="CorelCorpID_0Corel-Layer"/>
  <g id="_2638955479024">
   <g style="clip-path:url(#id0)">
    <image x="0" y="2048" width="3000" height="881" xlink:href="BORTTAR (DADDY MARIA) LETTER HEAD_Images\BORTTAR (DADDY MARIA) LETTER HEAD_ImgID1.png"/>
   </g>
   <circle class="fil0" cx="1500" cy="1429" r="1429"/>
   <path class="fil1" d="M1500 69c751,0 1360,609 1360,1360 0,751 -609,1359 -1360,1359 -751,0 -1360,-608 -1360,-1359 0,-751 609,-1360 1360,-1360z"/>
   <g style="clip-path:url(#id1)">
    <g>
     <path id="1" class="fil0" d="M981 1092l-43 -81 -41 -8 3 36 -35 5 -30 -46 -53 76 10 48 47 -41 37 0c0,0 35,3 105,11z"/>
     <polygon class="fil0" points="1164,1183 1126,1094 1158,1044 1141,1022 1107,1053 1114,1198 "/>
     <polygon class="fil0" points="1271,1094 1265,1039 1235,1044 1239,1099 "/>
     <polygon class="fil0" points="1109,2015 1057,2212 980,2152 1002,2063 1079,1994 "/>
     <polygon class="fil0" points="596,1190 560,1174 583,1133 "/>
     <polygon class="fil0" points="427,855 421,912 338,912 363,855 309,788 350,740 374,807 "/>
     <polygon class="fil0" points="2810,705 2644,725 2650,794 2551,944 2532,807 2586,725 2397,746 2284,814 2270,870 2349,849 2355,978 2301,985 2284,1048 2177,1130 2193,1185 2124,1239 2100,1144 2052,1172 2064,1363 1862,1500 1916,1590 1827,1650 1791,1569 1773,1576 1791,1665 1862,1719 1838,1747 1791,1733 1803,1774 1844,1780 1868,1863 1975,1911 1981,1952 1857,1926 1684,1707 1755,1713 1654,1459 1654,1389 1626,1389 1613,1452 1513,1541 1513,1624 1436,1650 1387,1494 1354,1480 1359,1389 1073,1328 1120,1417 1169,1398 1222,1459 1169,1535 1043,1590 914,1300 878,1300 873,1357 960,1561 1027,1618 1128,1609 944,1917 966,1945 974,2048 919,2095 914,2172 771,2371 658,2363 558,2048 588,2000 588,1917 504,1802 540,1774 457,1713 291,1707 196,1609 190,1398 404,1185 523,1172 552,1211 545,1246 641,1281 688,1233 724,1268 853,1274 878,1246 878,1163 825,1246 754,1137 765,1246 699,1191 688,1109 609,1003 594,1020 658,1122 617,1191 600,1109 528,1048 487,1090 463,1074 327,1220 279,1067 374,1074 391,1027 356,985 416,931 451,924 517,855 499,800 534,781 558,822 677,814 683,774 812,718 790,685 707,718 683,657 742,603 707,562 630,677 658,705 653,774 576,800 558,746 475,759 481,677 617,466 765,424 991,485 950,555 861,546 919,616 1092,485 1205,485 1128,384 1216,279 1340,218 1359,266 1241,314 1175,396 1310,492 1288,444 1370,361 1519,403 1541,349 1809,232 1993,279 1857,368 2278,418 2349,335 2383,410 2586,431 2644,466 2810,444 "/>
     <polygon class="fil0" points="2047,1761 1998,1870 1910,1843 1916,1761 1993,1672 "/>
     <polygon class="fil0" points="2135,1780 2088,1876 2047,1870 2088,1761 "/>
     <polygon class="fil0" points="2804,2515 2716,2639 2675,2632 2664,2563 2771,2426 2727,2350 2752,2308 2793,2378 "/>
     <polygon class="fil0" points="2449,1959 2201,1898 2193,1796 2426,1863 "/>
     <polygon class="fil0" points="2383,1389 2342,1424 2306,1294 2331,1300 "/>
     <polygon class="fil0" points="2402,1083 2325,1226 2201,1300 2165,1253 2290,1172 2331,1033 "/>
     <polygon class="fil0" points="2537,994 2438,1041 2414,1007 2503,959 "/>
     <polygon class="fil1" points="1709,889 1608,1108 1525,1099 1365,962 1360,997 1164,1045 1187,950 1145,930 1145,812 1401,621 1519,710 1525,634 1561,628 "/>
     <path class="fil0" d="M2409 2186l-468 -359 -169 17 -326 279 -11 -71 -399 -96 47 193 -85 41 -64 343c475,319 1332,57 1475,-347z"/>
    </g>
   </g>
   <path class="fil2" d="M1500 69c751,0 1360,609 1360,1360 0,751 -609,1359 -1360,1359 -751,0 -1360,-608 -1360,-1359 0,-751 609,-1360 1360,-1360z"/>
   <g>
    <path class="fil3" d="M491 1123l123 84 0 0 -1 3 -2 2 -2 2 -1 3 -2 2 -1 3 -2 2 -1 3 -2 2 -1 3 -1 2 -2 3 -1 2 -1 3 -2 2 -1 3 -1 2 -2 3 -1 2 -1 3 -1 2 -1 3 -2 3 -1 2 -1 3 -1 2 -1 3 -1 3 -1 2 -1 3 -1 3 -1 2 -141 -49 2 -4 1 -4 2 -4 1 -3 2 -4 1 -4 2 -4 1 -3 2 -4 1 -4 2 -4 2 -3 2 -4 1 -4 2 -3 2 -4 2 -3 2 -4 2 -4 1 -3 2 -4 2 -3 2 -4 3 -3 2 -4 2 -3 2 -4 2 -3 2 -4 3 -3 2 -3 2 -4 0 0zm83 -97l102 108 0 0 -2 2 -2 2 -2 3 -2 2 -2 2 -2 2 -3 2 -2 2 -2 2 -2 3 -2 2 -2 2 -2 2 -2 2 -2 3 -2 2 -2 2 -1 3 -2 2 -2 2 -2 3 -2 2 -2 2 -2 3 -1 2 -2 2 -2 3 -2 2 -2 3 -1 2 -2 3 -2 2 -123 -84 2 -3 3 -3 2 -4 2 -3 3 -3 2 -3 2 -4 3 -3 2 -3 3 -3 2 -3 3 -3 2 -3 3 -4 2 -3 3 -3 2 -3 3 -3 3 -3 2 -3 3 -3 3 -3 2 -2 3 -3 3 -3 3 -3 3 -3 2 -3 3 -3 3 -2 3 -3 3 -3 0 0zm97 -78l84 124 0 0 -3 1 -3 2 -2 2 -3 2 -2 2 -3 1 -3 2 -2 2 -3 2 -2 2 -3 2 -2 2 -3 2 -2 2 -3 1 -2 2 -2 2 -3 2 -2 2 -3 2 -2 2 -2 2 -3 2 -2 2 -2 2 -3 3 -2 2 -2 2 -3 2 -2 2 -2 2 -3 2 -102 -108 3 -3 2 -2 3 -3 3 -3 3 -2 3 -3 3 -2 3 -3 3 -3 3 -2 3 -3 3 -2 3 -3 3 -2 3 -3 3 -2 3 -2 3 -3 3 -2 3 -3 3 -2 3 -2 4 -3 3 -2 3 -2 3 -3 3 -2 3 -2 4 -2 3 -3 3 -2 3 -2 0 0zm0 0c35,-23 81,-14 104,20 23,34 14,81 -20,104l-84 -124zm106 -62l62 136 2 -1 -3 1 -2 2 -3 1 -3 2 -2 1 -3 1 -3 2 -2 1 -3 2 -3 1 -3 2 -2 1 -3 2 -3 1 -2 2 -3 1 -3 2 -3 2 -2 1 -3 2 -3 2 -2 1 -3 2 -3 2 -2 1 -3 2 -3 2 -3 2 -2 1 -3 2 -3 2 -2 2 -84 -124 4 -2 3 -2 3 -2 3 -3 3 -2 3 -2 4 -2 3 -2 3 -2 3 -2 4 -2 3 -2 3 -2 3 -1 3 -2 4 -2 3 -2 3 -2 3 -2 3 -2 4 -1 3 -2 3 -2 3 -2 4 -2 3 -1 3 -2 3 -2 4 -1 3 -2 3 -2 4 -1 2 -2zm-2 2c36,-19 81,-4 100,33 18,37 3,82 -34,100l-66 -133zm120 -44l39 144 0 0 -3 1 -3 1 -4 1 -3 1 -3 1 -3 1 -3 1 -4 1 -3 1 -3 1 -3 1 -3 1 -3 1 -3 1 -3 1 -3 1 -3 1 -3 1 -3 1 -3 1 -3 1 -2 1 -3 1 -3 2 -3 1 -3 1 -2 1 -3 1 -3 1 -3 2 -2 1 -3 1 -62 -136 3 -1 4 -2 3 -1 4 -2 3 -1 4 -2 3 -1 4 -2 4 -1 3 -2 4 -1 3 -1 4 -2 4 -1 4 -1 3 -2 4 -1 4 -1 3 -2 4 -1 4 -1 4 -1 3 -2 4 -1 4 -1 4 -1 4 -1 4 -1 4 -1 4 -2 3 -1 4 -1 0 0zm134 -18l0 149 0 0 -3 0 -3 0 -3 1 -2 0 -3 0 -3 0 -3 0 -3 0 -3 0 -3 1 -3 0 -3 0 -3 1 -3 0 -3 0 -3 1 -3 0 -3 0 -3 1 -3 0 -3 1 -3 0 -3 1 -3 1 -3 0 -3 1 -3 1 -3 0 -3 1 -3 1 -3 1 -3 0 -39 -144 5 -1 4 -1 4 -1 4 -1 4 -1 4 -1 5 -1 4 -1 4 0 4 -1 4 -1 4 -1 5 0 4 -1 4 -1 4 0 4 -1 5 0 4 -1 4 0 4 -1 4 0 4 0 5 -1 4 0 4 0 4 0 5 0 4 -1 4 0 4 0 4 0 0 0zm136 25l-51 140 0 0 -3 -1 -2 -1 -3 -1 -3 -1 -2 -1 -3 -1 -2 0 -3 -1 -2 -1 -3 0 -3 -1 -2 -1 -3 0 -3 -1 -2 0 -3 -1 -2 0 -3 -1 -3 0 -2 0 -3 -1 -3 0 -2 0 -3 -1 -3 0 -2 0 -3 0 -3 0 -3 0 -2 -1 -3 0 -3 0 0 -149 5 0 4 0 4 0 5 1 4 0 4 0 5 0 4 1 4 0 5 1 4 0 4 1 5 0 4 1 4 1 4 0 5 1 4 1 4 1 4 1 5 1 4 1 4 1 4 1 4 1 5 1 4 2 4 1 4 1 4 2 4 1 4 2 0 0zm125 85l-112 98 1 1 -2 -2 -2 -2 -2 -2 -2 -2 -2 -1 -2 -2 -2 -2 -2 -2 -2 -1 -2 -2 -1 -2 -2 -1 -2 -2 -2 -1 -2 -2 -2 -1 -2 -1 -2 -2 -2 -1 -2 -1 -2 -1 -3 -2 -2 -1 -2 -1 -2 -1 -2 -1 -2 -1 -2 -1 -2 -1 -3 -1 -2 -1 -2 0 51 -140 5 1 4 2 5 2 4 2 4 2 4 2 5 2 4 2 4 2 4 2 4 3 4 2 4 2 4 3 4 2 4 3 4 3 4 3 4 2 3 3 4 3 4 3 3 3 4 3 3 3 4 4 3 3 4 3 3 4 4 3 3 4 3 3 1 1zm-1 -1c28,31 25,78 -5,105 -31,28 -78,26 -105,-5l110 -100zm58 102l-144 39 0 0 -1 -1 0 -1 0 -1 -1 -1 0 -1 -1 -1 0 -1 -1 -2 0 -1 -1 -1 0 -1 -1 -1 0 -2 -1 -1 -1 -1 0 -1 -1 -2 -1 -1 -1 -1 -1 -2 -1 -1 0 -2 -1 -1 -2 -1 -1 -2 -1 -1 -1 -2 -1 -1 -1 -2 -2 -1 -1 -2 -1 -2 112 -98 2 3 3 3 2 3 2 2 3 3 2 3 2 3 2 3 3 3 2 3 2 3 2 3 2 3 2 4 1 3 2 3 2 3 2 3 1 3 2 4 2 3 1 3 2 4 1 3 2 3 1 4 1 3 1 4 1 3 2 3 1 4 1 4 0 -1zm6 105l-148 -22 0 0 0 -2 0 -1 1 -2 0 -1 0 -1 0 -2 0 -1 0 -1 0 -2 0 -1 0 -1 0 -2 0 -1 0 -1 0 -2 0 -1 0 -1 0 -2 0 -1 0 -1 -1 -2 0 -1 0 -1 0 -2 0 -1 -1 -1 0 -2 0 -1 0 -2 -1 -1 0 -1 0 -2 144 -39 0 4 1 3 1 3 1 3 0 4 1 3 1 3 0 3 1 4 0 3 1 3 0 3 0 4 1 3 0 3 0 3 0 4 0 3 0 3 0 4 0 3 0 3 0 3 0 4 0 3 0 3 -1 4 0 3 0 3 -1 3 0 4 0 3 0 0zm-31 94l-133 -66 0 0 1 -2 0 -1 1 -2 1 -2 1 -1 0 -2 1 -1 1 -2 0 -1 1 -2 0 -2 1 -1 1 -2 0 -1 1 -2 0 -1 1 -2 0 -1 1 -2 0 -2 0 -1 1 -2 0 -1 1 -2 0 -1 0 -2 1 -2 0 -1 0 -2 1 -1 0 -2 0 -1 148 22 -1 3 0 3 -1 3 -1 3 0 3 -1 3 0 3 -1 3 -1 3 -1 3 0 3 -1 3 -1 3 -1 3 -1 3 -1 3 -1 3 -1 3 -1 3 -1 3 -1 3 -1 3 -1 3 -1 3 -2 3 -1 2 -1 3 -1 3 -2 3 -1 3 -1 3 -2 2 0 0zm-76 -34l-67 134 -24 -114 1 -2 1 -1 2 -2 1 -1 1 -2 1 -1 1 -2 2 -2 1 -1 1 -2 1 -1 1 -2 1 -2 1 -1 1 -2 2 -1 1 -2 1 -2 1 -1 1 -2 1 -2 1 -1 1 -2 1 -2 1 -1 0 -2 1 -2 1 -1 1 -2 1 -2 1 -2 1 -1 133 66 -1 3 -1 3 -2 2 -1 3 -2 3 -1 2 -1 3 -2 2 -1 3 -2 3 -1 2 -2 3 -2 2 -1 3 -2 2 -1 3 -2 2 -2 3 -1 2 -2 3 -2 2 -1 3 -2 2 -2 2 -2 3 -1 2 -2 3 -2 2 -2 2 -2 3 -2 2 -2 2 -24 -114zm24 114c-26,32 -73,37 -105,11 -31,-26 -36,-73 -10,-105l115 94zm77 -29l-122 85 -1 0 0 -1 -1 -1 -1 -1 -1 -2 -1 -1 -1 -1 -1 -1 -1 -1 -1 -1 -1 -1 -1 -2 -1 -1 -2 -1 -1 -1 -1 -1 -2 -1 -1 -1 -1 -2 -2 -1 -1 -1 -2 -1 -2 -1 -1 -1 -2 -1 -2 -1 -2 -2 -2 -1 -1 -1 -2 -1 -2 -1 -3 -1 -2 -1 67 -134 4 2 4 2 3 2 4 2 4 3 3 2 4 2 3 2 4 2 3 3 4 2 3 3 4 2 3 3 3 2 3 3 4 2 3 3 3 3 3 3 3 3 3 2 3 3 3 4 2 3 3 3 3 3 2 3 3 3 2 3 3 4 2 3 0 0zm0 0c24,34 15,81 -19,104 -34,23 -80,15 -104,-19l123 -85zm45 109l-147 26 0 0 0 -1 0 -2 -1 -2 0 -1 0 -2 -1 -2 0 -1 -1 -2 0 -2 -1 -1 0 -2 -1 -1 0 -2 -1 -2 -1 -1 0 -2 -1 -1 0 -2 -1 -1 -1 -2 -1 -1 0 -2 -1 -1 -1 -2 -1 -1 -1 -2 -1 -1 -1 -2 0 -1 -1 -2 -1 -1 -1 -2 122 -85 2 3 2 3 2 3 2 4 2 3 2 3 2 3 2 3 1 4 2 3 2 3 2 4 1 3 2 3 1 4 2 3 1 4 1 3 2 4 1 3 1 3 1 4 1 3 1 4 1 4 1 3 1 4 1 3 1 4 1 4 1 3 0 4 0 0zm-1 114l-146 -28 0 0 0 -2 1 -2 0 -2 0 -2 0 -1 1 -2 0 -2 0 -2 0 -2 0 -2 1 -2 0 -2 0 -2 0 -2 0 -1 0 -2 0 -2 0 -2 0 -2 0 -2 0 -2 0 -1 0 -2 -1 -2 0 -2 0 -2 0 -2 0 -1 -1 -2 0 -2 0 -2 -1 -2 147 -26 1 3 0 4 1 3 0 4 1 4 0 3 1 4 0 3 0 4 1 3 0 4 0 4 0 3 0 4 0 3 0 4 0 3 0 4 0 4 0 3 -1 4 0 3 0 4 0 4 -1 3 0 4 -1 3 0 4 -1 3 0 4 -1 4 -1 3 0 0zm-33 102l-133 -68 -1 2 1 -2 1 -2 1 -1 1 -2 0 -2 1 -2 1 -2 1 -2 0 -2 1 -1 1 -2 1 -2 0 -2 1 -2 1 -2 0 -2 1 -2 1 -2 0 -2 1 -2 0 -2 1 -2 1 -2 0 -2 1 -3 0 -2 1 -2 0 -2 1 -2 0 -2 0 -3 1 -2 146 28 0 3 -1 4 -1 3 0 3 -1 4 -1 3 -1 3 0 3 -1 4 -1 3 -1 3 -1 3 -1 3 -1 4 -1 3 -1 3 -1 3 -1 3 -1 3 -1 3 -1 4 -1 3 -2 3 -1 3 -1 3 -1 3 -2 3 -1 3 -1 3 -2 3 -1 3 -1 3 -1 1zm1 -1c-18,37 -63,52 -100,35 -37,-18 -53,-63 -35,-100l135 65zm-86 124l-111 -99 0 0 2 -2 3 -3 2 -3 2 -2 2 -3 3 -3 2 -3 2 -2 2 -3 2 -3 3 -3 2 -3 2 -3 2 -2 2 -3 2 -3 2 -3 2 -3 2 -3 1 -3 2 -3 2 -3 2 -2 2 -3 1 -3 2 -3 2 -3 2 -3 1 -3 2 -3 1 -4 2 -3 133 68 -2 5 -3 4 -2 4 -2 4 -2 4 -2 4 -3 4 -2 4 -3 4 -2 4 -2 4 -3 4 -3 4 -2 4 -3 3 -2 4 -3 4 -3 4 -2 4 -3 4 -3 3 -3 4 -3 4 -2 4 -3 3 -3 4 -3 4 -3 3 -3 4 -3 3 -3 4 -4 3 0 0zm-110 101l-88 -120 0 0 3 -2 3 -3 3 -2 3 -2 2 -3 3 -2 3 -2 3 -3 3 -2 3 -2 3 -3 3 -2 2 -2 3 -3 3 -2 3 -3 2 -2 3 -3 3 -2 2 -3 3 -2 3 -3 2 -3 3 -2 2 -3 3 -2 2 -3 3 -3 2 -2 3 -3 2 -3 3 -3 111 99 -3 4 -3 3 -3 4 -3 3 -3 4 -4 3 -3 3 -3 4 -3 3 -4 3 -3 4 -3 3 -4 3 -3 3 -4 3 -3 4 -4 3 -3 3 -4 3 -3 3 -4 3 -3 3 -4 3 -4 3 -3 3 -4 3 -4 3 -3 3 -4 3 -4 3 -4 2 -3 3 0 0zm-130 75l-61 -136 0 0 3 -1 4 -2 3 -1 3 -2 4 -1 3 -2 3 -2 4 -1 3 -2 3 -2 3 -2 4 -1 3 -2 3 -2 3 -2 4 -2 3 -1 3 -2 3 -2 3 -2 3 -2 4 -2 3 -2 3 -2 3 -2 3 -2 3 -2 3 -3 3 -2 3 -2 3 -2 4 -2 88 120 -4 3 -4 3 -4 2 -4 3 -4 3 -4 2 -4 3 -3 3 -4 2 -4 3 -4 2 -4 3 -4 2 -4 3 -4 2 -4 2 -4 3 -5 2 -4 2 -4 3 -4 2 -4 2 -4 2 -4 2 -4 2 -5 2 -4 3 -4 2 -4 2 -4 2 -5 2 -4 1 0 0zm-138 46l-30 -147 0 0 3 0 3 -1 4 -1 3 -1 3 0 4 -1 3 -1 3 -1 4 -1 3 -1 3 -1 4 -1 3 -1 3 -1 4 -1 3 -1 3 -1 4 -1 3 -1 4 -1 3 -2 3 -1 4 -1 3 -1 3 -2 4 -1 3 -1 4 -2 3 -1 3 -2 4 -1 3 -2 61 136 -4 2 -4 2 -5 2 -4 2 -4 2 -5 1 -4 2 -4 2 -4 1 -5 2 -4 2 -4 1 -5 2 -4 1 -4 2 -5 1 -4 1 -4 2 -5 1 -4 1 -4 2 -5 1 -4 1 -4 1 -5 1 -4 2 -5 1 -4 1 -4 1 -5 1 -4 1 -4 1 0 0zm0 0c-41,8 -80,-18 -89,-59 -8,-40 18,-79 59,-88l30 147zm-118 9l7 -149 0 0 2 0 3 0 2 0 3 0 3 0 2 0 3 0 3 0 2 0 3 0 2 0 3 0 2 -1 3 0 3 0 2 0 3 0 2 0 3 -1 2 0 3 0 2 -1 3 0 2 0 2 -1 3 0 2 0 3 -1 2 0 3 -1 2 0 3 -1 30 147 -4 0 -4 1 -3 1 -4 0 -3 1 -4 0 -4 1 -3 1 -4 0 -3 0 -4 1 -4 0 -3 1 -4 0 -4 0 -3 1 -4 0 -4 0 -3 0 -4 1 -4 0 -3 0 -4 0 -4 0 -4 0 -3 0 -4 0 -4 0 -3 0 -4 0 -4 0 -4 0 0 0zm-120 -25l54 -139 0 0 2 1 2 1 2 0 3 1 2 1 2 1 2 0 2 1 2 0 2 1 3 1 2 0 2 1 2 0 2 1 3 0 2 1 2 0 2 0 3 1 2 0 2 1 3 0 2 0 2 0 3 1 2 0 3 0 2 0 3 0 2 1 3 0 -7 149 -4 0 -3 -1 -4 0 -4 0 -4 -1 -4 0 -4 0 -4 -1 -4 0 -3 -1 -4 0 -4 -1 -4 -1 -4 0 -3 -1 -4 -1 -4 0 -4 -1 -3 -1 -4 -1 -4 -1 -4 -1 -3 -1 -4 -1 -4 -1 -3 -1 -4 -2 -4 -1 -3 -1 -4 -1 -3 -2 -4 -1 0 0zm-105 -67l104 -108 0 0 1 2 2 1 1 2 2 1 2 2 1 1 2 1 1 2 2 1 2 1 1 1 2 2 2 1 1 1 2 1 2 1 2 1 1 1 2 1 2 1 2 1 1 1 2 1 2 1 2 1 2 1 2 1 2 1 1 1 2 0 2 1 2 1 -54 139 -4 -1 -3 -2 -4 -1 -3 -2 -4 -2 -3 -1 -4 -2 -4 -2 -3 -2 -3 -1 -4 -2 -3 -2 -4 -2 -3 -2 -3 -2 -4 -2 -3 -2 -3 -3 -3 -2 -4 -2 -3 -2 -3 -3 -3 -2 -3 -2 -3 -3 -3 -2 -3 -3 -3 -2 -3 -3 -3 -3 -3 -2 -3 -3 0 0zm0 0c-29,-28 -30,-76 -2,-105 29,-30 76,-31 106,-3l-104 108zm-70 -118l143 -43 0 0 1 2 0 3 1 2 1 2 0 2 1 2 1 2 1 2 1 2 1 2 0 1 1 2 1 2 1 2 1 1 1 2 1 2 1 1 1 2 1 1 1 2 1 1 1 2 1 1 1 1 1 2 2 1 1 1 1 2 1 1 1 1 2 1 -104 108 -3 -3 -3 -3 -3 -3 -3 -3 -3 -4 -2 -3 -3 -3 -3 -4 -3 -3 -2 -4 -3 -3 -2 -4 -3 -3 -2 -4 -2 -3 -2 -4 -3 -4 -2 -4 -2 -4 -2 -3 -2 -4 -2 -4 -1 -4 -2 -4 -2 -4 -1 -4 -2 -4 -2 -4 -1 -5 -1 -4 -2 -4 -1 -4 0 0zm0 0c-12,-40 11,-81 50,-93 40,-12 81,11 93,50l-143 43zm-4 -188l144 37 0 0 -1 4 0 3 -1 4 -1 3 0 4 -1 3 -1 3 0 4 0 3 -1 3 0 4 0 3 0 3 0 4 0 3 0 3 0 4 0 3 0 3 1 3 0 4 0 3 1 3 0 4 1 3 1 3 0 4 1 3 1 3 1 4 1 3 1 4 -143 43 -2 -5 -1 -6 -2 -6 -1 -6 -1 -5 -2 -6 -1 -6 -1 -6 -1 -6 -1 -6 0 -6 -1 -6 0 -5 -1 -6 0 -6 0 -6 0 -6 0 -6 0 -6 0 -6 0 -6 1 -6 0 -6 1 -6 1 -5 1 -6 0 -6 1 -6 2 -6 1 -6 1 -6 2 -6 0 0zm68 -164l129 76 0 0 -3 4 -2 4 -2 4 -2 3 -2 4 -2 4 -2 4 -2 4 -2 4 -2 4 -2 4 -2 4 -2 3 -1 4 -2 4 -2 4 -1 4 -2 4 -1 4 -2 4 -1 4 -2 4 -1 4 -1 4 -2 3 -1 4 -1 4 -1 4 -2 4 -1 4 -1 4 -1 4 -144 -37 1 -5 1 -5 2 -5 1 -6 2 -5 2 -5 1 -6 2 -5 2 -5 2 -5 2 -5 1 -6 2 -5 2 -5 3 -5 2 -5 2 -5 2 -6 2 -5 3 -5 2 -5 2 -5 3 -5 2 -5 3 -5 3 -5 2 -5 3 -5 3 -5 2 -5 3 -5 3 -5 0 0zm104 -144l112 98 0 0 -3 4 -3 3 -3 4 -3 4 -3 3 -3 4 -3 4 -3 3 -3 4 -3 4 -3 3 -2 4 -3 4 -3 4 -3 3 -2 4 -3 4 -3 4 -3 4 -2 4 -3 4 -3 3 -2 4 -3 4 -2 4 -3 4 -2 4 -3 4 -2 4 -3 4 -2 4 -2 4 -129 -76 3 -5 3 -4 3 -5 3 -5 2 -4 3 -5 3 -5 3 -4 3 -5 4 -5 3 -4 3 -5 3 -4 3 -5 3 -4 3 -5 4 -4 3 -5 3 -4 4 -5 3 -4 3 -4 4 -5 3 -4 4 -5 3 -4 4 -4 3 -5 4 -4 3 -4 4 -4 4 -5 0 0zm0 0c27,-31 74,-34 105,-7 31,27 34,74 7,105l-112 -98zm105 -112l106 105 -1 1 -3 3 -3 2 -3 3 -3 3 -2 3 -3 3 -3 3 -3 3 -3 3 -3 3 -3 3 -3 3 -3 3 -3 3 -3 3 -3 4 -3 3 -3 3 -3 4 -3 3 -3 3 -4 4 -3 3 -3 4 -3 3 -3 4 -3 4 -4 3 -3 4 -3 4 -3 3 -4 4 -112 -98 3 -4 4 -4 3 -4 3 -3 4 -4 3 -4 4 -4 3 -4 4 -4 3 -3 3 -4 4 -4 3 -3 3 -4 4 -4 3 -3 3 -4 4 -3 3 -4 3 -3 3 -4 4 -3 3 -3 3 -4 4 -3 3 -3 3 -3 3 -4 3 -3 4 -3 3 -3 3 -3 -1 1zm1 -1c29,-29 77,-28 105,1 29,30 28,77 -1,106l-104 -107zm87 -41l10 149 0 0 0 0 1 0 0 0 1 0 0 0 1 0 0 0 1 -1 0 0 1 0 0 0 0 0 1 0 0 -1 1 0 0 0 0 0 0 0 1 0 0 0 0 0 0 -1 0 0 0 0 0 0 0 0 0 0 0 0 0 1 0 0 0 0 0 0 -106 -105 2 -2 2 -3 3 -2 2 -1 2 -2 2 -2 3 -2 2 -2 3 -2 2 -1 3 -2 2 -2 3 -1 3 -2 2 -1 3 -2 3 -1 3 -1 3 -2 3 -1 3 -1 3 -1 3 -1 3 -1 3 0 3 -1 3 -1 3 0 4 -1 3 0 3 -1 3 0 0 0zm85 22l-83 124 0 1 0 0 1 0 0 0 0 0 1 0 0 0 0 1 0 0 1 0 0 0 0 0 1 0 0 0 0 0 1 1 0 0 0 0 1 0 0 0 0 0 0 0 1 0 0 0 0 0 0 0 1 0 0 0 0 0 0 0 0 0 0 0 0 0 -10 -149 3 0 2 0 3 0 3 0 3 0 2 0 3 0 3 0 3 1 2 0 3 0 3 1 3 0 2 1 3 0 3 1 3 1 2 1 3 0 3 1 2 1 3 1 3 1 2 2 3 1 2 1 3 1 2 2 3 1 2 1 3 2 2 1 0 0zm53 71l-141 47 0 0 0 0 0 0 0 0 0 0 0 0 0 0 0 1 0 0 0 0 0 0 0 0 0 1 0 0 1 0 0 0 0 1 0 0 0 0 1 0 0 1 0 0 0 0 1 1 0 0 0 0 1 0 0 0 0 1 0 0 1 0 0 0 0 0 83 -124 2 2 3 2 2 1 2 2 2 2 2 2 3 2 2 2 2 2 2 2 2 2 2 2 2 2 1 2 2 3 2 2 2 2 1 3 2 2 1 2 2 3 1 2 2 3 1 2 1 3 1 2 1 2 1 3 1 2 1 3 1 3 1 2 0 0zm-100 3l53 140 -97 -95 1 0 0 -1 0 -1 0 0 0 -1 0 0 0 -1 1 0 0 -1 0 0 0 0 0 0 0 0 0 -1 0 0 0 0 0 0 0 1 0 0 0 0 0 0 0 0 0 1 0 0 0 0 0 1 0 0 0 1 0 0 0 0 1 1 0 0 141 -47 1 3 1 3 1 4 1 3 0 3 1 3 1 3 0 4 0 3 1 3 0 3 0 3 0 4 0 3 0 3 0 3 0 3 -1 3 0 3 0 3 -1 3 0 3 -1 3 -1 3 0 3 -1 3 -1 3 0 2 -1 3 -1 3 -1 3 -1 3 -97 -95zm97 95c-14,38 -56,59 -95,45 -39,-13 -59,-56 -46,-95l141 50zm-16 -141l95 115 0 0 -4 3 -3 3 -4 3 -3 2 -4 3 -3 3 -4 2 -4 3 -3 2 -4 3 -4 2 -3 2 -4 3 -4 2 -4 2 -4 3 -4 2 -3 2 -4 2 -4 2 -4 2 -4 2 -4 2 -4 2 -4 2 -4 2 -4 1 -5 2 -4 2 -4 2 -4 1 -4 2 -53 -140 3 -1 3 -1 3 -1 3 -1 2 -1 3 -2 3 -1 2 -1 3 -1 3 -2 2 -1 3 -1 3 -2 2 -1 3 -1 2 -2 3 -1 2 -2 3 -1 2 -2 3 -1 2 -2 2 -2 3 -1 2 -2 3 -2 2 -1 2 -2 3 -2 2 -1 2 -2 2 -2 0 0zm58 -55l118 91 -1 2 -2 2 -2 3 -2 2 -2 2 -2 3 -2 2 -2 3 -3 2 -2 2 -2 3 -2 2 -3 3 -2 2 -3 2 -2 3 -3 2 -2 3 -3 2 -2 2 -3 3 -3 2 -2 3 -3 2 -3 3 -3 2 -2 2 -3 3 -3 2 -3 3 -3 2 -3 3 -3 2 -95 -115 3 -2 3 -2 2 -2 3 -3 2 -2 2 -2 3 -2 2 -2 2 -1 2 -2 2 -2 2 -2 2 -2 2 -2 2 -2 2 -1 2 -2 2 -2 1 -2 2 -1 2 -2 1 -2 2 -1 1 -2 2 -1 1 -2 1 -1 2 -2 1 -1 1 -1 1 -2 1 -1 -1 1zm1 -1c26,-32 73,-37 105,-11 32,26 37,73 11,105l-116 -94zm-3 24l148 -16 0 0 0 3 0 4 1 4 -1 3 0 4 0 3 0 3 -1 3 -1 4 0 3 -1 3 -1 2 -1 3 -1 3 -1 3 -1 2 -1 3 -1 2 -1 3 -1 2 -1 2 -1 2 -2 3 -1 2 -1 2 -2 2 -1 2 -1 2 -2 2 -1 2 -1 2 -2 1 -118 -91 0 0 1 0 0 -1 0 0 0 0 0 0 0 0 0 -1 0 1 0 0 0 0 0 0 0 0 0 1 0 0 -1 1 0 0 0 1 -1 1 0 1 0 1 0 1 -1 1 0 2 0 1 0 2 0 2 -1 1 0 2 0 2 0 2 1 2 0 0zm26 40l64 -135 0 0 2 1 2 1 3 2 2 1 2 1 3 2 2 1 3 2 2 2 2 2 2 2 3 2 2 2 2 2 2 3 3 2 2 3 2 3 2 3 2 2 1 3 2 4 2 3 1 3 1 3 1 4 2 3 1 3 0 4 1 3 0 3 1 4 -148 16 0 2 0 2 1 2 0 1 1 2 0 2 1 2 1 2 0 2 1 2 1 1 1 2 1 2 1 1 1 2 2 1 1 1 1 1 1 2 1 1 1 1 1 1 1 0 1 1 1 1 1 0 0 1 1 0 1 1 1 0 0 0 1 1 0 0zm0 0c-38,-18 -53,-63 -36,-100 18,-37 62,-53 100,-35l-64 135zm-14 -3l14 -148 0 0 2 0 2 0 2 0 2 1 2 0 2 0 2 0 2 1 2 0 2 0 2 1 2 0 2 1 2 0 2 0 2 1 2 0 2 1 2 0 2 1 2 1 2 0 2 1 2 0 2 1 2 1 2 1 2 0 2 1 2 1 2 1 2 1 -64 135 0 0 0 0 0 0 0 0 0 0 0 0 0 0 0 0 -1 0 0 0 0 -1 0 0 0 0 -1 0 0 0 -1 0 0 0 -1 0 0 0 0 0 -1 0 -1 -1 0 0 -1 0 -1 0 0 0 -1 0 -1 0 -1 0 -1 0 -1 -1 -1 0 0 0zm-39 1l-15 -148 0 0 3 -1 2 0 2 0 2 0 2 0 2 0 3 -1 2 0 2 0 2 0 2 0 2 0 2 0 2 0 3 0 2 0 2 0 2 0 2 0 2 0 2 0 2 0 2 0 2 0 2 0 2 0 2 0 3 0 1 0 2 1 3 0 2 0 -14 148 -1 0 -1 0 -1 0 -1 0 -1 0 -1 0 -1 0 -1 0 -1 0 -1 0 -1 0 -1 0 -2 0 -1 0 -1 0 -1 0 -2 0 -1 0 -1 0 -2 0 -1 0 -1 0 -1 0 -2 0 -1 0 -2 0 -1 0 -1 1 -2 0 -1 0 -2 0 -1 0 0 0zm0 0c-41,4 -78,-26 -82,-67 -4,-41 26,-77 67,-81l15 148zm-67 14l-47 -141 0 0 3 -1 3 -1 3 -1 4 -1 3 -1 3 -1 3 -1 3 -1 3 -1 3 0 3 -1 3 -1 3 -1 3 0 3 -1 3 -1 3 0 3 -1 4 0 3 -1 3 -1 3 0 3 -1 3 0 3 -1 3 0 3 -1 4 0 3 0 3 -1 3 0 3 0 15 148 -2 0 -2 0 -2 1 -3 0 -2 0 -2 1 -2 0 -2 0 -2 1 -2 0 -2 0 -2 1 -2 0 -3 0 -2 1 -2 0 -2 1 -2 0 -2 1 -2 0 -2 1 -2 0 -2 1 -3 0 -2 1 -2 0 -2 1 -2 1 -2 0 -2 1 -2 1 -2 0 0 0zm-68 28l-65 -134 -1 0 3 -1 2 -1 3 -2 2 -1 3 -1 3 -1 2 -2 3 -1 3 -1 2 -1 3 -1 3 -1 3 -2 2 -1 3 -1 3 -1 2 -1 3 -1 3 -1 3 -1 2 -1 3 -2 3 -1 3 -1 3 -1 2 -1 3 -1 3 -1 3 -1 3 -1 3 -1 2 0 47 141 -2 1 -3 1 -2 1 -2 0 -2 1 -2 1 -3 1 -2 0 -2 1 -2 1 -2 1 -2 1 -3 0 -2 1 -2 1 -2 1 -2 1 -2 1 -2 1 -2 1 -2 0 -2 1 -2 1 -2 1 -2 1 -2 1 -2 1 -2 1 -2 1 -2 1 -2 1 -2 1 -1 0zm1 0c-37,18 -82,3 -100,-34 -19,-36 -4,-81 33,-100l67 134zm-106 66l-92 -117 0 0 4 -3 4 -3 4 -3 4 -3 4 -3 4 -3 4 -3 4 -3 4 -3 4 -3 4 -2 4 -3 5 -3 4 -2 4 -3 4 -3 4 -2 4 -3 4 -2 4 -3 4 -2 5 -3 4 -2 4 -2 4 -3 4 -2 4 -2 5 -2 4 -3 4 -2 4 -2 5 -2 65 134 -3 2 -4 1 -3 2 -3 2 -3 1 -4 2 -3 2 -3 2 -4 2 -3 2 -3 2 -3 1 -4 2 -3 2 -3 2 -4 2 -3 3 -3 2 -3 2 -4 2 -3 2 -3 2 -4 3 -3 2 -3 2 -3 3 -4 2 -3 2 -3 3 -3 2 -4 3 -3 2 0 0zm0 0c-32,26 -79,20 -105,-13 -25,-32 -19,-79 13,-104l92 117zm-71 83l-129 -74 -1 1 2 -5 3 -4 3 -5 2 -4 3 -5 3 -4 3 -4 3 -5 3 -4 3 -4 3 -4 3 -5 3 -4 4 -4 3 -4 3 -4 4 -4 3 -4 4 -3 4 -4 3 -4 4 -4 4 -4 4 -3 4 -4 4 -4 4 -3 4 -4 4 -3 4 -4 4 -3 4 -3 92 117 -3 3 -3 2 -2 2 -3 3 -3 2 -3 2 -2 3 -3 2 -2 3 -3 2 -2 2 -3 3 -2 2 -2 3 -2 2 -3 3 -2 2 -2 3 -2 2 -2 3 -2 3 -2 2 -2 3 -2 3 -2 2 -1 3 -2 3 -2 2 -2 3 -1 3 -2 3 -1 2 -1 2zm1 -2c-20,37 -65,50 -102,30 -36,-20 -49,-65 -29,-101l131 71zm-83 73l-48 -141 0 0 -1 0 0 0 -1 0 0 1 0 0 0 0 -1 0 0 0 0 0 0 0 -1 1 0 0 0 0 0 0 0 0 0 0 0 0 0 0 0 0 1 -1 0 0 0 0 0 0 0 -1 1 0 0 -1 0 0 1 -1 0 0 1 -1 0 -1 1 0 129 74 -2 2 -1 3 -2 3 -2 3 -2 3 -2 2 -2 3 -2 3 -2 2 -2 3 -2 3 -2 2 -3 3 -2 2 -3 2 -2 3 -3 2 -2 2 -3 3 -3 2 -3 2 -3 2 -3 2 -3 2 -3 2 -3 1 -3 2 -3 2 -4 1 -3 2 -4 1 -3 1 0 0zm-98 -2l59 -137 0 0 -1 0 0 0 -1 -1 0 0 -1 0 -1 0 0 0 -1 0 0 -1 -1 0 0 0 -1 0 0 0 -1 0 0 0 -1 0 0 0 0 0 -1 0 0 0 0 0 0 0 0 0 0 0 0 0 0 0 0 0 0 0 0 0 0 0 0 0 1 0 48 141 -3 1 -3 1 -2 1 -3 0 -3 1 -3 1 -3 1 -3 0 -3 1 -3 0 -3 0 -3 1 -3 0 -3 0 -3 0 -4 0 -3 0 -3 0 -3 0 -3 0 -3 -1 -4 0 -3 -1 -3 0 -3 -1 -3 -1 -4 -1 -3 0 -3 -1 -3 -2 -3 -1 -3 -1 0 0zm0 0c-38,-16 -55,-60 -39,-98 16,-38 60,-55 98,-39l-59 137zm-69 -73l139 -54 0 0 0 0 0 0 0 0 0 0 0 0 0 -1 0 0 0 0 0 0 -1 -1 0 0 0 0 0 -1 -1 0 0 0 0 -1 -1 0 0 -1 -1 0 0 -1 -1 0 0 -1 -1 0 -1 0 0 -1 -1 0 0 -1 -1 0 0 0 -1 -1 -1 0 0 0 -59 137 -3 -1 -3 -2 -3 -1 -3 -2 -2 -1 -3 -2 -3 -2 -3 -2 -3 -2 -2 -2 -3 -2 -2 -2 -3 -2 -2 -3 -2 -2 -3 -2 -2 -3 -2 -2 -2 -3 -2 -2 -2 -3 -1 -3 -2 -2 -2 -3 -2 -3 -1 -2 -1 -3 -2 -3 -1 -3 -1 -2 -2 -3 -1 -3 0 0zm1 -110l141 49 1 -2 -1 1 0 2 0 1 0 1 -1 1 0 1 0 1 0 0 0 1 -1 1 0 0 0 1 0 0 0 1 0 0 0 0 0 1 0 0 0 0 0 0 0 0 0 0 0 -1 0 0 0 0 0 0 0 -1 0 0 0 -1 -1 0 0 -1 0 0 -139 54 -1 -3 -1 -4 -1 -3 -1 -4 -1 -3 -1 -4 -1 -4 0 -3 -1 -4 0 -3 -1 -4 0 -3 0 -4 0 -3 0 -4 0 -3 0 -3 1 -4 0 -3 0 -4 1 -3 0 -3 1 -3 0 -4 1 -3 1 -3 0 -3 1 -4 1 -3 1 -3 1 -3 1 -3 0 -2zm0 2c12,-39 54,-61 94,-48 39,12 60,54 48,93l-142 -45zm386 306l-133 -67 0 0 1 -2 1 -2 1 -2 1 -2 1 -2 1 -2 1 -2 1 -2 1 -2 1 -2 1 -2 1 -2 1 -1 1 -2 1 -2 1 -2 1 -2 1 -1 0 -2 1 -2 1 -1 1 -2 1 -2 1 -1 0 -2 1 -1 1 -2 1 -1 1 -2 0 -1 1 -2 1 -1 132 70 -1 1 -1 2 0 1 -1 1 -1 2 -1 1 0 1 -1 2 -1 1 -1 2 0 1 -1 2 -1 1 -1 2 -1 2 -1 1 0 2 -1 2 -1 1 -1 2 -1 2 -1 2 -1 2 -1 1 -1 2 -1 2 -1 2 -1 2 -1 2 -1 2 -1 2 -1 2 0 0zm-24 58l-141 -46 0 0 0 -3 1 -2 1 -3 1 -2 1 -3 1 -2 1 -3 1 -2 0 -2 1 -3 1 -2 1 -3 1 -2 1 -3 1 -2 1 -3 1 -2 1 -3 1 -2 1 -3 1 -2 2 -2 1 -3 1 -2 1 -3 1 -2 1 -3 1 -2 1 -2 2 -3 1 -2 1 -3 133 67 -1 2 0 2 -1 2 -1 1 -1 2 -1 2 -1 2 -1 2 0 1 -1 2 -1 2 -1 2 -1 2 0 1 -1 2 -1 2 -1 2 0 2 -1 2 -1 1 -1 2 0 2 -1 2 -1 2 0 1 -1 2 -1 2 0 2 -1 2 0 1 -1 2 -1 2 0 0zm-7 43l-149 0 0 0 0 -3 0 -3 0 -2 0 -3 0 -3 0 -3 0 -3 1 -2 0 -3 0 -3 1 -3 0 -3 0 -2 1 -3 0 -3 1 -3 0 -3 1 -2 0 -3 1 -3 0 -3 1 -3 1 -2 0 -3 1 -3 1 -3 0 -2 1 -3 1 -3 1 -3 1 -2 1 -3 141 46 0 2 -1 1 0 2 0 1 -1 2 0 1 -1 2 0 1 0 1 -1 2 0 1 0 2 -1 1 0 2 0 1 0 1 -1 2 0 1 0 1 0 1 0 2 0 1 -1 1 0 1 0 2 0 1 0 1 0 1 0 2 0 1 0 1 0 1 0 0zm-8 -10l-91 118 -1 -1 -3 -3 -3 -2 -3 -3 -3 -3 -2 -2 -3 -3 -3 -3 -2 -3 -2 -4 -3 -3 -2 -3 -2 -3 -2 -4 -2 -3 -1 -4 -2 -3 -1 -4 -2 -3 -1 -4 -1 -4 -1 -3 -1 -4 -1 -4 -1 -3 0 -4 -1 -4 0 -3 -1 -4 0 -3 0 -4 0 -3 0 -4 149 0 0 0 0 1 0 0 0 0 0 0 0 0 0 0 0 0 0 0 0 0 0 -1 0 0 -1 0 0 -1 0 0 0 -1 0 0 -1 -1 0 0 0 -1 -1 -1 0 0 0 -1 -1 0 0 -1 -1 0 0 -1 0 0 -1 -1 0 0 -1 0 0 -1 -1 0zm1 0c32,26 37,73 12,105 -26,32 -73,37 -105,12l93 -117zm20 5l13 148 0 0 -4 1 -5 0 -4 0 -4 0 -4 0 -4 0 -4 0 -4 -1 -4 0 -4 -1 -5 0 -4 -1 -4 -1 -4 -1 -4 -1 -4 -1 -4 -1 -4 -1 -4 -1 -4 -2 -4 -1 -4 -2 -3 -2 -4 -2 -4 -2 -3 -2 -4 -2 -4 -2 -3 -2 -4 -3 -3 -2 -3 -2 91 -118 1 0 0 0 1 1 0 0 1 0 0 1 1 0 0 0 1 0 0 1 1 0 0 0 1 0 0 0 1 1 0 0 1 0 0 0 1 0 0 0 1 0 1 0 1 1 0 0 1 0 1 0 1 0 1 0 1 0 1 0 1 0 1 0 0 0zm63 -19l64 135 0 0 -4 2 -3 1 -4 2 -3 1 -4 2 -3 1 -4 2 -3 1 -4 1 -4 2 -3 1 -4 1 -3 1 -4 1 -3 1 -4 2 -3 1 -4 0 -4 1 -3 1 -4 1 -3 1 -4 1 -3 0 -4 1 -4 1 -3 0 -4 1 -4 0 -3 1 -4 0 -3 0 -13 -148 2 -1 2 0 1 0 2 0 2 0 2 -1 1 0 2 0 2 -1 2 0 2 0 1 -1 2 0 2 -1 2 0 2 -1 2 0 2 -1 2 -1 2 0 2 -1 2 -1 2 -1 3 0 2 -1 2 -1 2 -1 2 -1 3 -1 2 -1 2 -1 2 -1 0 0zm79 -48l91 118 0 0 -4 2 -3 3 -3 2 -3 2 -4 3 -3 2 -3 2 -3 3 -4 2 -3 2 -3 2 -3 3 -4 2 -3 2 -3 2 -4 2 -3 2 -3 2 -4 2 -3 2 -3 2 -3 2 -4 2 -3 1 -4 2 -3 2 -3 2 -4 1 -3 2 -3 2 -4 1 -3 2 -64 -135 3 -1 2 -1 3 -1 2 -2 2 -1 3 -1 2 -1 3 -2 2 -1 2 -1 3 -2 2 -1 3 -2 2 -1 3 -1 2 -2 2 -1 3 -2 2 -2 3 -1 2 -2 3 -2 2 -1 3 -2 2 -2 3 -1 2 -2 3 -2 2 -2 3 -2 2 -2 3 -1 0 0zm74 -67l108 104 0 0 -3 2 -2 3 -3 3 -3 2 -2 3 -3 3 -3 2 -2 3 -3 2 -3 3 -3 3 -2 2 -3 3 -3 2 -3 3 -3 2 -3 3 -2 2 -3 3 -3 2 -3 3 -3 2 -3 3 -3 2 -3 3 -3 2 -3 3 -3 2 -3 3 -3 2 -3 2 -3 3 -91 -118 2 -2 3 -2 2 -2 3 -2 2 -3 3 -2 2 -2 3 -2 2 -2 3 -2 2 -2 3 -2 2 -2 2 -2 3 -2 2 -2 2 -2 3 -2 2 -2 2 -2 3 -2 2 -3 2 -2 2 -2 2 -2 3 -2 2 -2 2 -2 2 -2 2 -3 2 -2 2 -2 0 0zm53 -65l126 80 0 0 -2 2 -2 3 -2 3 -2 3 -2 3 -2 3 -2 3 -2 2 -2 3 -2 3 -2 3 -2 3 -2 2 -2 3 -2 3 -3 3 -2 3 -2 2 -2 3 -3 3 -2 3 -2 2 -3 3 -2 3 -3 3 -2 2 -3 3 -2 3 -3 2 -2 3 -3 3 -2 3 -108 -104 2 -2 2 -2 2 -2 2 -2 2 -2 2 -3 2 -2 2 -2 2 -2 2 -2 1 -2 2 -2 2 -2 2 -2 1 -2 2 -2 2 -2 1 -2 2 -3 1 -2 2 -2 1 -2 2 -2 1 -2 2 -2 1 -2 1 -2 2 -2 1 -2 1 -2 2 -2 1 -1 0 0zm16 -35l149 13 0 0 -1 4 0 3 -1 4 0 3 -1 3 -1 4 0 3 -1 3 -1 4 -1 3 -1 3 -1 3 -1 4 -1 3 -2 3 -1 3 -1 3 -1 3 -2 3 -1 3 -2 3 -1 3 -2 4 -1 3 -2 3 -1 3 -2 3 -2 3 -2 3 -1 3 -2 3 -2 3 -126 -80 1 -2 1 -2 1 -2 1 -2 1 -1 1 -2 1 -1 1 -2 1 -1 0 -2 1 -1 1 -2 0 -1 1 -1 0 -1 1 -2 0 -1 1 -1 0 -1 0 -1 1 -1 0 0 0 -1 0 -1 0 -1 1 0 0 -1 0 0 0 -1 0 0 0 0 0 -1 0 1zm0 -1c4,-41 40,-71 81,-67 41,4 71,40 68,81l-149 -14zm28 38l51 -140 0 0 4 2 5 1 4 2 4 3 4 2 4 3 4 2 4 4 4 3 3 3 4 4 3 4 3 4 3 4 2 5 3 4 2 4 2 5 2 4 1 4 1 5 1 4 1 4 1 5 0 4 1 4 0 4 0 4 0 4 0 4 0 3 0 4 -149 -13 0 -1 0 1 0 0 0 0 0 1 0 0 0 1 0 1 0 1 1 1 0 2 0 1 1 2 1 2 0 2 1 1 1 2 2 2 1 2 1 2 2 2 1 2 2 1 2 2 2 1 1 1 2 1 2 1 1 1 2 1 1 1 1 0 0 0zm21 -11l-79 -126 25 -10 3 -1 2 0 3 -1 3 0 3 0 2 -1 3 0 3 0 2 0 3 0 3 0 2 0 3 0 3 0 3 0 2 0 3 1 3 0 2 0 3 1 3 0 2 1 3 0 2 1 3 1 3 0 2 1 2 1 3 0 2 1 3 1 2 1 -51 140 0 0 0 0 -1 0 0 0 -1 -1 0 0 0 0 0 0 -1 0 0 0 0 0 0 0 0 0 -1 0 0 0 0 0 0 0 0 0 0 0 0 0 0 0 0 0 0 0 0 0 0 0 0 0 0 0 0 0 0 0 0 0 0 0 0 0 25 -10zm-25 10c-40,8 -79,-18 -88,-59 -8,-40 19,-79 59,-87l29 146zm-52 34l-70 -132 0 0 3 -1 2 -1 2 -1 2 -1 3 -2 2 -1 2 -1 2 -1 3 -2 2 -1 2 -1 2 -1 2 -1 2 -2 2 -1 3 -1 2 -1 2 -1 2 -2 2 -1 2 -1 2 -1 2 -2 2 -1 2 -1 2 -1 2 -1 2 -2 2 -1 2 -1 2 -1 2 -1 79 126 -2 1 -2 2 -3 1 -2 2 -2 1 -3 1 -2 2 -2 1 -3 2 -2 1 -2 1 -3 2 -2 1 -2 2 -3 1 -2 1 -3 2 -2 1 -3 2 -2 1 -2 1 -3 2 -2 1 -3 1 -2 2 -3 1 -2 1 -3 2 -2 1 -3 2 -2 1 -3 1 0 0zm-90 39l-48 -141 -1 0 3 -1 2 0 2 -1 2 -1 2 -1 3 -1 2 0 2 -1 2 -1 2 -1 3 -1 2 -1 2 -1 2 -1 2 0 2 -1 3 -1 2 -1 2 -1 2 -1 2 -1 2 -1 2 -1 3 -1 2 -1 2 -1 2 -1 2 -1 2 -1 2 -2 2 -1 2 -1 70 132 -3 2 -2 1 -3 1 -3 2 -3 1 -2 2 -3 1 -3 1 -3 2 -3 1 -2 1 -3 1 -3 2 -3 1 -2 1 -3 1 -3 2 -3 1 -3 1 -3 1 -2 1 -3 2 -3 1 -3 1 -3 1 -3 1 -2 1 -3 1 -3 1 -3 1 -3 1 -3 1 0 0zm0 0c-39,14 -81,-7 -95,-46 -13,-39 8,-81 46,-95l49 141zm-99 22l-15 -148 0 0 2 0 2 -1 2 0 2 0 2 0 2 -1 2 0 2 0 2 -1 2 0 2 0 3 -1 2 0 2 -1 2 0 2 0 2 -1 2 0 2 -1 2 0 2 -1 2 0 2 -1 2 -1 2 0 2 -1 2 0 2 -1 2 -1 2 0 2 -1 3 -1 48 141 -3 1 -3 1 -3 1 -3 1 -3 1 -3 1 -3 1 -3 1 -3 1 -3 1 -4 0 -3 1 -3 1 -3 1 -3 0 -3 1 -3 1 -3 0 -3 1 -3 1 -3 0 -4 1 -3 0 -3 1 -3 0 -3 1 -3 0 -3 1 -3 0 -4 0 -3 1 -3 0 0 0zm-22 -46l-132 -70 86 -37 2 1 1 0 2 1 2 0 1 0 2 1 1 0 2 0 2 1 1 0 2 0 2 0 1 1 2 0 1 0 2 0 2 0 1 0 2 0 2 0 1 0 2 1 2 0 1 0 2 0 2 -1 1 0 2 0 2 0 2 0 1 0 2 0 15 148 -3 1 -4 0 -3 0 -4 0 -3 0 -4 1 -3 0 -3 0 -4 0 -3 0 -4 0 -3 -1 -4 0 -3 0 -3 0 -4 0 -3 -1 -4 0 -3 0 -3 -1 -4 0 -3 -1 -4 0 -3 -1 -3 -1 -4 0 -3 -1 -3 -1 -4 -1 -3 -1 -3 0 -4 -1 87 -37zm-87 37c-39,-12 -62,-53 -51,-93 11,-39 53,-62 92,-51l-41 144z"/>
    <path id="1" class="fil4" d="M503 1264c12,-35 29,-68 50,-99 21,-31 45,-59 72,-85 27,-26 57,-49 88,-70 31,-21 63,-40 95,-56 33,-15 68,-27 107,-38 38,-10 76,-15 114,-15 38,0 75,6 111,20 35,13 67,34 94,64 20,24 34,48 41,72 6,24 8,49 4,74 -4,25 -12,49 -23,72 -12,24 -26,46 -43,66 32,16 56,36 73,61 17,24 28,50 33,79 5,29 5,58 -1,87 -5,30 -14,57 -27,82 -19,39 -44,75 -73,108 -30,33 -63,63 -99,90 -37,27 -76,49 -116,67 -41,19 -82,32 -123,40 -32,7 -65,10 -100,8 -34,-1 -66,-8 -96,-19 -30,-12 -57,-29 -80,-52 -23,-22 -40,-51 -51,-86 -15,-48 -16,-97 -3,-147 13,-50 33,-98 60,-145 28,-47 60,-91 96,-133 36,-41 70,-78 102,-109 12,-12 25,-18 40,-19 14,-1 27,2 39,9 11,8 19,19 23,33 5,14 4,30 -2,49 37,-14 71,-34 102,-58 30,-25 53,-47 69,-67 10,-12 14,-23 13,-31 -1,-8 -7,-15 -16,-20 -10,-4 -23,-7 -39,-9 -16,-1 -34,-1 -53,1 -29,3 -56,9 -83,17 -28,9 -53,20 -78,32 -40,20 -79,45 -118,75 -38,30 -68,64 -90,104 -11,19 -25,32 -41,38 -17,5 -31,5 -44,0 -14,-6 -23,-17 -29,-32 -6,-16 -6,-35 2,-58zm277 195c-8,14 -17,32 -28,55 -12,22 -21,45 -28,68 -8,23 -12,45 -12,66 0,21 7,37 21,49 21,15 45,22 73,20 29,-2 58,-11 89,-25 31,-15 62,-34 92,-57 31,-24 58,-48 83,-74 25,-26 45,-52 62,-77 16,-26 25,-49 27,-69 2,-20 -5,-33 -20,-39 -16,-6 -30,-7 -44,-4 -23,14 -47,28 -73,41 -26,14 -52,25 -79,35 -27,9 -55,15 -82,18 -28,3 -55,0 -81,-7z"/>
   </g>
   <g>
    <path class="fil3" d="M1704 1438l-46 -141 0 0 5 -2 5 -2 5 -1 5 -2 5 -1 5 -2 5 -1 5 -1 5 -2 5 -1 4 -1 5 -1 5 -1 5 -1 4 -1 5 -1 4 -1 5 -1 4 -1 5 -1 4 0 5 -1 4 0 4 -1 5 0 4 -1 4 0 5 0 4 -1 4 0 4 0 4 0 0 149 -1 0 -2 0 -2 0 -2 0 -3 1 -2 0 -2 0 -3 0 -2 1 -3 0 -3 0 -3 1 -3 0 -3 1 -3 0 -3 1 -3 1 -3 0 -4 1 -3 1 -4 1 -4 1 -3 1 -4 1 -4 1 -4 1 -4 1 -4 1 -4 1 -4 2 -5 1 -4 1 0 0zm-123 20l-136 -63 42 -39 6 -2 6 -2 5 -2 6 -2 6 -2 5 -2 6 -2 5 -2 6 -2 5 -2 6 -2 5 -2 6 -2 5 -2 6 -2 5 -2 5 -2 6 -1 5 -2 5 -2 5 -2 6 -2 5 -1 5 -2 5 -2 5 -1 5 -2 5 -2 5 -1 5 -2 5 -2 5 -1 46 141 -5 2 -4 2 -5 1 -5 2 -5 1 -5 2 -4 2 -5 1 -5 2 -5 2 -5 1 -5 2 -5 2 -6 2 -5 1 -5 2 -5 2 -5 2 -5 2 -6 2 -5 1 -5 2 -6 2 -5 2 -5 2 -6 2 -5 2 -6 2 -5 2 -6 2 -6 2 -5 2 42 -38zm-42 38c-39,15 -82,-5 -96,-44 -14,-39 5,-81 44,-96l52 140zm28 -6l-139 -53 0 0 1 -2 0 -1 1 -2 0 -1 1 -2 0 -1 1 -2 1 -1 0 -1 1 -2 0 -1 1 -1 0 -2 1 -1 0 -2 1 -1 0 -1 1 -1 0 -2 1 -1 1 -1 0 -1 1 -2 0 -1 1 -1 0 -1 1 -1 0 -1 1 -2 0 -1 1 -1 0 -1 136 63 -1 0 0 1 0 1 -1 0 0 1 0 1 -1 1 0 1 0 0 -1 1 0 1 -1 1 0 1 0 1 -1 1 0 1 -1 1 0 1 0 1 -1 1 0 1 -1 1 0 2 -1 1 0 1 -1 1 0 1 -1 2 0 1 -1 1 0 1 -1 2 0 0zm-11 36l-145 -33 0 0 0 -2 1 -2 0 -2 1 -2 0 -1 1 -2 0 -2 0 -1 1 -2 0 -2 1 -2 0 -2 1 -1 0 -2 1 -2 1 -2 0 -1 1 -2 0 -2 1 -2 0 -1 1 -2 0 -2 1 -2 1 -1 0 -2 1 -2 0 -1 1 -2 1 -2 0 -2 1 -1 139 53 0 1 0 1 -1 1 0 1 -1 2 0 1 0 1 -1 1 0 1 -1 1 0 1 0 1 -1 2 0 1 -1 1 0 1 0 1 -1 1 0 1 0 2 -1 1 0 1 0 1 0 1 -1 1 0 1 0 2 -1 1 0 1 0 1 -1 1 0 1 0 0zm-2 25l-149 7 0 0 0 -2 0 -2 0 -2 -1 -2 0 -2 0 -2 1 -2 0 -2 0 -2 0 -2 0 -2 0 -2 0 -2 0 -3 0 -2 1 -2 0 -2 0 -2 0 -2 0 -2 1 -2 0 -2 0 -2 1 -2 0 -2 0 -2 1 -2 0 -2 1 -2 0 -2 0 -2 1 -2 145 33 0 1 0 1 0 1 -1 1 0 1 0 1 0 0 0 1 0 1 0 1 -1 1 0 1 0 0 0 1 0 1 0 1 0 0 0 1 0 1 0 1 0 0 0 1 0 1 0 1 0 0 0 1 0 1 0 0 0 1 0 1 0 0 0 1 0 0zm-8 -14l-108 103 2 1 -3 -2 -2 -2 -2 -3 -2 -2 -2 -3 -1 -2 -2 -2 -2 -3 -1 -3 -2 -2 -1 -3 -2 -2 -1 -3 -1 -3 -1 -2 -2 -3 -1 -3 0 -3 -1 -2 -1 -3 -1 -3 -1 -2 0 -3 -1 -3 0 -2 -1 -3 0 -3 0 -2 -1 -3 0 -3 0 -2 0 -3 149 -7 0 0 0 0 0 0 0 0 0 0 0 0 0 0 0 -1 0 0 -1 0 0 -1 0 0 0 0 0 -1 0 0 0 -1 -1 -1 0 0 0 -1 -1 -1 0 0 0 -1 -1 -1 0 -1 -1 0 0 -1 -1 -1 0 0 -1 -1 -1 -1 0 -1 -1 0 1 1zm-1 -1c29,29 29,76 0,105 -29,29 -76,29 -105,0l105 -105zm7 3l-16 148 0 0 -3 0 -4 0 -3 -1 -3 0 -4 -1 -3 -1 -4 -1 -3 -1 -3 -1 -4 -1 -3 -1 -3 -1 -3 -1 -4 -2 -3 -1 -3 -1 -3 -2 -3 -2 -3 -1 -3 -2 -3 -2 -3 -2 -3 -2 -3 -2 -3 -2 -3 -2 -2 -2 -3 -3 -2 -2 -3 -2 -2 -3 -3 -2 108 -103 1 0 0 0 0 0 0 1 0 0 0 0 0 0 1 0 0 0 0 0 0 0 0 0 0 0 0 0 0 0 0 0 0 0 0 0 0 0 0 0 0 1 1 0 0 0 0 0 0 0 0 0 1 0 0 0 0 0 1 0 0 0 1 0 0 0zm0 0c41,4 70,41 66,82 -4,41 -41,71 -82,66l16 -148zm44 -3l32 145 0 0 -3 1 -3 1 -3 0 -3 1 -3 0 -2 1 -3 0 -3 1 -3 0 -3 0 -3 1 -3 0 -3 0 -2 1 -3 0 -3 0 -3 0 -3 0 -3 1 -3 0 -3 0 -2 0 -3 0 -3 0 -3 0 -3 0 -3 0 -3 -1 -2 0 -3 0 -3 0 -3 -1 16 -148 1 0 1 0 1 0 1 1 1 0 1 0 2 0 1 0 1 0 1 0 1 0 2 0 1 0 1 0 2 -1 1 0 1 0 2 0 1 0 2 0 1 0 2 -1 1 0 2 0 1 0 2 0 2 -1 1 0 2 0 1 -1 2 0 2 0 0 0zm62 -21l59 137 0 0 -2 1 -3 1 -3 1 -3 1 -3 2 -2 1 -3 1 -3 1 -3 1 -3 1 -2 1 -3 1 -3 1 -3 1 -2 1 -3 1 -3 1 -3 1 -3 1 -2 0 -3 1 -3 1 -3 1 -3 1 -2 0 -3 1 -3 1 -3 1 -3 0 -2 1 -3 1 -3 0 -32 -145 2 -1 2 0 1 -1 2 0 2 -1 2 0 2 -1 2 0 2 -1 1 0 2 -1 2 0 2 -1 2 0 2 -1 2 -1 2 0 2 -1 2 -1 2 0 2 -1 2 -1 2 -1 1 0 2 -1 3 -1 2 -1 2 0 2 -1 2 -1 2 -1 2 -1 0 0zm66 -33l74 129 0 0 -2 1 -3 2 -2 1 -2 2 -3 1 -2 1 -3 2 -2 1 -3 1 -2 2 -3 1 -2 1 -3 1 -2 2 -3 1 -2 1 -3 2 -2 1 -3 1 -2 1 -3 2 -3 1 -2 1 -3 1 -2 2 -3 1 -3 1 -2 1 -3 1 -2 1 -3 2 -3 1 -59 -137 2 -1 2 -1 2 -1 2 -1 2 -1 3 -1 2 -1 2 -1 2 -1 2 -1 2 -1 2 -1 2 -1 2 -1 3 -1 2 -1 2 -1 2 -1 2 -1 2 -1 2 -1 2 -1 2 -1 2 -1 2 -1 2 -1 2 -2 2 -1 2 -1 2 -1 2 -1 2 -1 0 0zm59 -37l83 125 0 0 -2 1 -2 1 -2 1 -2 2 -2 1 -2 1 -2 1 -2 2 -2 1 -2 1 -2 2 -2 1 -2 1 -3 2 -2 1 -2 1 -2 1 -2 2 -2 1 -2 1 -2 2 -3 1 -2 1 -2 2 -2 1 -2 1 -3 1 -2 2 -2 1 -2 1 -3 2 -2 1 -74 -129 2 -1 2 -1 2 -2 2 -1 2 -1 2 -1 2 -1 2 -2 2 -1 2 -1 2 -1 1 -1 2 -1 2 -2 2 -1 2 -1 2 -1 2 -1 2 -1 2 -2 1 -1 2 -1 2 -1 2 -1 1 -1 2 -1 2 -1 2 -2 1 -1 2 -1 2 -1 1 -1 0 0zm41 -29l91 118 1 -1 -1 2 -1 1 -2 1 -1 1 -1 1 -2 1 -1 1 -2 1 -1 1 -2 1 -1 1 -1 1 -2 1 -2 1 -1 1 -2 2 -1 1 -2 1 -1 1 -2 1 -2 1 -1 1 -2 2 -2 1 -2 1 -1 1 -2 1 -2 2 -2 1 -2 1 -1 1 -2 2 -83 -125 2 -1 2 -1 1 -1 2 -1 2 -1 1 -1 2 -1 1 -1 2 -1 1 -1 1 -1 2 -1 1 -1 1 -1 2 -1 1 -1 1 -1 1 -1 2 -1 1 0 1 -1 1 -1 1 -1 1 -1 1 0 1 -1 1 -1 1 0 1 -1 1 -1 0 0 1 -1 1 -1zm-1 1c32,-26 79,-21 105,12 26,32 20,79 -12,104l-93 -116zm34 -28l99 112 0 0 -1 1 -2 1 -1 1 -1 1 -1 1 -2 1 -1 1 -1 2 -1 1 -2 1 -1 1 -1 1 -2 1 -1 1 -1 1 -1 1 -2 1 -1 1 -1 1 -2 1 -1 1 -1 1 -1 1 -2 1 -1 1 -1 1 -2 1 -1 2 -1 1 -2 0 -1 1 -1 1 -91 -118 1 -1 1 -1 1 0 1 -1 1 -1 1 -1 1 -1 1 0 2 -1 1 -1 1 -1 1 -1 1 0 1 -1 1 -1 1 -1 1 -1 1 -1 1 -1 1 0 1 -1 1 -1 1 -1 1 -1 1 -1 1 -1 1 -1 1 0 1 -1 1 -1 1 -1 1 -1 0 0zm31 -29l105 106 0 0 -1 1 -1 1 -1 1 -1 1 -1 1 -1 1 -2 1 -1 2 -1 1 -1 1 -1 1 -1 1 -1 1 -1 1 -2 1 -1 1 -1 1 -1 1 -1 1 -1 2 -2 1 -1 1 -1 1 -1 1 -1 1 -2 1 -1 1 -1 1 -1 1 -2 1 -1 2 -1 1 -99 -112 1 -1 1 -1 1 -1 1 -1 2 -1 1 -1 1 -1 1 -1 1 0 0 -1 1 -1 1 -1 1 -1 1 -1 1 -1 1 -1 1 -1 1 0 1 -1 1 -1 1 -1 1 -1 1 -1 1 -1 1 -1 0 0 1 -1 1 -1 1 -1 1 -1 1 -1 1 0 0 -1zm0 1c29,-30 76,-30 105,-1 29,30 29,77 0,106l-105 -105zm60 -31l18 149 0 0 1 -1 1 0 1 0 1 0 1 0 1 -1 2 0 1 0 1 -1 1 0 1 0 1 -1 1 0 1 -1 1 0 0 0 1 -1 1 0 1 -1 1 0 1 -1 0 0 1 -1 1 0 0 -1 1 0 1 -1 0 0 1 -1 0 0 1 -1 0 0 -105 -106 1 -1 1 -1 2 -2 1 -1 2 -1 1 -1 2 -2 2 -1 1 -1 2 -1 2 -2 2 -1 2 -1 1 -1 2 -1 2 -1 2 -1 2 -1 2 -1 2 -1 2 -1 2 0 3 -1 2 -1 2 0 2 -1 2 -1 2 0 2 0 3 -1 2 0 2 -1 0 0zm70 19l-90 119 0 0 1 1 1 1 1 0 2 1 1 1 1 0 1 1 2 1 1 0 1 1 2 0 1 1 1 0 2 1 1 0 1 0 2 1 1 0 1 0 2 0 1 1 1 0 1 0 1 0 1 0 1 0 1 0 1 0 1 0 1 0 1 0 1 0 -18 -149 2 0 3 0 2 0 2 0 2 0 2 0 2 0 2 0 2 0 3 0 2 0 2 1 2 0 3 0 2 1 2 0 3 1 2 1 2 0 2 1 3 1 2 1 2 1 2 1 3 1 2 1 2 1 2 1 2 2 2 1 2 1 2 2 0 0zm35 51l-142 44 0 0 0 1 0 0 1 1 0 1 0 1 1 0 0 1 0 1 0 0 1 1 0 1 1 1 0 1 1 1 0 0 1 1 0 1 1 1 1 1 0 0 1 1 1 1 0 1 1 0 1 1 0 1 1 1 1 0 1 1 0 1 1 0 1 1 90 -119 1 1 2 1 1 2 2 1 2 1 1 2 1 1 2 2 1 1 2 1 1 2 1 2 1 1 2 2 1 2 1 1 1 2 1 2 1 1 1 2 1 2 1 1 1 2 1 2 1 2 1 1 0 2 1 2 1 1 0 2 1 2 0 2 0 0zm-3 68l-139 -52 0 -2 0 0 0 1 0 0 0 1 -1 0 0 1 0 0 0 1 0 1 0 1 -1 0 0 1 0 1 0 1 0 1 0 1 0 1 0 1 0 1 0 1 0 1 0 2 0 1 0 1 0 1 0 2 0 1 1 1 0 2 0 1 1 1 0 1 142 -44 1 2 1 2 0 3 1 2 0 3 1 2 0 2 0 3 0 2 1 3 0 2 0 2 0 3 0 2 0 2 -1 2 0 3 0 2 0 2 -1 2 0 2 0 2 -1 2 0 2 -1 2 0 2 -1 2 -1 2 0 2 -1 2 -1 1 0 2 0 -1zm0 1c-15,38 -59,57 -97,42 -38,-15 -57,-59 -42,-97l139 55zm-54 95l-119 -90 0 0 1 -2 2 -2 1 -2 2 -2 1 -2 2 -2 1 -2 1 -2 2 -2 1 -1 1 -2 1 -2 1 -2 1 -2 1 -2 2 -2 1 -2 1 -1 1 -2 1 -2 0 -2 1 -2 1 -1 1 -2 1 -2 1 -1 0 -2 1 -2 1 -2 0 -1 1 -2 1 -1 139 52 -1 3 -1 3 -1 3 -2 3 -1 3 -1 3 -2 3 -1 3 -1 3 -2 4 -2 3 -1 3 -2 3 -1 3 -2 3 -2 3 -1 3 -2 3 -2 3 -2 3 -2 3 -1 3 -2 3 -2 3 -2 3 -2 3 -2 2 -2 3 -2 3 -3 3 -2 3 -2 3 0 0zm-65 76l-107 -104 1 0 1 -2 2 -2 1 -1 2 -2 1 -1 2 -2 2 -2 1 -2 2 -1 1 -2 2 -2 2 -2 1 -2 2 -1 1 -2 2 -2 2 -2 1 -2 2 -2 2 -2 1 -2 2 -2 2 -2 1 -2 2 -2 2 -2 1 -3 2 -2 2 -2 2 -2 1 -2 2 -3 119 90 -2 3 -2 3 -2 2 -2 3 -2 2 -2 3 -2 3 -2 2 -2 3 -2 2 -2 3 -2 2 -2 3 -3 2 -2 3 -2 2 -2 2 -2 3 -2 2 -2 2 -2 3 -2 2 -2 2 -2 3 -2 2 -2 2 -3 2 -2 2 -2 3 -2 2 -2 2 -2 2 1 -1zm-1 1c-29,29 -76,29 -106,0 -29,-29 -29,-76 1,-105l105 105zm-92 78l-87 -121 0 0 3 -2 3 -2 2 -2 3 -2 2 -2 3 -2 2 -1 3 -2 2 -2 2 -2 3 -2 2 -2 3 -2 2 -2 2 -2 2 -2 3 -1 2 -2 2 -2 2 -2 2 -2 2 -2 3 -2 2 -2 2 -2 2 -2 2 -2 2 -2 2 -2 2 -2 2 -2 2 -2 107 104 -3 3 -2 3 -3 2 -3 3 -2 2 -3 3 -3 3 -3 2 -2 3 -3 2 -3 3 -3 2 -2 3 -3 2 -3 3 -3 2 -3 3 -3 2 -3 3 -3 2 -3 2 -3 3 -3 2 -3 3 -3 2 -3 2 -3 3 -3 2 -4 2 -3 3 -3 2 -3 2 0 0zm-113 63l-58 -137 0 0 3 -2 3 -1 2 -1 3 -1 3 -1 3 -2 2 -1 3 -1 3 -2 2 -1 3 -1 3 -2 2 -1 3 -1 3 -2 2 -1 3 -2 3 -1 2 -2 3 -1 2 -2 3 -1 2 -2 3 -2 3 -1 2 -2 3 -2 2 -1 3 -2 2 -2 3 -2 2 -1 87 121 -4 3 -3 2 -3 2 -4 3 -3 2 -3 2 -4 2 -3 2 -4 3 -3 2 -4 2 -3 2 -4 2 -3 2 -4 2 -3 2 -4 2 -3 2 -4 2 -3 2 -4 1 -3 2 -4 2 -4 2 -3 2 -4 1 -4 2 -3 2 -4 1 -4 2 -3 2 -4 1 0 0zm-124 35l-22 -147 0 0 3 -1 2 0 3 -1 3 0 3 -1 3 0 2 -1 3 -1 3 0 3 -1 3 0 2 -1 3 -1 3 -1 3 0 3 -1 2 -1 3 -1 3 -1 3 0 2 -1 3 -1 3 -1 2 -1 3 -1 3 -1 3 -1 2 -1 3 -1 3 -1 3 -1 2 -1 58 137 -4 2 -3 1 -4 2 -4 1 -4 2 -4 1 -3 1 -4 2 -4 1 -4 1 -4 2 -4 1 -3 1 -4 1 -4 1 -4 2 -4 1 -4 1 -4 1 -4 1 -4 1 -4 1 -4 0 -4 1 -3 1 -4 1 -4 1 -4 0 -4 1 -4 1 -4 0 -4 1 0 0zm-137 -5l35 -145 -1 0 2 0 3 1 2 0 3 1 2 0 3 1 2 0 3 0 2 1 3 0 2 0 3 0 2 0 3 1 2 0 3 0 2 0 3 0 2 0 3 0 2 0 3 0 2 0 3 0 3 -1 2 0 3 0 2 0 3 0 2 -1 3 0 3 0 22 147 -5 1 -4 0 -4 1 -4 0 -5 1 -4 0 -4 0 -4 1 -5 0 -4 0 -4 0 -4 0 -5 0 -4 0 -4 0 -5 0 -4 0 -4 0 -4 -1 -5 0 -4 0 -4 -1 -4 0 -4 -1 -5 0 -4 -1 -4 -1 -4 0 -4 -1 -5 -1 -4 -1 -4 -1 -1 0zm1 0c-40,-9 -65,-49 -56,-89 9,-40 49,-65 89,-56l-33 145zm-108 -51l95 -115 0 -1 1 1 1 1 1 1 1 1 1 1 2 0 1 1 1 1 1 1 1 0 2 1 1 1 1 0 2 1 1 1 1 1 2 0 1 1 2 1 1 0 2 1 2 0 1 1 2 1 2 0 1 1 2 0 2 1 2 0 2 1 2 0 2 1 -35 145 -4 -1 -3 -1 -4 -1 -4 -1 -3 -1 -4 -1 -3 -1 -4 -1 -3 -2 -4 -1 -4 -1 -3 -2 -3 -1 -4 -2 -3 -1 -4 -2 -3 -1 -3 -2 -4 -2 -3 -1 -3 -2 -3 -2 -4 -2 -3 -2 -3 -2 -3 -2 -3 -2 -3 -2 -3 -3 -3 -2 -3 -2 -3 -2 0 0zm0 0c-31,-27 -36,-74 -10,-105 26,-32 73,-37 105,-11l-95 116zm-67 -87l134 -64 0 0 1 1 0 2 1 1 1 1 0 1 1 2 1 1 1 1 0 1 1 1 1 1 1 2 0 1 1 1 1 1 1 1 1 1 1 1 1 1 0 1 1 1 1 1 1 1 1 1 1 1 1 2 2 1 1 1 1 1 1 1 1 1 1 1 -95 115 -2 -3 -3 -2 -3 -2 -2 -3 -3 -2 -2 -2 -3 -3 -2 -2 -3 -3 -2 -2 -2 -3 -3 -2 -2 -3 -2 -3 -2 -2 -2 -3 -2 -3 -3 -2 -2 -3 -2 -3 -2 -3 -1 -3 -2 -3 -2 -2 -2 -3 -2 -3 -1 -3 -2 -3 -2 -3 -1 -4 -2 -3 -1 -3 0 0zm-27 -104l149 -9 0 0 0 1 0 2 0 2 0 1 1 2 0 2 0 2 0 1 1 2 0 1 0 2 0 2 1 1 0 2 0 1 1 2 0 1 1 2 0 1 1 2 0 1 0 2 1 1 0 2 1 1 1 2 0 1 1 1 0 2 1 1 1 2 0 1 -134 64 -2 -3 -1 -3 -2 -3 -1 -3 -1 -3 -1 -3 -2 -3 -1 -3 -1 -4 -1 -3 -1 -3 -1 -3 -1 -3 -1 -4 -1 -3 -1 -3 0 -3 -1 -4 -1 -3 -1 -3 0 -4 -1 -3 -1 -3 0 -4 -1 -3 0 -3 -1 -4 0 -3 0 -3 -1 -4 0 -3 0 -4 0 0zm107 -17l-51 -140 98 87 0 2 -1 2 0 2 -1 2 0 2 0 2 -1 1 0 2 0 2 -1 2 0 2 0 2 0 2 -1 2 0 2 0 2 0 1 0 2 0 2 0 2 -1 2 0 2 0 2 0 2 0 1 0 2 0 2 0 2 0 2 1 2 0 2 0 2 -149 9 0 -3 0 -3 -1 -3 0 -4 0 -3 0 -3 0 -4 0 -3 0 -3 0 -4 0 -3 1 -3 0 -3 0 -4 0 -3 0 -3 1 -3 0 -4 0 -3 1 -3 0 -4 1 -3 0 -3 1 -3 0 -4 1 -3 0 -3 1 -3 1 -4 0 -3 1 -3 1 -3 98 87zm-98 -87c9,-40 49,-65 90,-56 40,10 64,50 55,90l-145 -34zm61 97l-29 -146 0 0 1 0 0 0 1 -1 0 0 1 0 0 0 1 0 0 0 1 0 0 0 1 0 0 -1 1 0 0 0 1 0 0 0 1 0 0 0 1 0 0 -1 0 0 1 0 0 0 1 0 0 0 0 0 1 -1 0 0 1 0 0 0 0 0 1 0 51 140 -1 0 -1 1 -1 0 -2 1 -1 0 -1 0 -1 1 -1 0 -1 0 -1 1 -1 0 -1 0 -2 1 -1 0 -1 0 -1 1 -1 0 -1 0 -2 1 -1 0 -1 0 -1 0 -1 1 -1 0 -1 0 -2 1 -1 0 -1 0 -1 0 -1 1 -1 0 -2 0 0 0zm-54 0l33 -145 0 0 -1 0 -1 -1 0 0 -1 0 0 0 -1 0 0 0 -1 0 0 0 -1 0 0 0 0 0 -1 0 0 0 0 0 -1 0 0 0 0 0 0 0 0 0 0 0 0 0 -1 0 0 0 1 0 0 0 0 0 0 0 0 0 0 0 0 0 0 0 29 146 -1 0 -2 1 -1 0 -2 0 -1 0 -2 1 -1 0 -2 0 -1 0 -2 0 -2 1 -1 0 -2 0 -2 0 -1 0 -2 0 -2 0 -2 0 -1 0 -2 0 -2 0 -1 0 -2 0 -2 0 -2 -1 -2 0 -1 0 -2 0 -2 -1 -2 0 -2 0 -2 -1 0 0zm-65 -54l136 -59 0 0 0 -2 -1 -1 -1 -1 0 -1 -1 -2 -1 -2 -1 -1 -1 -1 -1 -2 -1 -1 -2 -1 -1 -2 -1 -1 -2 -1 -1 -1 -1 -2 -2 -1 -1 -1 -1 -1 -2 -1 -2 -1 -1 0 -2 -1 -1 -1 -1 0 -2 -1 -1 -1 -1 0 -2 0 -1 -1 -1 0 -1 0 -33 145 -2 0 -3 -1 -2 -1 -2 0 -3 -1 -2 -1 -3 -1 -2 -1 -3 -1 -2 -2 -2 -1 -3 -1 -3 -2 -2 -2 -2 -1 -2 -2 -3 -2 -2 -2 -2 -2 -2 -2 -2 -2 -2 -2 -2 -2 -2 -3 -1 -2 -2 -2 -1 -3 -2 -2 -1 -2 -1 -3 -1 -2 -1 -3 0 0zm3 -85l138 56 0 1 -1 0 0 1 0 0 0 0 0 0 0 0 0 0 0 0 0 0 0 0 0 0 0 -1 0 0 1 -1 0 0 0 -1 0 -1 0 -1 0 -1 0 -1 0 -2 0 -1 0 -2 0 -2 0 -2 -1 -2 0 -2 0 -2 -1 -3 -1 -2 -1 -3 -1 -2 -136 59 -2 -3 -1 -4 -1 -4 -1 -3 -1 -4 -1 -3 0 -4 -1 -3 0 -3 0 -3 0 -3 0 -3 0 -3 0 -3 1 -2 0 -3 0 -2 1 -3 0 -2 1 -2 0 -3 1 -2 0 -2 1 -2 1 -2 0 -2 1 -2 1 -2 0 -2 1 -2 1 -2 1 -2 0 0zm0 0c15,-38 59,-56 97,-41 38,16 56,60 41,98l-138 -57zm69 -93l98 113 0 0 -2 1 -1 1 -2 2 -1 1 -1 1 -2 2 -1 1 -1 1 -1 1 -1 2 -2 1 -1 1 -1 1 -1 1 -1 2 0 1 -1 1 -1 1 -1 1 -1 1 0 1 -1 1 -1 1 0 2 -1 1 0 1 -1 1 0 1 -1 1 0 1 -1 1 0 0 -138 -56 1 -3 1 -3 2 -4 2 -3 1 -3 2 -4 2 -3 1 -3 2 -3 2 -3 2 -3 2 -3 2 -3 2 -4 2 -2 3 -3 2 -3 2 -3 3 -3 2 -3 2 -3 3 -2 2 -3 3 -3 2 -2 3 -3 3 -3 2 -2 3 -3 3 -2 3 -3 2 -2 0 0zm66 -46l124 82 -19 20 -3 2 -2 2 -3 2 -2 1 -3 2 -2 2 -3 2 -2 2 -2 1 -3 2 -2 2 -3 2 -2 1 -2 2 -3 2 -2 2 -2 1 -2 2 -3 2 -2 2 -2 2 -2 1 -2 2 -3 2 -2 1 -2 2 -2 2 -2 2 -2 1 -2 2 -2 2 -2 2 -98 -113 3 -2 2 -3 3 -2 2 -2 3 -2 2 -2 3 -2 2 -2 3 -2 2 -2 3 -2 2 -2 3 -2 3 -2 2 -2 3 -2 3 -2 2 -2 3 -2 3 -2 2 -3 3 -2 3 -2 3 -2 2 -2 3 -2 3 -2 3 -2 3 -2 3 -2 2 -2 3 -2 -19 20zm19 -20c34,-23 80,-15 104,19 24,33 15,80 -18,103l-86 -122zm23 -39l118 91 0 0 -1 2 -2 1 -1 2 -1 1 -1 2 -1 1 -1 2 -1 1 -2 2 -1 1 -1 2 -1 1 -1 2 -1 2 -1 1 -1 2 -1 1 -2 2 -1 1 -1 2 -1 2 -1 1 -1 2 -1 1 -1 2 -1 1 -1 2 -1 2 -1 1 -1 2 -2 1 -1 2 -124 -82 1 -1 1 -2 1 -2 2 -2 1 -2 1 -2 1 -2 2 -2 1 -2 1 -1 2 -2 1 -2 1 -2 1 -2 2 -2 1 -2 1 -2 2 -1 1 -2 1 -2 2 -2 1 -2 1 -1 2 -2 1 -2 1 -2 2 -2 1 -1 1 -2 2 -2 1 -2 2 -2 0 0zm127 64l-54 -139 84 119 -2 1 -1 2 -1 1 -1 2 -2 1 -1 2 -1 1 -1 1 -2 2 -1 1 -1 2 -1 1 -2 2 -1 1 -1 2 -1 1 -1 2 -2 1 -1 2 -1 1 -1 2 -1 1 -2 2 -1 1 -1 2 -1 1 -1 2 -2 1 -1 2 -1 1 -1 2 -1 1 -118 -91 1 -1 1 -2 2 -2 1 -2 1 -1 2 -2 1 -2 1 -2 2 -1 1 -2 1 -2 2 -1 1 -2 2 -2 1 -1 1 -2 2 -2 1 -2 2 -1 1 -2 1 -2 2 -1 1 -2 2 -2 1 -1 2 -2 1 -2 1 -1 2 -2 1 -2 2 -2 1 -1 83 118zm-83 -118c27,-31 74,-35 105,-8 31,28 35,75 8,106l-113 -98zm-10 -6l39 -15 54 139 -39 15 -54 -138 0 -1zm54 139c-38,15 -81,-4 -96,-42 -15,-38 4,-82 42,-97l54 139zm-94 7l50 -141 0 0 -2 0 -1 -1 -2 0 -1 -1 -2 0 -1 0 -1 0 -1 0 -1 0 -1 0 -1 0 0 0 -1 0 -1 0 0 0 0 0 -1 0 0 0 0 0 0 0 0 0 1 0 0 0 0 0 1 -1 0 0 1 0 0 0 1 0 1 -1 1 0 1 0 55 138 -2 1 -3 1 -2 1 -3 1 -3 1 -2 1 -3 0 -2 1 -3 1 -3 1 -2 0 -3 1 -3 0 -3 1 -2 0 -3 1 -3 0 -3 0 -3 1 -3 0 -3 0 -4 0 -3 0 -3 -1 -4 0 -3 0 -3 -1 -4 0 -3 -1 -4 -1 -4 -1 -3 -1 0 0zm-65 -63l139 -54 0 0 0 -1 -1 -1 0 -1 -1 -1 0 -1 -1 -1 -1 -1 0 -1 -1 -1 -1 -1 0 -1 -1 -1 -1 -1 -1 -1 -1 0 -1 -1 -1 -1 0 -1 -1 -1 -1 0 -1 -1 -1 -1 -1 0 -1 -1 -1 0 -1 -1 0 0 -1 -1 -1 0 -1 0 0 -1 -1 0 -50 141 -3 -1 -2 -1 -3 -1 -2 -2 -3 -1 -2 -1 -3 -1 -2 -2 -3 -1 -2 -2 -3 -2 -2 -1 -2 -2 -3 -2 -2 -2 -2 -2 -2 -2 -2 -2 -3 -3 -2 -2 -1 -2 -2 -3 -2 -2 -2 -3 -1 -2 -2 -3 -1 -2 -2 -3 -1 -2 -1 -3 -1 -3 -1 -2 0 0zm-4 -77l145 35 0 0 0 0 0 0 0 0 0 0 0 0 0 0 0 0 0 0 0 -1 0 0 0 0 0 0 0 -1 0 0 0 0 0 -1 0 0 0 -1 0 0 0 -1 0 0 0 -1 -1 0 0 -1 0 -1 0 0 0 -1 0 0 -1 -1 0 -1 0 0 0 -1 -139 54 -1 -3 -1 -2 -1 -3 -1 -2 0 -3 -1 -2 0 -2 -1 -3 0 -2 -1 -3 0 -2 -1 -3 0 -2 0 -3 0 -2 0 -3 0 -2 0 -3 0 -2 0 -2 0 -3 0 -2 0 -2 0 -3 1 -2 0 -2 0 -3 1 -2 0 -2 1 -2 0 -3 1 -2 0 0zm31 -62l115 94 1 -1 0 0 0 0 0 0 -1 1 0 0 0 0 0 0 0 0 0 0 0 1 0 0 0 0 0 0 -1 0 0 0 0 1 0 0 0 0 0 0 0 0 0 0 0 0 0 0 0 0 0 0 0 1 0 0 0 0 0 0 0 0 0 0 0 0 -145 -35 0 -2 1 -2 0 -2 1 -2 1 -2 0 -2 1 -2 1 -2 0 -2 1 -3 1 -1 1 -3 1 -2 1 -1 1 -2 1 -2 0 -2 1 -2 1 -2 2 -2 1 -2 1 -2 1 -2 1 -2 1 -1 1 -2 1 -2 2 -2 1 -1 1 -2 2 -2 1 -1 1 -1zm-1 1c25,-33 72,-38 105,-13 32,25 38,72 12,105l-117 -92zm80 -76l88 120 0 0 -2 1 -2 1 -2 2 -1 1 -2 2 -2 1 -2 1 -1 2 -2 1 -2 2 -1 1 -2 2 -2 1 -1 2 -2 1 -2 2 -1 1 -2 2 -1 1 -2 2 -2 2 -1 1 -2 2 -1 1 -2 2 -1 2 -2 1 -1 2 -1 2 -2 1 -1 2 -2 2 -115 -94 2 -3 2 -3 2 -2 2 -3 3 -2 2 -3 2 -2 2 -3 3 -2 2 -3 2 -2 3 -3 2 -2 3 -3 2 -2 3 -2 2 -3 3 -2 2 -2 3 -3 2 -2 3 -2 2 -2 3 -3 3 -2 2 -2 3 -2 3 -2 2 -2 3 -2 3 -2 3 -2 0 0zm88 -55l68 133 0 0 -2 1 -2 1 -3 1 -2 1 -2 2 -2 1 -3 1 -2 1 -2 1 -2 2 -2 1 -2 1 -3 1 -2 2 -2 1 -2 1 -2 2 -2 1 -2 1 -2 2 -3 1 -2 1 -2 2 -2 1 -2 2 -2 1 -2 1 -2 2 -2 1 -2 2 -2 1 -2 2 -88 -120 2 -2 3 -2 2 -2 3 -2 3 -2 2 -2 3 -2 3 -1 2 -2 3 -2 3 -2 3 -2 2 -1 3 -2 3 -2 3 -2 2 -1 3 -2 3 -2 3 -1 3 -2 2 -2 3 -1 3 -2 3 -1 3 -2 3 -1 2 -2 3 -2 3 -1 3 -2 3 -1 0 0zm97 -40l46 141 0 0 -2 1 -3 1 -2 1 -2 0 -3 1 -2 1 -3 1 -2 1 -3 1 -2 1 -2 1 -3 1 -2 1 -2 1 -3 1 -2 0 -2 1 -3 1 -2 1 -2 2 -3 1 -2 1 -2 1 -3 1 -2 1 -2 1 -3 1 -2 1 -2 1 -2 1 -3 1 -2 2 -68 -133 3 -2 3 -1 3 -2 3 -1 3 -1 3 -2 3 -1 2 -2 3 -1 3 -1 3 -2 3 -1 3 -1 3 -2 3 -1 3 -1 3 -1 3 -2 3 -1 4 -1 3 -1 3 -1 3 -2 3 -1 3 -1 3 -1 3 -1 3 -1 3 -1 3 -1 3 -1 4 -1 0 0zm95 -26l30 146 0 0 -2 1 -3 0 -2 1 -3 0 -2 1 -2 0 -3 1 -2 0 -3 1 -2 0 -2 1 -3 1 -2 0 -3 1 -2 1 -3 0 -2 1 -3 1 -2 0 -3 1 -2 1 -3 0 -2 1 -3 1 -2 1 -3 0 -2 1 -3 1 -2 1 -3 1 -2 0 -3 1 -46 -141 3 -1 3 -1 3 -1 3 -1 3 -1 3 -1 3 -1 3 -1 3 -1 3 -1 3 -1 3 -1 3 0 3 -1 3 -1 3 -1 3 -1 3 0 2 -1 4 -1 2 -1 3 0 3 -1 3 -1 3 -1 3 0 3 -1 3 -1 3 0 3 -1 3 0 3 -1 0 0zm0 0c40,-8 80,18 88,58 8,40 -18,80 -58,88l-30 -146zm89 -13l13 149 0 0 -2 0 -3 0 -2 1 -3 0 -2 0 -2 0 -3 1 -2 0 -2 0 -3 0 -2 1 -2 0 -3 0 -2 1 -2 0 -2 0 -3 0 -2 1 -2 0 -2 0 -3 1 -2 0 -2 1 -2 0 -2 0 -3 1 -2 0 -2 0 -2 1 -2 0 -2 1 -2 0 -30 -146 3 -1 3 0 2 -1 3 0 3 -1 2 0 3 -1 3 0 2 -1 3 0 3 0 3 -1 2 0 3 -1 3 0 3 -1 2 0 3 0 3 -1 3 0 2 0 3 -1 3 0 3 0 3 -1 3 0 2 0 3 -1 3 0 3 0 3 0 3 -1 0 0zm96 0l-12 148 0 0 -2 0 -2 0 -2 0 -3 0 -2 0 -2 0 -2 -1 -2 0 -2 0 -3 0 -2 0 -2 0 -2 0 -3 0 -2 0 -2 0 -2 0 -2 0 -3 0 -2 0 -2 0 -2 0 -3 0 -2 1 -2 0 -2 0 -3 0 -2 0 -2 0 -2 0 -3 1 -2 0 -13 -149 3 0 3 0 3 0 3 -1 3 0 3 0 3 0 3 0 3 -1 3 0 3 0 3 0 3 0 3 0 3 0 3 0 3 0 3 0 3 0 3 0 3 0 3 0 3 0 3 0 3 0 3 1 3 0 3 0 3 0 3 0 3 0 3 1 0 0zm97 19l-46 142 0 0 -2 -1 -2 0 -2 -1 -2 -1 -1 0 -2 -1 -2 0 -2 -1 -2 0 -2 -1 -2 0 -2 -1 -2 0 -2 0 -2 -1 -2 0 -2 -1 -2 0 -2 0 -2 -1 -2 0 -2 0 -2 -1 -2 0 -2 0 -2 0 -2 -1 -2 0 -2 0 -2 0 -2 0 -2 -1 12 -148 3 0 3 0 3 1 3 0 3 0 4 1 3 0 3 0 3 1 3 0 3 1 3 0 3 1 3 0 3 1 3 0 3 1 3 1 3 0 3 1 3 1 3 0 3 1 3 1 3 1 3 1 3 0 3 1 3 1 3 1 3 1 3 1 0 0zm93 51l-93 117 -2 -2 -2 -1 -1 -1 -1 -1 -1 -1 -2 -1 -1 -1 -1 -1 -1 -1 -2 -1 -1 0 -1 -1 -2 -1 -1 -1 -1 -1 -1 0 -2 -1 -1 -1 -2 -1 -1 0 -1 -1 -2 -1 -1 0 -1 -1 -2 -1 -1 0 -2 -1 -1 -1 -2 0 -1 -1 -2 0 -1 -1 -2 0 46 -142 3 1 3 1 4 1 3 1 3 2 3 1 3 1 4 1 3 2 3 1 3 2 3 1 3 2 3 1 3 2 3 2 3 1 3 2 3 2 3 2 3 1 2 2 3 2 3 2 3 2 3 2 2 2 3 2 3 2 2 2 3 3 3 2 -2 -2zm2 2c31,27 35,74 8,105 -27,31 -74,35 -105,8l97 -113zm41 50l-135 64 0 0 0 1 1 0 0 1 0 0 0 1 1 0 0 0 0 1 0 0 0 0 0 0 0 0 1 0 0 0 0 0 0 0 0 0 0 0 -1 0 0 0 0 0 0 0 0 -1 0 0 -1 0 0 0 0 -1 -1 0 0 0 -1 -1 0 0 0 0 93 -117 1 1 2 2 1 1 2 1 1 2 2 1 1 1 2 2 1 1 2 1 1 2 2 1 1 2 1 1 2 2 1 1 1 2 2 1 1 2 1 2 2 1 1 2 1 2 1 2 2 2 1 2 1 1 1 2 1 3 2 2 1 2 1 2 0 0zm5 79l-140 -52 0 0 0 2 -1 2 0 1 -1 2 0 2 -1 2 0 2 0 1 0 2 0 1 0 2 0 1 0 2 0 1 0 2 0 1 0 1 0 1 1 1 0 1 0 1 0 1 0 1 1 1 0 0 0 1 0 0 0 1 1 0 0 1 0 0 0 0 135 -64 1 2 0 1 1 2 1 2 1 2 0 2 1 2 1 2 1 3 0 2 1 2 0 2 1 3 0 2 1 3 0 2 0 3 1 2 0 3 0 3 0 2 0 3 0 3 -1 3 0 3 0 3 -1 2 -1 4 0 3 -1 2 -1 3 -1 3 0 0zm0 0c-14,39 -57,58 -96,44 -39,-14 -58,-57 -44,-96l140 52zm-60 57l-51 -140 0 0 0 0 -1 1 0 0 -1 0 -1 0 0 1 -1 0 -1 1 -1 0 -1 1 -1 0 -1 1 -1 1 -1 0 -1 1 -1 1 -1 1 -1 1 -1 1 -1 1 -2 2 -1 1 -1 1 -1 2 -1 1 -1 2 -1 1 -1 2 0 2 -1 1 -1 2 -1 2 140 52 -1 3 -1 3 -2 3 -1 3 -2 2 -1 3 -2 2 -1 3 -2 2 -2 2 -2 2 -2 3 -2 2 -2 2 -2 2 -2 1 -2 2 -2 2 -2 1 -2 2 -2 1 -2 1 -2 2 -2 1 -3 1 -2 1 -2 1 -2 1 -2 1 -2 1 -2 1 -2 0 0 0zm-70 6l24 -147 -4 -1 1 0 0 0 1 0 1 0 0 0 0 0 1 0 0 1 1 0 0 0 0 0 0 0 1 0 0 0 0 0 0 -1 0 1 0 0 0 0 -1 0 0 0 0 0 0 0 -1 0 0 0 -1 0 0 0 -1 0 0 0 -1 1 -1 0 -1 0 51 140 -2 1 -2 1 -2 1 -3 0 -2 1 -2 0 -2 1 -3 0 -2 1 -2 0 -2 0 -2 1 -2 0 -2 0 -2 0 -2 0 -2 0 -2 1 -2 0 -2 0 -2 0 -2 0 -2 0 -2 0 -2 0 -2 -1 -2 0 -2 0 -2 0 -2 0 -2 0 -2 0 -4 -1zm4 1c-41,-5 -70,-42 -66,-82 4,-41 41,-71 82,-67l-16 149zm-67 -4l-12 -148 0 0 3 0 4 -1 3 0 3 0 3 0 3 0 3 0 3 0 3 -1 3 0 3 0 3 0 4 1 3 0 3 0 3 0 3 0 3 0 3 0 3 0 3 1 3 0 4 0 3 1 3 0 3 0 3 1 3 0 3 0 3 1 3 0 3 1 -24 147 -2 0 -2 -1 -2 0 -2 0 -1 0 -2 -1 -2 0 -2 0 -2 0 -2 0 -2 -1 -2 0 -2 0 -2 0 -2 0 -2 0 -2 0 -2 0 -2 0 -2 0 -2 0 -2 0 -2 0 -2 0 -2 0 -2 0 -2 0 -2 0 -2 0 -2 0 -2 0 -2 0 0 0zm-70 11l-33 -145 0 0 2 -1 3 0 3 -1 3 -1 3 0 3 -1 2 0 3 -1 3 0 3 -1 3 0 3 -1 3 0 3 -1 2 0 3 -1 3 0 3 -1 3 0 3 -1 3 0 2 0 3 -1 3 0 3 0 3 -1 3 0 3 0 3 0 3 -1 2 0 3 0 12 148 -2 1 -2 0 -2 0 -3 0 -2 0 -2 1 -2 0 -2 0 -3 0 -2 1 -2 0 -2 0 -2 1 -3 0 -2 0 -2 1 -2 0 -2 0 -3 1 -2 0 -2 0 -2 1 -2 0 -3 1 -2 0 -2 0 -2 1 -2 0 -3 1 -2 0 -2 1 -2 0 0 0zm-74 20l-45 -142 0 0 3 -1 2 0 3 -1 3 -1 2 -1 3 -1 2 0 3 -1 3 -1 2 -1 3 -1 3 0 3 -1 2 -1 3 -1 3 0 2 -1 3 -1 3 0 2 -1 3 -1 3 -1 2 0 3 -1 3 -1 2 0 3 -1 3 -1 2 0 3 -1 3 0 3 -1 33 145 -2 1 -3 0 -2 1 -2 0 -3 1 -2 1 -2 0 -3 1 -2 0 -2 1 -3 1 -2 0 -2 1 -3 0 -2 1 -2 1 -3 0 -2 1 -2 1 -3 0 -2 1 -2 1 -3 0 -2 1 -2 1 -2 0 -3 1 -2 1 -2 0 -3 1 -2 1 -2 0 0 0zm0 0c-40,13 -81,-9 -94,-48 -12,-40 10,-81 49,-94l45 142zm-50 10l-98 -112 26 -15 2 -1 2 -1 3 0 2 -1 2 -1 3 -1 2 0 2 -1 3 -1 2 -1 3 0 2 -1 2 -1 3 -1 2 -1 3 0 2 -1 2 -1 3 -1 2 0 3 -1 2 -1 3 -1 2 -1 3 0 2 -1 2 -1 3 -1 2 0 3 -1 2 -1 3 -1 45 142 -3 1 -2 1 -3 1 -2 1 -3 0 -2 1 -2 1 -3 1 -2 0 -3 1 -2 1 -2 1 -3 0 -2 1 -3 1 -2 1 -2 1 -3 0 -2 1 -2 1 -3 1 -2 0 -3 1 -2 1 -2 1 -3 0 -2 1 -2 1 -2 1 -3 0 -2 1 -2 1 26 -15zm-26 15c-40,12 -82,-9 -94,-48 -13,-39 8,-81 48,-94l46 142zm-11 24l-117 -93 0 0 2 -2 1 -2 2 -2 1 -2 2 -2 2 -2 1 -2 2 -2 2 -2 1 -2 2 -1 2 -2 1 -2 2 -2 2 -2 2 -2 1 -2 2 -1 2 -2 2 -2 1 -2 2 -1 2 -2 2 -2 2 -2 1 -1 2 -2 2 -2 2 -1 2 -2 2 -2 2 -1 98 112 -2 1 -1 1 -1 1 -1 1 -2 2 -1 1 -1 1 -1 1 -1 1 -1 1 -2 1 -1 2 -1 1 -1 1 -1 1 -1 1 -2 2 -1 1 -1 1 -1 1 -1 1 -1 2 -1 1 -2 1 -1 1 -1 2 -1 1 -1 1 -1 2 -1 1 -1 1 -1 2 0 0zm-109 -66l20 148 -72 -116 2 -2 1 -2 1 -2 2 -2 1 -2 1 -2 2 -1 1 -2 1 -2 2 -2 1 -2 1 -2 2 -2 1 -2 1 -1 2 -2 1 -2 1 -2 2 -2 1 -2 2 -1 1 -2 1 -2 2 -2 1 -2 2 -1 1 -2 1 -2 2 -2 1 -2 2 -1 1 -2 117 93 -1 1 -2 2 -1 1 -1 2 -1 1 -2 2 -1 2 -1 1 -1 2 -1 1 -2 2 -1 1 -1 2 -1 2 -1 1 -2 2 -1 1 -1 2 -1 1 -1 2 -1 2 -2 1 -1 2 -1 2 -1 1 -1 2 -1 1 -1 2 -2 2 -1 1 -1 2 -1 2 -71 -117zm71 117c-23,33 -70,42 -104,18 -34,-23 -42,-69 -19,-103l123 85zm-8 -122l5 149 0 0 -2 0 -2 0 -1 1 -2 0 -2 0 -1 0 -2 0 -2 0 -2 0 -1 0 -2 0 -1 0 -2 0 -2 1 -1 0 -2 0 -1 0 -2 0 -1 0 -2 0 -1 0 -1 1 -2 0 -1 0 -2 0 -1 0 -1 0 -1 0 -2 1 -1 0 -1 0 -1 0 -20 -148 1 0 2 0 2 0 2 -1 2 0 2 0 2 0 1 -1 2 0 2 0 2 0 2 0 2 0 2 -1 2 0 2 0 2 0 2 0 2 0 2 -1 2 0 2 0 2 0 2 0 2 0 2 0 2 0 2 0 3 -1 2 0 2 0 2 0 0 0zm78 5l-23 147 0 0 -2 0 -1 0 -2 0 -1 -1 -2 0 -1 0 -2 0 -2 0 -1 -1 -2 0 -1 0 -2 0 -1 0 -2 0 -1 0 -2 0 -1 0 -2 -1 -2 0 -1 0 -2 0 -1 0 -2 0 -1 0 -2 0 -1 0 -2 0 -2 0 -1 0 -2 0 -1 0 -2 0 -5 -149 3 0 2 0 2 0 3 0 2 0 3 0 2 0 3 0 2 0 2 0 3 0 2 0 3 0 2 0 3 1 2 0 3 0 2 0 2 0 3 0 2 1 3 0 2 0 2 0 3 1 2 0 3 0 2 1 3 0 2 0 2 1 3 0 0 0zm76 21l-59 137 0 0 -1 0 -1 0 -1 -1 -1 0 -1 -1 -2 0 -1 -1 -1 0 -1 0 -1 -1 -1 0 -2 -1 -1 0 -1 0 -1 -1 -2 0 -1 0 -1 -1 -1 0 -2 0 -1 -1 -1 0 -2 0 -1 -1 -1 0 -2 0 -1 0 -2 -1 -1 0 -1 0 -2 0 -1 -1 23 -147 2 0 3 1 2 0 3 1 2 0 3 1 2 0 2 1 3 0 2 1 3 0 2 1 3 0 2 1 2 1 3 0 2 1 2 1 3 0 2 1 3 1 2 1 2 0 2 1 3 1 2 1 2 1 3 1 2 1 2 0 3 1 2 1 0 0zm0 0c38,17 55,60 39,98 -16,38 -60,56 -98,39l59 -137zm72 61l-124 82 -2 -3 0 0 0 0 0 0 0 0 0 0 0 0 0 0 0 0 0 0 0 0 0 0 0 0 0 0 0 0 0 0 0 0 0 0 0 0 0 0 -1 0 0 0 0 -1 0 0 -1 0 0 0 0 0 -1 0 0 -1 0 0 -1 0 0 0 -1 -1 59 -137 3 2 2 1 3 1 3 1 2 2 3 1 3 2 2 1 3 2 3 2 2 1 3 2 2 2 3 2 2 2 3 2 2 2 2 2 2 2 3 2 2 2 2 3 2 2 2 2 2 3 2 2 2 3 2 2 2 3 2 2 1 3 2 3 -2 -3zm2 3c21,35 10,81 -25,102 -36,21 -82,10 -103,-26l128 -76zm5 98l-135 -63 0 0 0 1 -1 0 0 1 0 1 -1 2 0 1 0 1 -1 1 0 2 0 1 0 2 0 1 -1 2 0 2 0 1 0 2 1 2 0 1 0 2 0 2 1 2 0 1 1 2 0 1 1 2 0 1 1 2 0 1 1 1 1 1 0 1 1 1 124 -82 2 2 1 3 2 3 2 3 1 3 1 3 2 3 1 3 1 3 1 4 1 3 1 4 0 3 1 3 0 4 0 3 0 4 0 3 0 4 0 3 0 4 -1 3 0 3 -1 4 0 3 -1 3 -1 3 -1 3 -1 3 -1 2 -1 3 -2 3 0 0zm0 0c-17,37 -61,53 -99,36 -37,-17 -53,-62 -36,-99l135 63zm-90 58l0 -149 0 0 -1 0 -1 0 -2 0 -2 0 -2 1 -1 0 -2 0 -2 1 -2 1 -2 0 -2 1 -2 1 -2 1 -2 1 -2 1 -1 1 -2 1 -2 2 -1 1 -2 1 -1 2 -1 1 -2 1 -1 1 -1 2 0 1 -1 1 -1 1 0 1 -1 1 -1 1 0 1 135 63 -1 2 -1 3 -2 3 -1 3 -2 2 -2 3 -2 3 -2 3 -2 2 -2 3 -3 2 -3 3 -2 2 -3 3 -3 2 -3 2 -3 2 -4 2 -3 2 -4 2 -3 1 -4 2 -3 1 -4 1 -3 1 -4 1 -3 1 -4 0 -3 1 -4 0 -3 0 -4 0 0 0z"/>
    <path id="1" class="fil5" d="M1805 1343c-31,0 -73,8 -124,25 -51,16 -107,36 -168,58 -4,10 -9,22 -15,37 -6,15 -11,31 -14,46 -4,16 -5,31 -5,46 1,14 5,25 13,33 14,15 31,23 52,25 21,3 43,1 68,-5 25,-5 50,-13 75,-25 26,-11 51,-23 74,-37 23,-13 44,-26 63,-39 20,-12 35,-23 46,-32 12,-9 24,-19 37,-30 12,-11 23,-22 33,-32 5,-5 11,-8 17,-8 6,-1 12,0 16,3 4,4 7,8 9,14 2,6 1,12 -1,20 -10,25 -25,51 -45,77 -19,27 -39,50 -59,69 -24,25 -51,48 -82,70 -32,23 -64,41 -99,55 -34,15 -70,25 -106,30 -37,6 -73,4 -109,-4 -30,-7 -56,-19 -76,-36 -21,-17 -37,-37 -48,-61 -11,-23 -18,-49 -20,-77 -1,-27 1,-55 7,-82 -8,3 -16,5 -25,7 -9,2 -17,2 -24,0 -6,-1 -11,-5 -13,-10 -3,-6 -1,-15 4,-28 9,-23 26,-45 49,-65 24,-20 50,-40 79,-61 12,-19 25,-37 39,-54 13,-18 27,-35 41,-51l-39 15c-18,7 -32,9 -42,5 -10,-3 -17,-10 -21,-19 -3,-10 -4,-20 -1,-32 3,-12 8,-23 16,-33 19,-24 41,-44 66,-62 24,-18 50,-35 78,-49 28,-14 56,-26 86,-36 30,-9 59,-17 87,-23 25,-5 52,-9 80,-11 29,-3 57,-3 84,-1 28,2 54,7 80,16 26,8 49,21 69,38 11,9 18,18 22,26 4,8 5,15 3,21 -2,6 -7,10 -15,13 -8,3 -19,4 -33,2 -27,-4 -54,-5 -81,-3 -27,2 -54,6 -81,13 -27,6 -53,13 -80,21 -26,9 -52,17 -76,25 -17,14 -32,30 -47,48 -14,18 -27,36 -40,55 16,-2 34,-4 56,-4 21,-1 42,0 63,4 21,3 41,8 58,16 18,8 31,19 40,33 6,9 6,18 2,28 -5,10 -12,16 -23,16z"/>
   </g>
   <g>
    <path class="fil3" d="M2026 1753l-116 -94 0 0 1 -1 1 -1 0 -1 1 -1 1 -1 1 -1 1 -1 0 -1 1 -1 1 -1 1 -1 1 0 0 -1 1 -1 1 -1 1 -1 0 -1 1 0 1 -1 0 -1 1 -1 1 -1 0 0 1 -1 1 -1 0 -1 1 0 1 -1 1 -1 0 -1 1 -1 1 0 105 105 0 0 0 0 0 0 0 1 0 -1 0 1 -1 0 0 0 0 1 0 0 -1 0 0 1 0 0 -1 1 0 0 -1 1 0 0 -1 1 0 0 -1 1 0 1 -1 0 0 1 -1 1 -1 0 0 1 -1 1 -1 1 0 1 -1 1 -1 0 0 1 0 0zm-18 25l-128 -77 0 0 1 -1 1 -1 1 -2 1 -1 0 -1 1 -2 1 -1 1 -2 1 -1 1 -1 1 -2 1 -1 1 -1 1 -2 0 -1 1 -1 1 -2 1 -1 1 -1 1 -2 1 -1 1 -1 1 -1 1 -2 1 -1 1 -1 1 -1 1 -2 1 -1 1 -1 1 -2 1 -1 116 94 -1 1 -1 1 0 1 -1 0 0 1 -1 1 -1 1 0 0 -1 1 0 1 -1 1 0 0 -1 1 0 1 -1 1 -1 0 0 1 -1 1 0 1 -1 1 0 0 -1 1 0 1 -1 1 0 0 -1 1 0 1 -1 1 0 1 -1 0 0 1 -1 1 0 0zm-2 3l-148 -17 0 0 0 -2 0 -2 1 -3 0 -2 1 -2 0 -2 0 -2 1 -2 1 -2 0 -2 1 -2 0 -2 1 -3 1 -1 0 -2 1 -2 1 -2 1 -2 0 -2 1 -2 1 -2 1 -2 1 -2 1 -2 1 -1 0 -2 1 -2 1 -2 1 -1 1 -2 1 -2 1 -2 128 77 0 1 0 0 -1 0 0 1 0 0 0 1 0 0 -1 0 0 1 0 0 0 0 0 0 0 1 0 0 0 0 0 0 0 0 0 0 0 0 0 0 0 0 0 0 0 0 0 0 0 0 0 0 0 -1 0 0 0 0 0 0 0 0 0 -1 0 0zm0 0c-5,41 -42,70 -83,66 -41,-5 -70,-42 -65,-83l148 17zm-33 -56l-53 140 -3 -2 -3 -1 -2 -1 -3 -2 -3 -1 -3 -2 -3 -2 -3 -2 -3 -2 -3 -2 -3 -3 -3 -2 -2 -3 -3 -3 -3 -3 -2 -4 -3 -3 -2 -4 -2 -4 -2 -3 -2 -4 -1 -4 -2 -5 -1 -4 -1 -4 -1 -4 0 -4 -1 -4 0 -4 0 -4 0 -4 0 -3 1 -4 148 17 0 -1 0 -2 0 -2 0 -2 0 -2 0 -3 0 -2 -1 -3 0 -2 -1 -3 -1 -2 -1 -3 -1 -2 -1 -3 -2 -2 -1 -2 -1 -2 -2 -2 -2 -2 -1 -2 -2 -1 -1 -2 -2 -1 -1 -1 -2 -1 -1 -1 -1 -1 -1 -1 -1 0 -1 -1 -1 0 -1 -1 -3 -1zm3 1c38,17 55,61 39,98 -16,38 -60,56 -98,39l59 -137zm0 -2l16 149 0 0 -3 0 -2 0 -2 0 -2 0 -2 0 -2 1 -3 0 -2 0 -2 0 -2 0 -2 0 -3 0 -2 0 -2 -1 -2 0 -2 0 -3 0 -2 -1 -2 0 -3 0 -2 0 -2 -1 -3 0 -2 -1 -2 0 -2 -1 -3 -1 -2 0 -2 -1 -3 -1 -2 -1 -2 0 53 -140 0 0 0 0 -1 0 0 0 0 0 -1 0 0 0 0 0 0 0 0 0 0 0 -1 0 1 0 0 0 -1 0 0 0 1 0 0 0 0 0 0 0 0 0 0 0 1 0 0 0 0 0 1 0 0 0 1 0 0 -1 0 0 1 0 1 0 0 0zm32 -6l40 143 0 0 -1 1 -2 0 -2 1 -2 0 -1 1 -2 0 -2 1 -2 0 -2 1 -1 0 -2 0 -2 1 -2 0 -1 1 -2 0 -2 0 -2 1 -1 0 -2 0 -2 1 -2 0 -2 0 -1 0 -2 1 -2 0 -2 0 -2 1 -1 0 -2 0 -2 0 -2 0 -1 1 -16 -149 0 0 1 0 1 0 1 0 1 0 1 0 1 -1 1 0 1 0 1 0 1 0 1 0 1 0 1 -1 1 0 1 0 1 0 1 0 1 -1 1 0 1 0 1 0 1 -1 1 0 2 0 1 0 1 -1 1 0 1 0 1 -1 1 0 1 0 0 0zm38 -12l52 139 0 0 -2 1 -1 1 -2 0 -1 1 -2 0 -1 1 -2 0 -1 1 -2 0 -1 1 -2 0 -1 1 -2 0 -1 1 -2 0 -1 1 -2 0 -2 1 -1 0 -2 1 -1 0 -2 1 -1 0 -2 1 -1 0 -2 1 -2 0 -1 1 -2 0 -1 1 -2 0 -2 0 -40 -143 1 0 2 -1 1 0 1 -1 1 0 2 0 1 -1 1 0 1 0 1 -1 2 0 1 -1 1 0 1 0 1 -1 2 0 1 0 1 -1 1 0 1 -1 1 0 2 0 1 -1 1 0 1 -1 1 0 1 0 1 -1 1 0 2 -1 1 0 1 0 0 0zm26 -10l64 134 -4 2 -1 1 -1 0 -1 0 -1 1 -1 0 0 1 -1 0 -1 0 -1 1 -1 0 -1 0 -1 1 -1 0 -1 1 -1 0 -1 0 -1 1 -2 0 -1 1 -1 0 -1 0 -1 1 -1 0 -1 1 -1 0 -2 1 -1 0 -1 1 -1 0 -2 0 -1 1 -1 0 -52 -139 1 -1 1 0 1 -1 2 0 1 -1 1 0 1 0 1 -1 1 0 1 -1 1 0 1 0 2 -1 1 0 0 -1 1 0 1 0 1 -1 1 0 1 0 1 -1 1 0 1 0 0 -1 1 0 1 0 1 -1 1 0 0 0 1 0 1 -1 0 0 -4 2zm4 -2c39,-15 82,3 97,42 16,38 -3,81 -41,96l-56 -138zm51 -27l74 129 0 0 -2 1 -2 1 -2 2 -2 1 -2 1 -2 1 -2 1 -2 1 -2 1 -2 2 -2 1 -2 1 -2 1 -2 1 -2 1 -2 1 -2 1 -2 1 -3 1 -2 1 -2 1 -2 1 -2 2 -2 1 -2 1 -2 1 -2 1 -2 1 -2 1 -2 1 -2 1 -2 0 -64 -134 1 -1 2 -1 2 0 1 -1 2 -1 2 -1 1 -1 2 -1 2 0 2 -1 1 -1 2 -1 2 -1 1 -1 2 -1 2 -1 1 -1 2 0 2 -1 2 -1 1 -1 2 -1 2 -1 2 -1 1 -1 2 -1 2 -1 2 -1 1 -1 2 -1 2 -1 2 -1 0 0zm48 -33l93 116 0 0 -2 2 -2 1 -2 2 -2 2 -2 1 -2 2 -2 1 -2 2 -2 1 -2 2 -2 1 -2 2 -2 1 -2 2 -2 1 -2 1 -2 2 -2 1 -3 2 -2 1 -2 1 -2 2 -2 1 -2 2 -2 1 -3 1 -2 2 -2 1 -2 1 -2 2 -3 1 -2 1 -74 -129 1 -1 2 -1 1 -1 2 -1 2 -1 1 -1 2 -1 1 -1 2 -1 1 -1 2 -1 1 -1 2 -1 1 -1 2 -1 2 -1 1 -1 1 -1 2 -1 1 -1 2 -1 1 -1 2 -1 1 -1 2 -1 1 -1 2 -1 1 -1 2 -2 1 -1 1 -1 2 -1 0 0zm41 -38l110 100 0 0 -1 2 -2 1 -2 2 -2 2 -1 2 -2 2 -2 1 -1 2 -2 2 -2 2 -2 1 -1 2 -2 2 -2 2 -2 1 -2 2 -1 2 -2 1 -2 2 -2 2 -2 1 -2 2 -1 2 -2 1 -2 2 -2 2 -2 1 -2 2 -2 1 -2 2 -2 2 -2 1 -93 -116 1 -1 2 -1 1 -1 1 -2 2 -1 1 -1 1 -1 2 -1 1 -1 1 -2 2 -1 1 -1 1 -1 2 -1 1 -1 1 -2 2 -1 1 -1 1 -1 1 -1 1 -2 2 -1 1 -1 1 -1 1 -2 2 -1 1 -1 1 -1 1 -1 1 -2 1 -1 2 -1 0 0zm0 0c27,-31 74,-33 105,-6 30,28 33,75 5,106l-110 -100zm25 -37l132 70 0 0 -1 2 -1 2 -1 2 -2 3 -1 2 -1 2 -1 2 -2 2 -1 2 -1 3 -2 2 -1 2 -2 2 -1 2 -1 2 -2 2 -1 3 -2 2 -1 2 -2 2 -2 2 -1 2 -2 2 -1 2 -2 2 -2 2 -1 2 -2 2 -2 2 -1 2 -2 2 -2 2 -110 -100 1 -1 1 -2 1 -1 1 -1 1 -1 0 -1 1 -1 1 -1 1 -2 1 -1 1 -1 1 -1 1 -1 1 -1 0 -1 1 -1 1 -2 1 -1 0 -1 1 -1 1 -1 1 -1 0 -1 1 -1 1 -2 0 -1 1 -1 1 -1 0 -1 1 -1 1 -1 0 -1 0 -1zm0 1c19,-37 64,-51 101,-32 36,19 50,64 31,101l-132 -69zm5 -15l148 18 0 0 0 2 0 2 -1 2 0 3 0 2 -1 2 0 2 -1 2 0 2 -1 2 0 3 -1 2 0 2 -1 2 -1 2 0 2 -1 2 -1 2 0 2 -1 2 -1 2 -1 2 -1 2 0 2 -1 2 -1 2 -1 2 -1 2 -1 2 -1 2 -1 2 -1 2 -132 -70 1 0 0 -1 0 -1 0 0 1 -1 0 0 0 -1 0 0 1 -1 0 0 0 -1 0 0 0 -1 1 0 0 0 0 -1 0 0 0 -1 0 0 0 -1 0 0 0 0 1 -1 0 0 0 0 0 -1 0 0 0 0 0 -1 0 0 0 0 0 -1 0 0zm2 7l135 -65 0 0 1 2 1 3 1 2 1 3 1 2 0 2 1 3 1 2 1 3 0 2 1 2 0 3 1 2 0 3 1 2 0 2 0 3 1 2 0 3 0 2 0 2 0 3 0 2 0 2 0 3 0 2 0 2 0 3 0 2 0 2 0 3 -1 2 -148 -18 0 0 0 0 0 0 0 0 0 0 0 -1 0 1 0 -1 0 0 0 1 0 0 0 0 0 0 0 0 0 0 0 1 0 0 0 0 0 0 0 1 1 0 0 0 0 1 0 0 0 1 0 0 0 0 0 1 1 0 0 1 0 0 0 1 0 0zm8 9l73 -130 0 0 2 1 2 1 2 1 2 2 2 1 2 1 2 2 2 1 2 2 2 1 2 2 1 1 2 2 2 2 2 1 2 2 1 2 2 2 2 2 1 2 2 2 2 2 1 2 1 2 2 2 1 2 2 2 1 2 1 2 1 3 2 2 1 2 -135 65 1 0 0 1 0 0 0 1 0 0 1 0 0 1 0 0 1 1 0 0 0 1 1 0 0 0 0 1 1 0 0 0 0 1 0 0 1 0 0 0 0 1 1 0 0 0 0 0 0 0 0 1 1 0 0 0 0 0 0 0 0 0 0 0 0 0zm4 3l-16 -149 1 0 2 0 3 0 3 0 2 0 3 -1 2 0 3 0 2 0 3 1 3 0 2 0 3 0 2 0 3 1 3 0 2 0 3 1 3 0 2 1 3 0 3 1 2 1 3 1 3 1 2 0 3 1 3 2 2 1 3 1 3 1 2 1 3 2 -73 130 1 0 0 1 1 0 1 0 0 0 1 1 0 0 0 0 1 0 0 0 1 0 0 0 0 0 0 1 1 0 0 0 0 0 0 0 0 0 0 0 0 0 0 0 0 0 -1 0 0 0 0 0 -1 0 0 0 0 0 -1 0 0 0 -1 0 1 0zm-1 0c-41,4 -77,-26 -81,-67 -4,-41 26,-78 67,-82l14 149zm-53 14l-54 -139 0 0 3 -1 3 -1 2 -2 3 -1 3 -1 3 -1 3 -1 3 -1 3 0 3 -1 3 -1 3 -1 2 -1 3 -1 3 -1 3 0 3 -1 3 -1 3 0 3 -1 3 -1 2 0 3 -1 3 0 3 -1 3 0 3 -1 3 0 3 -1 3 0 3 0 2 -1 16 149 -2 0 -1 0 -1 0 -2 0 -1 1 -2 0 -1 0 -2 0 -1 1 -2 0 -2 0 -1 1 -2 0 -2 0 -1 1 -2 0 -2 1 -1 0 -2 1 -2 0 -2 1 -1 0 -2 1 -2 0 -2 1 -2 1 -2 0 -2 1 -1 1 -2 0 -2 1 -2 1 0 0zm-88 27l-35 -145 0 0 2 0 2 -1 2 0 2 -1 3 0 2 -1 2 0 2 -1 2 -1 2 0 2 -1 2 0 3 -1 2 -1 2 0 2 -1 2 -1 2 0 2 -1 3 -1 2 -1 2 0 2 -1 2 -1 2 -1 3 0 2 -1 2 -1 2 -1 2 -1 2 0 3 -1 54 139 -3 1 -3 1 -3 1 -2 1 -3 1 -3 1 -3 1 -2 1 -3 1 -3 1 -2 1 -3 1 -3 1 -3 0 -2 1 -3 1 -3 1 -3 1 -2 1 -3 1 -3 0 -3 1 -2 1 -3 1 -3 1 -3 0 -2 1 -3 1 -3 0 -3 1 -2 1 -3 0 0 0zm-103 6l23 -148 0 0 1 1 1 0 1 0 2 0 1 0 1 0 1 0 2 0 1 0 1 0 2 0 1 0 1 0 2 0 1 0 1 0 2 0 1 0 2 0 1 0 2 0 1 -1 2 0 1 0 2 0 1 0 2 -1 1 0 2 0 2 -1 1 0 2 -1 35 145 -3 1 -3 1 -4 1 -3 0 -3 1 -3 0 -3 1 -4 0 -3 1 -3 0 -3 1 -3 0 -4 0 -3 1 -3 0 -3 0 -3 0 -4 0 -3 1 -3 0 -3 0 -4 0 -3 -1 -3 0 -3 0 -3 0 -4 0 -3 -1 -3 0 -3 0 -3 -1 -4 0 0 0zm0 0c-40,-6 -68,-44 -62,-85 6,-41 44,-69 85,-63l-23 148zm-112 -77l125 -82 -1 0 1 1 1 1 1 1 1 1 1 1 0 1 1 1 1 1 0 0 1 1 0 0 1 1 0 0 1 0 0 1 0 0 0 0 1 0 0 0 0 0 0 0 0 0 0 0 0 0 0 0 0 0 0 0 0 0 0 0 0 0 0 0 0 0 -23 148 -4 -1 -4 -1 -5 -1 -4 -1 -4 -1 -5 -2 -4 -1 -4 -2 -4 -2 -4 -1 -4 -2 -4 -3 -4 -2 -4 -2 -3 -3 -4 -2 -4 -3 -3 -2 -3 -3 -4 -3 -3 -3 -3 -3 -3 -3 -3 -3 -3 -3 -2 -3 -3 -4 -3 -3 -2 -3 -3 -4 -2 -3 -3 -4 0 0zm0 0c-23,-34 -13,-80 21,-103 34,-23 81,-14 103,21l-124 82zm-29 -141l146 29 0 0 0 1 0 1 0 1 0 1 0 1 0 1 0 1 0 0 0 1 0 1 0 1 0 0 0 1 0 1 0 1 0 1 0 0 1 1 0 1 0 1 0 1 1 1 0 1 1 1 0 1 1 1 0 1 1 1 0 1 1 1 1 2 1 1 -125 82 -2 -4 -3 -4 -2 -4 -2 -4 -2 -4 -3 -4 -1 -4 -2 -4 -2 -4 -2 -5 -1 -4 -2 -4 -1 -5 -1 -4 -2 -5 -1 -4 -1 -5 0 -4 -1 -5 -1 -5 0 -4 0 -5 0 -4 -1 -5 0 -5 1 -4 0 -5 0 -5 1 -4 0 -5 1 -4 1 -5 0 0zm49 -112l122 85 0 0 -1 2 -1 2 -1 1 -1 2 -2 2 -1 2 -1 2 -1 1 -1 2 -1 2 -1 2 -1 1 0 2 -1 2 -1 2 -1 2 -1 1 0 2 -1 2 -1 2 0 1 -1 2 -1 2 0 2 -1 1 0 2 -1 2 0 1 -1 2 0 2 0 2 -1 1 -146 -29 1 -4 1 -3 1 -4 0 -4 1 -3 1 -4 2 -4 1 -3 1 -4 1 -4 1 -3 2 -4 1 -4 2 -3 1 -4 2 -3 1 -4 2 -3 1 -4 2 -3 2 -4 2 -3 1 -3 2 -4 2 -3 2 -4 2 -3 2 -3 2 -4 3 -3 2 -3 2 -3 0 0zm78 -88l99 112 0 0 -2 2 -2 2 -2 2 -2 1 -2 2 -2 2 -2 2 -1 1 -2 2 -2 2 -2 2 -2 2 -1 2 -2 2 -2 1 -2 2 -1 2 -2 2 -2 2 -1 2 -2 2 -1 2 -2 2 -2 2 -1 2 -2 2 -1 2 -2 2 -1 2 -2 2 -1 2 -2 2 -122 -85 2 -3 2 -3 2 -3 3 -3 2 -3 2 -3 2 -3 2 -3 3 -3 2 -3 2 -2 3 -3 2 -3 3 -3 2 -3 2 -2 3 -3 2 -3 3 -2 2 -3 3 -3 2 -2 3 -3 3 -3 2 -2 3 -3 3 -2 2 -3 3 -2 3 -3 3 -2 2 -3 0 0zm77 -59l83 124 -1 0 -1 1 -2 1 -2 1 -1 1 -2 2 -2 1 -1 1 -2 1 -2 1 -1 2 -2 1 -2 1 -2 2 -2 1 -1 2 -2 1 -2 2 -2 1 -2 2 -2 1 -2 2 -2 1 -2 2 -2 2 -2 1 -2 2 -2 2 -3 2 -2 2 -2 2 -2 1 -2 2 -99 -112 3 -2 3 -2 2 -2 3 -3 2 -2 3 -2 2 -2 3 -2 2 -2 2 -2 3 -2 2 -2 3 -2 2 -2 3 -2 2 -2 2 -2 3 -1 2 -2 3 -2 2 -2 2 -2 3 -1 2 -2 2 -2 3 -1 2 -2 2 -1 3 -2 2 -2 2 -1 3 -2 -1 1zm1 -1c34,-22 80,-12 103,22 22,35 13,81 -22,103l-81 -125zm90 -50l64 134 0 0 -2 1 -3 2 -3 1 -2 1 -3 2 -2 1 -3 1 -2 1 -3 2 -2 1 -2 1 -3 2 -2 1 -3 1 -2 1 -2 2 -2 1 -3 1 -2 1 -2 2 -2 1 -2 1 -2 2 -3 1 -2 1 -2 1 -2 2 -2 1 -2 1 -2 1 -1 2 -2 1 -83 -124 2 -2 3 -2 3 -1 2 -2 3 -2 2 -1 3 -2 3 -2 2 -1 3 -2 3 -1 3 -2 2 -2 3 -1 3 -2 3 -1 3 -2 3 -2 2 -1 3 -2 3 -1 3 -2 3 -1 3 -2 3 -2 3 -1 3 -2 3 -1 3 -2 3 -1 3 -2 4 -1 0 0zm110 -40l35 145 0 0 -3 1 -3 1 -2 0 -3 1 -2 1 -3 0 -2 1 -3 1 -2 1 -3 0 -2 1 -3 1 -2 1 -3 1 -2 1 -3 1 -2 0 -3 1 -2 1 -3 1 -2 1 -3 1 -2 1 -3 1 -2 1 -3 1 -2 1 -3 2 -2 1 -3 1 -2 1 -3 1 -64 -134 3 -2 3 -1 4 -2 3 -1 3 -2 4 -1 3 -2 3 -1 4 -2 3 -1 4 -1 3 -2 4 -1 3 -1 3 -2 4 -1 3 -1 4 -1 3 -1 4 -2 3 -1 3 -1 4 -1 4 -1 3 -1 4 -1 3 -1 4 -1 3 -1 4 -1 3 -1 4 -1 0 0zm119 -10l-10 149 0 0 -3 0 -2 0 -2 0 -3 0 -2 0 -2 -1 -2 0 -3 0 -2 0 -2 1 -2 0 -3 0 -2 0 -2 0 -3 0 -2 0 -2 1 -3 0 -2 0 -2 0 -3 1 -2 0 -2 0 -3 1 -2 0 -2 0 -3 1 -2 0 -2 1 -3 0 -2 1 -2 0 -35 -145 3 0 4 -1 4 -1 4 -1 3 -1 4 0 4 -1 3 -1 4 0 4 -1 4 0 3 -1 4 0 4 -1 4 0 3 0 4 -1 4 0 4 0 3 0 4 0 4 -1 4 0 3 0 4 0 4 0 4 0 3 1 4 0 4 0 4 0 3 0 0 0zm128 49l-92 117 1 1 -2 -1 -1 -1 -1 -1 -2 -1 -1 -1 -2 -1 -1 -1 -1 0 -2 -1 -1 -1 -1 -1 -2 0 -1 -1 -2 0 -1 -1 -2 -1 -1 0 -1 -1 -2 0 -1 -1 -2 0 -1 0 -2 -1 -1 0 -2 0 -2 -1 -1 0 -2 0 -1 0 -2 -1 -2 0 -1 0 10 -149 5 1 4 0 4 1 5 0 4 1 4 1 4 0 4 1 5 1 4 1 4 1 4 1 4 2 4 1 4 1 4 2 4 1 4 2 4 2 4 2 4 1 4 2 4 2 3 2 4 2 4 3 3 2 4 2 4 3 3 2 4 3 3 2 1 1zm-1 -1c33,25 39,72 14,105 -24,32 -71,39 -104,14l90 -119zm47 63l-141 49 0 0 0 1 1 0 0 1 0 0 0 1 1 0 0 1 0 0 0 1 0 0 1 0 0 1 0 0 0 0 0 0 1 1 0 0 0 0 0 0 0 0 0 0 0 0 0 0 0 0 0 0 0 0 0 0 0 0 0 0 -1 0 0 -1 0 0 92 -117 2 1 2 2 1 1 2 2 2 1 2 2 1 2 2 1 2 2 1 1 2 2 2 2 1 2 2 2 1 2 2 2 1 2 2 2 1 2 1 2 2 2 1 2 1 2 2 2 1 3 1 2 1 2 1 3 1 2 1 2 1 3 1 2 0 0zm1 78l-141 -47 0 0 -1 0 0 1 0 0 0 1 0 1 0 0 -1 1 0 1 0 0 0 1 0 1 0 0 0 1 0 1 0 1 0 0 0 1 0 1 0 0 0 1 0 0 0 1 0 0 0 1 0 0 1 1 0 0 0 1 0 0 0 1 0 0 0 0 141 -49 1 3 1 2 0 2 1 2 1 3 0 2 1 2 0 3 0 2 1 3 0 2 0 2 1 3 0 2 0 3 0 2 0 3 0 2 0 3 0 2 0 3 -1 2 0 3 0 2 -1 3 0 2 -1 3 0 2 -1 3 0 2 -1 2 -1 3 0 0zm-41 59l-95 -116 0 0 0 0 0 0 0 0 0 0 0 1 0 0 0 0 -1 0 0 0 0 0 0 1 0 0 0 0 -1 0 0 1 0 0 0 0 -1 1 0 0 0 0 0 1 -1 0 0 1 0 0 0 0 0 1 -1 0 0 1 0 0 0 1 0 0 0 1 141 47 -1 2 -1 2 0 2 -1 2 -1 3 -1 2 -1 2 -1 2 -1 2 -1 2 -1 2 -2 2 -1 2 -1 2 -1 2 -2 2 -1 2 -2 1 -1 2 -1 2 -2 2 -1 1 -2 2 -1 2 -2 1 -1 2 -2 1 -2 2 -1 1 -2 2 -1 1 -2 2 0 0zm-63 30l-32 -146 -2 1 0 0 0 0 1 0 0 -1 0 0 0 0 1 0 0 0 0 0 0 0 0 0 1 0 0 0 0 0 0 0 0 0 0 0 0 0 0 0 0 0 0 0 0 0 0 0 0 0 0 0 0 0 0 0 0 0 0 0 0 0 -1 0 0 0 95 116 -2 1 -2 1 -1 2 -2 1 -2 1 -2 1 -1 2 -2 1 -2 1 -2 1 -2 1 -2 1 -2 1 -2 1 -1 1 -2 1 -2 1 -2 1 -2 1 -2 1 -2 0 -2 1 -2 1 -2 1 -2 0 -2 1 -2 1 -2 0 -2 1 -2 0 -2 1 -2 0 -2 1zm2 -1c-40,10 -80,-14 -90,-54 -10,-40 14,-80 54,-90l36 144zm-144 47l-56 -139 0 0 5 -2 6 -2 5 -2 5 -2 6 -2 5 -2 5 -2 6 -2 5 -2 5 -2 5 -2 6 -1 5 -2 5 -2 5 -2 5 -1 5 -2 6 -2 5 -1 5 -2 5 -1 5 -2 5 -1 5 -2 5 -1 5 -1 5 -2 5 -1 6 -1 5 -1 5 -2 5 -1 32 146 -4 1 -4 1 -4 1 -4 1 -4 1 -5 1 -4 1 -4 1 -5 1 -4 2 -4 1 -5 1 -4 2 -4 1 -5 1 -4 2 -5 1 -4 2 -5 1 -4 2 -5 1 -4 2 -5 1 -4 2 -5 2 -5 2 -4 1 -5 2 -5 2 -4 2 -5 2 -5 2 0 0zm-127 71l-93 -117 1 -1 5 -3 4 -3 5 -4 5 -3 4 -4 5 -3 5 -3 5 -3 5 -3 4 -4 5 -3 5 -3 5 -3 5 -3 5 -3 5 -3 6 -2 5 -3 5 -3 5 -3 5 -2 6 -3 5 -3 5 -2 6 -3 5 -2 5 -3 6 -2 5 -3 6 -2 5 -2 6 -3 56 139 -4 1 -5 2 -4 2 -5 2 -4 2 -5 2 -4 2 -4 2 -4 2 -5 2 -4 2 -4 3 -4 2 -4 2 -4 2 -4 2 -4 3 -4 2 -4 2 -4 3 -4 2 -4 2 -4 3 -3 2 -4 3 -4 2 -3 3 -4 2 -4 3 -3 3 -4 2 -3 3 1 -1zm-1 1c-33,25 -80,19 -105,-14 -25,-33 -19,-80 14,-105l91 119zm-8 -30l-146 31 0 -1 -2 -7 0 -8 0 -7 1 -7 1 -6 1 -6 2 -5 2 -5 2 -5 2 -4 2 -4 2 -3 2 -4 2 -3 3 -3 2 -3 2 -2 2 -3 3 -3 2 -2 2 -3 3 -2 2 -2 3 -3 2 -2 3 -2 2 -3 3 -2 3 -2 3 -2 2 -3 3 -2 93 117 -2 2 -2 1 -2 2 -1 1 -2 1 -1 1 -1 1 -2 1 -1 1 0 1 -1 1 -1 1 0 0 -1 0 0 1 0 0 0 0 0 -1 1 0 0 -1 1 -1 1 -1 1 -2 1 -2 1 -3 1 -3 1 -4 0 -4 1 -5 0 -5 -1 -6 0 -6 0 0zm-44 -60l53 139 0 0 -4 2 -4 1 -4 1 -3 2 -4 1 -4 1 -3 1 -4 1 -3 1 -4 1 -3 1 -4 1 -4 0 -3 1 -4 1 -4 0 -4 0 -5 1 -5 0 -5 0 -5 -1 -6 -1 -7 -1 -7 -3 -8 -3 -8 -4 -8 -6 -8 -8 -8 -9 -5 -9 -5 -10 -2 -10 146 -31 -3 -8 -3 -9 -5 -8 -7 -8 -6 -6 -7 -5 -7 -3 -6 -3 -5 -1 -4 -2 -4 0 -3 0 -2 0 -2 0 -1 0 -1 0 0 0 0 0 0 0 0 0 1 -1 1 0 1 0 2 0 1 -1 2 0 2 -1 2 -1 2 -1 3 0 2 -1 3 -1 0 0zm114 -25l11 149 0 0 -2 0 -3 0 -2 0 -3 1 -2 0 -3 0 -2 1 -3 0 -2 0 -2 1 -3 0 -2 0 -2 1 -2 0 -3 1 -2 0 -2 1 -3 0 -2 1 -2 0 -2 1 -2 0 -2 1 -3 1 -2 0 -2 1 -2 1 -2 0 -2 1 -2 1 -2 0 -2 1 -53 -139 3 -2 4 -1 3 -1 4 -1 3 -1 4 -1 3 -2 4 -1 3 -1 3 -1 4 0 4 -1 3 -1 4 -1 3 -1 4 -1 3 0 4 -1 4 -1 3 -1 4 0 3 -1 4 0 4 -1 3 0 4 -1 4 0 4 -1 3 0 4 0 4 -1 3 0 0 0zm127 19l-54 139 0 0 -2 -1 -2 0 -2 -1 -1 -1 -2 0 -2 -1 -2 0 -2 -1 -2 0 -1 -1 -2 0 -2 -1 -2 0 -2 0 -2 -1 -2 0 -2 0 -2 -1 -1 0 -2 0 -2 0 -2 0 -2 0 -2 0 -2 -1 -2 0 -3 0 -2 0 -2 1 -2 0 -2 0 -2 0 -11 -149 5 0 4 0 4 -1 4 0 4 0 4 0 4 0 4 1 4 0 4 0 4 0 4 1 4 0 4 0 4 1 4 0 4 1 4 1 4 1 4 0 4 1 4 1 4 1 4 1 4 1 4 1 4 1 3 2 4 1 4 1 4 2 4 1 -1 0zm1 0c38,15 57,59 42,97 -15,38 -59,57 -97,42l55 -139zm111 87l-125 81 0 0 -1 -1 0 -1 -1 -1 -1 -1 0 -1 -1 0 -1 -1 -1 -1 -1 -1 -1 -1 -1 -1 -1 -1 -1 -1 -1 -1 -1 -1 -1 -1 -1 0 -1 -1 -2 -1 -1 -1 -2 -1 -1 -1 -2 -1 -1 -1 -2 -1 -2 -1 -1 -1 -2 0 -2 -1 -2 -1 -2 -1 -3 -1 54 -139 4 2 5 1 4 2 4 2 4 2 4 2 4 2 4 2 4 2 4 3 4 2 4 2 3 3 4 2 4 3 3 3 4 3 3 2 4 3 3 3 4 3 3 3 3 4 3 3 3 3 3 4 3 3 3 4 3 3 2 4 3 3 2 4 0 0zm41 117l-149 14 0 0 0 -2 0 -2 0 -1 -1 -2 0 -2 0 -1 -1 -2 0 -2 0 -1 -1 -2 0 -1 0 -2 -1 -1 0 -2 -1 -1 0 -2 -1 -2 0 -1 -1 -2 -1 -1 0 -2 -1 -1 -1 -1 0 -2 -1 -1 -1 -2 -1 -1 0 -2 -1 -1 -1 -2 -1 -1 -1 -2 125 -81 2 4 2 3 2 3 2 4 2 3 2 4 2 3 2 3 1 4 2 4 2 3 1 4 2 3 1 4 1 4 2 3 1 4 1 4 1 4 1 3 1 4 1 4 1 4 1 3 1 4 1 4 0 4 1 4 0 4 1 4 0 3 1 4 0 0zm-13 121l-143 -42 0 0 1 -2 0 -3 1 -2 0 -2 1 -2 0 -2 1 -2 0 -3 1 -2 0 -2 0 -2 1 -2 0 -2 0 -2 1 -2 0 -2 0 -2 0 -2 0 -2 1 -2 0 -2 0 -2 0 -2 0 -2 0 -2 0 -2 0 -2 0 -2 0 -1 -1 -2 0 -2 0 -2 149 -14 0 4 0 4 1 4 0 3 0 4 0 4 0 4 0 4 0 3 0 4 0 4 -1 4 0 4 0 3 0 4 -1 4 0 4 -1 4 0 3 -1 4 0 4 -1 4 -1 3 -1 4 0 4 -1 4 -1 3 -1 4 -1 4 -1 4 -1 3 -1 4 0 0zm-48 106l-125 -81 0 0 1 -2 1 -1 1 -2 1 -2 1 -2 2 -2 1 -2 1 -2 1 -2 1 -2 1 -2 1 -2 1 -2 1 -2 1 -2 1 -2 1 -2 1 -2 0 -3 1 -2 1 -2 1 -2 1 -2 1 -3 1 -2 0 -2 1 -2 1 -3 1 -2 0 -2 1 -3 1 -2 143 42 -1 4 -1 3 -1 4 -1 3 -2 4 -1 3 -1 4 -1 3 -2 3 -1 4 -1 3 -2 4 -1 3 -1 3 -2 4 -1 3 -2 3 -1 3 -2 4 -1 3 -2 3 -2 3 -1 4 -2 3 -2 3 -1 3 -2 3 -2 3 -2 3 -2 3 -1 3 -2 3 -1 1zm1 -1c-22,35 -69,45 -103,23 -35,-22 -45,-68 -23,-103l126 80zm-103 116l-95 -115 0 0 3 -2 2 -2 3 -3 2 -2 3 -2 2 -2 3 -3 2 -2 3 -2 2 -3 2 -2 3 -3 2 -2 2 -2 3 -3 2 -2 2 -3 2 -3 3 -2 2 -3 2 -2 2 -3 2 -3 2 -2 2 -3 2 -3 2 -3 2 -3 2 -2 2 -3 2 -3 2 -3 125 81 -2 4 -3 4 -3 4 -3 4 -2 4 -3 4 -3 4 -3 4 -3 3 -3 4 -3 4 -3 4 -3 4 -3 3 -3 4 -3 3 -4 4 -3 4 -3 3 -3 4 -4 3 -3 4 -4 3 -3 3 -4 4 -3 3 -4 3 -3 3 -4 4 -3 3 -4 3 -4 3 0 0zm-122 80l-70 -131 1 -1 3 -1 4 -2 3 -2 3 -1 3 -2 3 -2 3 -2 4 -2 3 -1 3 -2 3 -2 3 -2 3 -2 3 -2 3 -2 3 -2 3 -2 3 -2 3 -2 3 -2 3 -2 3 -2 3 -2 3 -2 2 -3 3 -2 3 -2 3 -2 3 -2 3 -3 2 -2 3 -2 95 115 -3 3 -4 3 -3 3 -4 2 -4 3 -3 3 -4 3 -4 2 -3 3 -4 3 -4 3 -4 2 -3 3 -4 2 -4 3 -4 3 -4 2 -3 3 -4 2 -4 2 -4 3 -4 2 -4 3 -4 2 -4 2 -4 3 -4 2 -4 2 -4 2 -4 2 -4 3 -4 2 0 -1zm0 1c-37,19 -82,5 -101,-32 -19,-36 -4,-82 32,-101l69 133zm-93 40l-50 -140 0 0 3 -1 2 -1 3 -1 2 -1 3 -1 2 -1 3 -1 2 -1 2 -1 3 -1 2 -1 3 -1 2 -1 2 -1 3 -1 2 -1 2 -1 3 -1 2 -1 2 -1 2 -1 2 -1 3 -1 2 -1 2 -1 2 -1 2 -1 2 -1 2 -1 2 -1 2 -1 2 -1 70 131 -2 2 -3 1 -3 2 -2 1 -3 2 -3 1 -3 1 -2 2 -3 1 -3 1 -3 2 -3 1 -3 1 -3 2 -2 1 -3 1 -3 1 -3 2 -3 1 -3 1 -3 1 -3 2 -3 1 -3 1 -3 1 -3 1 -3 2 -3 1 -3 1 -3 1 -4 1 -3 1 0 0zm0 0c-38,14 -81,-6 -95,-45 -14,-39 6,-81 45,-95l50 140zm-108 26l-19 -148 0 0 2 0 3 0 2 -1 3 0 2 0 3 -1 2 0 2 -1 3 0 2 -1 3 0 2 0 2 -1 3 -1 2 0 3 -1 2 0 2 -1 3 0 2 -1 3 -1 2 0 2 -1 3 -1 2 -1 3 0 2 -1 2 -1 3 -1 2 0 2 -1 3 -1 50 140 -3 1 -3 2 -4 1 -3 1 -3 1 -4 1 -3 1 -3 1 -4 1 -3 1 -4 1 -3 1 -3 1 -4 1 -3 1 -4 0 -3 1 -3 1 -4 1 -3 0 -4 1 -3 1 -3 1 -4 0 -3 1 -4 0 -3 1 -4 0 -3 1 -4 0 -3 1 -3 0 0 0zm-114 -1l23 -148 0 0 2 1 2 0 3 0 2 1 2 0 2 0 2 0 3 1 2 0 2 0 2 0 3 0 2 0 2 0 2 0 3 0 2 0 2 0 2 0 3 0 2 0 2 0 2 0 3 0 2 0 2 0 2 0 3 -1 2 0 2 0 3 0 2 -1 19 148 -4 1 -4 0 -3 1 -4 0 -3 0 -4 1 -3 0 -4 0 -3 0 -4 0 -4 0 -3 1 -4 0 -3 0 -4 0 -3 0 -4 0 -3 -1 -4 0 -4 0 -3 0 -4 0 -3 0 -4 -1 -3 0 -4 0 -3 -1 -4 0 -3 -1 -4 0 -3 -1 -4 0 0 0zm0 0c-41,-6 -68,-44 -62,-85 6,-41 44,-69 85,-63l-23 148zm-115 -48l87 -122 1 1 1 1 2 1 1 1 2 1 1 1 2 1 1 1 2 1 1 1 2 1 1 1 2 0 1 1 2 1 1 0 2 1 1 1 2 0 1 1 2 1 2 0 1 1 2 0 1 1 2 0 2 0 1 1 2 0 2 1 1 0 2 0 2 0 -23 148 -4 -1 -4 0 -4 -1 -4 -1 -3 -1 -4 -1 -4 -1 -4 -1 -4 -1 -4 -1 -4 -1 -3 -2 -4 -1 -4 -1 -4 -2 -3 -1 -4 -2 -4 -2 -3 -1 -4 -2 -3 -2 -4 -2 -3 -2 -4 -2 -3 -2 -4 -2 -3 -2 -4 -2 -3 -2 -3 -3 -3 -2 -4 -2 2 1zm-2 -1c-33,-25 -39,-72 -15,-105 25,-33 72,-39 105,-15l-90 120zm-82 -122l146 -28 0 0 0 1 1 0 0 1 0 1 0 0 0 1 1 1 0 0 0 1 0 1 1 0 0 1 1 1 0 1 1 0 0 1 1 1 1 1 1 1 0 1 1 1 1 1 1 1 1 1 2 2 1 1 1 1 2 1 1 1 2 2 2 1 2 1 -87 122 -4 -3 -4 -3 -4 -3 -3 -3 -4 -3 -4 -3 -3 -3 -3 -4 -4 -3 -3 -3 -3 -4 -3 -3 -3 -4 -3 -4 -3 -3 -3 -4 -3 -4 -2 -4 -3 -4 -2 -4 -3 -4 -2 -5 -2 -4 -2 -4 -2 -5 -1 -4 -2 -5 -2 -4 -1 -5 -1 -4 -1 -5 -1 -5 0 0zm12 -125l138 56 0 0 0 1 -1 1 0 2 -1 1 0 1 0 2 -1 1 0 1 0 2 -1 1 0 1 0 1 0 2 -1 1 0 1 0 1 0 1 0 2 0 1 0 1 0 1 0 2 0 1 0 1 0 2 0 1 0 1 0 2 1 1 0 1 0 2 0 1 -146 28 -1 -4 -1 -4 0 -4 -1 -4 0 -4 -1 -4 0 -4 0 -4 0 -3 0 -4 0 -4 0 -4 0 -4 0 -4 0 -4 1 -4 0 -4 1 -4 0 -4 1 -4 1 -4 0 -4 1 -4 1 -4 1 -4 1 -4 1 -3 2 -4 1 -4 1 -4 2 -4 1 -3 0 0zm74 -101l97 113 0 0 -1 2 -2 1 -1 1 -2 2 -1 1 -2 1 -1 2 -1 1 -1 1 -2 2 -1 1 -1 1 -1 2 -1 1 -1 1 -1 2 -1 1 -1 2 -1 1 -1 1 -1 2 -1 1 0 1 -1 2 -1 1 -1 1 0 2 -1 1 -1 2 0 1 -1 1 -1 2 -138 -56 2 -4 1 -3 2 -4 2 -4 1 -3 2 -4 2 -3 2 -4 2 -3 2 -3 2 -4 2 -3 2 -3 2 -4 3 -3 2 -3 2 -3 3 -3 2 -3 3 -3 2 -3 3 -3 2 -3 3 -3 3 -3 3 -3 2 -3 3 -2 3 -3 3 -3 3 -2 3 -3 0 0zm112 -59l36 144 1 0 -1 1 -2 0 -2 1 -2 0 -1 1 -2 0 -2 1 -1 1 -2 0 -2 1 -1 1 -2 0 -2 1 -1 1 -2 1 -1 1 -2 0 -2 1 -1 1 -2 1 -1 1 -2 1 -2 1 -1 1 -2 1 -1 2 -2 1 -1 1 -2 1 -2 2 -1 1 -2 1 -97 -113 3 -3 3 -2 3 -3 4 -2 3 -3 3 -2 3 -2 3 -3 4 -2 3 -2 3 -2 4 -2 3 -2 4 -2 3 -2 4 -2 3 -2 4 -2 3 -1 4 -2 3 -2 4 -1 4 -2 3 -1 4 -2 4 -1 3 -1 4 -2 4 -1 4 -1 4 -1 3 -1 1 0zm-1 0c40,-11 81,13 91,53 11,40 -13,81 -53,91l-38 -144zm66 5l-58 137 0 0 0 0 1 0 1 1 1 0 1 0 1 1 1 0 1 0 1 1 1 0 1 0 1 0 1 0 2 0 0 0 1 1 1 0 1 0 2 0 1 0 1 0 0 0 1 0 1 -1 1 0 1 0 1 0 0 0 1 0 1 0 1 0 0 -1 -36 -144 2 -1 2 0 2 -1 2 0 2 0 2 -1 2 0 2 0 2 0 2 0 2 0 2 0 2 0 2 0 2 0 2 0 3 0 2 0 2 0 2 1 2 0 2 0 2 1 2 0 2 1 2 0 3 1 1 1 2 0 3 1 1 1 2 1 0 0zm46 37l-124 83 0 0 0 1 1 1 0 0 1 1 0 1 1 0 0 1 1 1 1 0 0 1 1 1 0 0 1 1 1 0 0 1 1 0 1 1 1 1 0 0 1 0 0 1 1 0 1 1 0 0 1 1 1 0 1 0 0 1 1 0 0 0 1 1 1 0 58 -137 2 0 2 1 1 1 2 1 1 0 2 1 2 1 1 1 2 1 1 1 2 1 2 1 1 1 1 1 2 2 2 1 1 1 1 1 2 2 1 1 2 1 1 2 1 1 2 1 1 2 1 1 1 2 2 1 1 2 1 1 1 2 1 1 0 0zm17 58l-149 0 0 0 0 0 0 1 0 1 0 1 0 0 0 1 0 1 0 1 1 1 0 0 0 1 0 1 0 1 0 1 1 0 0 2 0 1 0 0 1 1 0 1 0 1 1 1 0 1 0 0 1 1 0 1 1 1 0 0 0 1 1 1 0 1 1 0 124 -83 1 2 1 2 1 1 1 2 1 1 1 2 1 2 0 2 1 1 1 2 1 2 0 2 1 2 1 1 0 2 1 2 1 2 0 2 0 2 1 2 0 2 1 1 0 2 0 2 0 2 1 2 0 2 0 1 0 2 0 2 0 2 0 2 0 0zm-29 68l-105 -105 0 0 -1 1 -1 0 0 1 -1 0 0 1 -1 1 -1 1 0 1 -1 1 -1 1 0 1 -1 1 0 1 -1 1 -1 1 0 2 -1 1 0 1 -1 2 0 1 -1 1 0 2 0 1 -1 2 0 1 0 1 -1 2 0 1 0 2 0 1 0 1 0 2 149 0 0 2 0 3 0 2 0 2 -1 3 0 2 0 3 -1 2 0 3 -1 2 -1 3 0 2 -1 2 -1 3 -1 2 -1 2 -1 3 -1 2 -1 2 -1 2 -2 2 -1 2 -1 2 -1 2 -2 2 -1 2 -1 1 -2 2 -1 2 -2 1 -1 2 -2 1 0 0zm0 0c-29,29 -76,29 -105,0 -29,-29 -29,-76 0,-105l105 105z"/>
    <path id="1" class="fil4" d="M1987 1685c-4,3 -11,11 -19,21 -9,11 -17,22 -24,34 -7,11 -11,22 -12,33 -1,10 4,17 15,22 10,4 22,5 37,3 14,-1 29,-4 44,-8 16,-5 30,-9 44,-14 13,-6 24,-10 32,-13 20,-9 40,-20 60,-31 20,-12 39,-25 57,-40 19,-14 35,-30 50,-46 15,-17 27,-34 36,-52 7,-13 12,-27 13,-40 2,-13 0,-25 -5,-35 -4,-9 -12,-17 -22,-23 -11,-6 -25,-8 -41,-6 -23,2 -47,8 -73,18 -27,10 -53,19 -79,25 -25,6 -50,8 -74,4 -23,-3 -43,-18 -61,-44 -18,-27 -24,-56 -18,-85 6,-30 18,-58 37,-85 19,-27 41,-51 67,-74 25,-22 48,-40 68,-53 24,-16 51,-31 82,-46 31,-15 63,-26 95,-34 33,-8 65,-11 97,-8 32,2 61,13 87,33 11,8 18,18 22,28 3,10 3,20 0,29 -3,10 -9,18 -17,25 -9,7 -20,12 -32,15 -49,11 -100,28 -154,49 -54,22 -103,50 -146,83 -25,20 -37,35 -35,44 1,10 20,8 55,-6 29,-11 60,-17 94,-20 33,-2 65,3 94,15 35,13 60,32 77,58 16,25 26,53 28,83 3,30 0,61 -10,93 -9,32 -22,60 -38,86 -25,38 -54,71 -87,98 -34,28 -70,52 -110,73 -25,13 -52,25 -83,36 -30,11 -61,18 -93,22 -31,4 -62,4 -93,-1 -30,-4 -58,-16 -83,-35 -30,-22 -48,-47 -54,-76 -5,-28 -3,-56 8,-83 11,-27 29,-51 54,-72 24,-22 52,-36 81,-44 7,-2 12,-1 18,1 5,3 10,6 13,11 3,4 5,10 5,16 0,6 -3,11 -7,16z"/>
   </g>
   <path class="fil4" d="M491 1264c12,-35 29,-68 50,-99 22,-31 46,-59 74,-85 27,-26 57,-49 88,-70 32,-21 64,-40 96,-56 34,-15 70,-27 109,-38 38,-10 77,-15 116,-15 38,0 75,6 111,20 36,13 68,34 96,64 20,24 34,48 41,72 6,24 8,49 4,74 -4,25 -12,49 -23,72 -12,24 -27,46 -44,66 32,16 57,36 74,61 17,24 28,50 34,79 5,29 5,58 -1,87 -6,30 -15,57 -27,82 -20,39 -45,75 -75,108 -30,33 -63,63 -100,90 -37,27 -76,49 -117,67 -42,19 -83,32 -125,40 -32,7 -66,10 -100,8 -35,-1 -67,-8 -98,-19 -30,-12 -57,-29 -81,-52 -24,-22 -41,-51 -51,-86 -15,-48 -16,-97 -4,-147 13,-50 34,-98 62,-145 28,-47 60,-91 96,-133 37,-41 71,-78 103,-109 13,-12 26,-18 41,-19 15,-1 28,2 39,9 12,8 20,19 24,33 5,14 4,30 -3,49 38,-14 73,-34 104,-58 30,-25 54,-47 70,-67 10,-12 14,-23 13,-31 -1,-8 -7,-15 -16,-20 -10,-4 -23,-7 -40,-9 -16,-1 -34,-1 -54,1 -28,3 -56,9 -84,17 -27,9 -53,20 -78,32 -41,20 -80,45 -119,75 -39,30 -70,64 -91,104 -12,19 -26,32 -42,38 -17,5 -32,5 -45,0 -14,-6 -23,-17 -29,-32 -7,-16 -6,-35 2,-58zm280 195c-8,14 -17,32 -28,55 -12,22 -21,45 -29,68 -7,23 -11,45 -11,66 0,21 7,37 21,49 21,15 46,22 74,20 29,-2 58,-11 90,-25 31,-15 62,-34 93,-57 31,-24 59,-48 84,-74 25,-26 46,-52 62,-77 17,-26 26,-49 28,-69 2,-20 -5,-33 -20,-39 -16,-6 -31,-7 -45,-4 -23,14 -47,28 -74,41 -26,14 -52,25 -80,35 -27,9 -55,15 -83,18 -28,3 -55,0 -82,-7z"/>
   <path class="fil5" d="M1809 1343c-32,0 -74,8 -126,25 -52,16 -108,36 -170,58 -4,10 -9,22 -15,37 -6,15 -11,31 -15,46 -3,16 -5,31 -4,46 1,14 5,25 13,33 14,15 32,23 52,25 21,3 44,1 69,-5 25,-5 51,-13 77,-25 26,-11 51,-23 74,-37 24,-13 45,-26 64,-39 20,-12 35,-23 46,-32 13,-9 25,-19 38,-30 12,-11 23,-22 34,-32 5,-5 10,-8 17,-8 6,-1 11,0 16,3 4,4 7,8 9,14 2,6 1,12 -2,20 -9,25 -24,51 -44,77 -20,27 -40,50 -60,69 -24,25 -52,48 -84,70 -31,23 -65,41 -99,55 -35,15 -71,25 -108,30 -37,6 -74,4 -110,-4 -31,-7 -56,-19 -77,-36 -21,-17 -37,-37 -49,-61 -11,-23 -18,-49 -20,-77 -1,-27 1,-55 8,-82 -9,3 -17,5 -26,7 -10,2 -17,2 -24,0 -7,-1 -11,-5 -14,-10 -2,-6 -1,-15 4,-28 10,-23 26,-45 50,-65 24,-20 51,-40 80,-61 12,-19 25,-37 39,-54 14,-18 28,-35 42,-51l-39 15c-19,7 -33,9 -43,5 -10,-3 -17,-10 -21,-19 -4,-10 -4,-20 -1,-32 3,-12 8,-23 16,-33 19,-24 41,-44 66,-62 25,-18 52,-35 80,-49 28,-14 56,-26 87,-36 30,-9 59,-17 88,-23 25,-5 52,-9 81,-11 29,-3 57,-3 85,-1 28,2 55,7 81,16 26,8 49,21 70,38 11,9 18,18 22,26 4,8 5,15 3,21 -2,6 -7,10 -15,13 -9,3 -20,4 -34,2 -27,-4 -54,-5 -82,-3 -27,2 -54,6 -82,13 -27,6 -54,13 -80,21 -27,9 -53,17 -78,25 -17,14 -32,30 -47,48 -14,18 -28,36 -41,55 16,-2 35,-4 57,-4 21,-1 43,0 64,4 21,3 41,8 59,16 18,8 31,19 40,33 6,9 6,18 2,28 -5,10 -13,16 -23,16z"/>
   <path class="fil4" d="M1992 1685c-4,3 -10,11 -19,21 -8,11 -16,22 -23,34 -8,11 -12,22 -13,33 -1,10 4,17 15,22 10,4 23,5 37,3 15,-1 30,-4 46,-8 15,-5 30,-9 44,-14 14,-6 24,-10 32,-13 20,-9 40,-20 61,-31 21,-12 40,-25 58,-40 18,-14 35,-30 50,-46 15,-17 28,-34 37,-52 7,-13 12,-27 13,-40 2,-13 0,-25 -5,-35 -4,-9 -12,-17 -23,-23 -11,-6 -24,-8 -41,-6 -23,2 -48,8 -74,18 -27,10 -53,19 -79,25 -26,6 -51,8 -75,4 -24,-3 -45,-18 -62,-44 -18,-27 -24,-56 -18,-85 6,-30 18,-58 37,-85 19,-27 41,-51 67,-74 26,-22 49,-40 70,-53 24,-16 51,-31 82,-46 32,-15 64,-26 97,-34 33,-8 65,-11 98,-8 32,2 62,13 88,33 11,8 18,18 22,28 3,10 4,20 0,29 -3,10 -9,18 -17,25 -9,7 -20,12 -33,15 -49,11 -101,28 -155,49 -55,22 -104,50 -148,83 -26,20 -38,35 -36,44 2,10 21,8 56,-6 30,-11 61,-17 95,-20 34,-2 66,3 96,15 35,13 60,32 77,58 17,25 26,53 29,83 3,30 0,61 -10,93 -9,32 -23,60 -39,86 -25,38 -54,71 -88,98 -34,28 -71,52 -111,73 -25,13 -53,25 -84,36 -31,11 -62,18 -94,22 -32,4 -63,4 -94,-1 -31,-4 -59,-16 -84,-35 -31,-22 -50,-47 -55,-76 -6,-28 -3,-56 8,-83 11,-27 29,-51 54,-72 25,-22 53,-36 83,-44 6,-2 12,-1 18,1 5,3 10,6 13,11 3,4 5,10 5,16 0,6 -3,11 -8,16z"/>
  </g>
 </g>
</svg>
