<svg width="38" height="38" viewBox="0 0 38 38" fill="none" xmlns="http://www.w3.org/2000/svg">
<rect width="38" height="38" rx="4" fill="#F2F4F6"/>
<g clip-path="url(#clip0_2018_19370)">
<path d="M18.0426 10.5625C17.4915 9.70009 16.7321 8.99038 15.8344 8.49883C14.9367 8.00729 13.9297 7.74976 12.9062 7.75C12.451 8.53709 12.1779 9.41621 12.1072 10.3227C12.0364 11.2292 12.1697 12.1401 12.4973 12.9883C11.8559 13.9327 11.5089 15.046 11.5 16.1875V17.125C11.5 18.6168 12.0926 20.0476 13.1475 21.1025C14.2024 22.1574 15.6332 22.75 17.125 22.75H22.75C24.2418 22.75 25.6726 22.1574 26.7275 21.1025C27.7824 20.0476 28.375 18.6168 28.375 17.125V16.1875C28.3661 15.046 28.0191 13.9327 27.3777 12.9883C27.7053 12.1401 27.8386 11.2292 27.7678 10.3227C27.6971 9.41621 27.424 8.53709 26.9688 7.75C25.9453 7.74976 24.9383 8.00729 24.0406 8.49883C23.1429 8.99038 22.3835 9.70009 21.8324 10.5625H18.0426Z" stroke="#333437" stroke-width="2" stroke-linecap="round" stroke-linejoin="round"/>
<path d="M16.1875 31.1875V26.5C16.1875 25.5054 16.5826 24.5516 17.2858 23.8484C17.9891 23.1451 18.9429 22.75 19.9375 22.75C20.9321 22.75 21.8859 23.1451 22.5891 23.8484C23.2924 24.5516 23.6875 25.5054 23.6875 26.5V31.1875" stroke="#333437" stroke-width="2" stroke-linecap="round" stroke-linejoin="round"/>
<path d="M16.1875 28.375H12.4375C11.4429 28.375 10.4891 27.9799 9.78585 27.2766C9.08259 26.5734 8.6875 25.6196 8.6875 24.625C8.6875 23.6304 8.29241 22.6766 7.58915 21.9734C6.88589 21.2701 5.93206 20.875 4.9375 20.875" stroke="#333437" stroke-width="2" stroke-linecap="round" stroke-linejoin="round"/>
</g>
<defs>
<clipPath id="clip0_2018_19370">
<rect width="30" height="30" fill="white" transform="translate(4 4)"/>
</clipPath>
</defs>
</svg>
