<svg width="38" height="38" viewBox="0 0 38 38" fill="none" xmlns="http://www.w3.org/2000/svg">
<rect width="38" height="38" rx="4" fill="white"/>
<path d="M29.3125 7.75H8.6875C8.16973 7.75 7.75 8.16973 7.75 8.6875V29.3125C7.75 29.8303 8.16973 30.25 8.6875 30.25H29.3125C29.8303 30.25 30.25 29.8303 30.25 29.3125V8.6875C30.25 8.16973 29.8303 7.75 29.3125 7.75Z" stroke="#333437" stroke-width="2" stroke-linecap="round" stroke-linejoin="round"/>
<path d="M18.0625 17.125V24.625" stroke="#333437" stroke-width="2" stroke-linecap="round" stroke-linejoin="round"/>
<path d="M14.3125 17.125V24.625" stroke="#333437" stroke-width="2" stroke-linecap="round" stroke-linejoin="round"/>
<path d="M18.0625 20.4062C18.0625 19.536 18.4082 18.7014 19.0236 18.0861C19.6389 17.4707 20.4735 17.125 21.3438 17.125C22.214 17.125 23.0486 17.4707 23.6639 18.0861C24.2793 18.7014 24.625 19.536 24.625 20.4062V24.625" stroke="#333437" stroke-width="2" stroke-linecap="round" stroke-linejoin="round"/>
<path d="M14.3125 15.25C15.0892 15.25 15.7188 14.6204 15.7188 13.8438C15.7188 13.0671 15.0892 12.4375 14.3125 12.4375C13.5358 12.4375 12.9062 13.0671 12.9062 13.8438C12.9062 14.6204 13.5358 15.25 14.3125 15.25Z" fill="#333437"/>
</svg>
