<svg width="38" height="38" viewBox="0 0 38 38" fill="none" xmlns="http://www.w3.org/2000/svg">
<rect width="38" height="38" rx="4" fill="#F2F4F6"/>
<g clip-path="url(#clip0_2018_19371)">
<path d="M14.3125 24.6251C14.3125 24.6251 7.84961 20.8751 8.77891 10.5626C8.77891 10.5626 13.4266 15.2501 19 16.1876V14.3126C19 11.7345 21.1094 9.59346 23.6875 9.6251C24.5973 9.63567 25.4852 9.90601 26.2465 10.4043C27.0079 10.9026 27.611 11.608 27.9848 12.4376H32.125L28.375 16.1876C27.8758 24.0204 21.3344 30.2501 13.375 30.2501C9.625 30.2501 8.6875 28.8439 8.6875 28.8439C8.6875 28.8439 12.4375 27.4376 14.3125 24.6251Z" stroke="#333437" stroke-width="2" stroke-linecap="round" stroke-linejoin="round"/>
</g>
<defs>
<clipPath id="clip0_2018_19371">
<rect width="30" height="30" fill="white" transform="translate(4 4)"/>
</clipPath>
</defs>
</svg>
